{
.appVersion = "1342";
classes = (
{
automatic = 1;

glyphs = (
{
glyphname = a;
layers = (
{
hints = (
{
horizontal = 1;
place = "{-16, 20}";
type = Stem;
},
{
horizontal = 1;
place = "{318, -20}";
target = down;
type = TopGhost;
},
{
place = "{10, 20}";
type = Stem;
},
{
place = "{118, 27}";
type = Stem;
}
);
layerId = "E4C06A0B-08E3-4931-8B17-6F9B46D87BCD";
paths = (
{
closed = 1;
nodes = (
"165 -25 OFFCURVE",
"213 3 OFFCURVE",
"247 42 CURVE SMOOTH",
"270 69 OFFCURVE",
"288 93 OFFCURVE",
"301 116 CURVE SMOOTH",
"306 125 OFFCURVE",
"301 131 OFFCURVE",
"296 123 CURVE SMOOTH",
"274 93 LINE SMOOTH",
"261 74 OFFCURVE",
"222 25 OFFCURVE",
"199 25 CURVE SMOOTH",
"183 25 OFFCURVE",
"171 50 OFFCURVE",
"171 105 CURVE SMOOTH",
"171 136 OFFCURVE",
"174 165 OFFCURVE",
"179 196 CURVE SMOOTH",
"179 197 OFFCURVE",
"180 199 OFFCURVE",
"180 200 CURVE SMOOTH",
"180 207 OFFCURVE",
"177 210 OFFCURVE",
"171 210 CURVE SMOOTH",
"156 210 OFFCURVE",
"149 193 OFFCURVE",
"146 182 CURVE SMOOTH",
"144 171 LINE",
"128 128 OFFCURVE",
"95 75 OFFCURVE",
"73 43 CURVE",
"66 35 OFFCURVE",
"54 18 OFFCURVE",
"42 19 CURVE SMOOTH",
"28 21 OFFCURVE",
"30 58 OFFCURVE",
"33 66 CURVE",
"38 113 OFFCURVE",
"90 193 OFFCURVE",
"127 232 CURVE SMOOTH",
"147 255 OFFCURVE",
"166 269 OFFCURVE",
"194 278 CURVE SMOOTH",
"213 283 OFFCURVE",
"241 282 OFFCURVE",
"225 253 CURVE",
"222 249 OFFCURVE",
"221 245 OFFCURVE",
"218 241 CURVE SMOOTH",
"214 236 OFFCURVE",
"219 228 OFFCURVE",
"223 235 CURVE SMOOTH",
"231 248 LINE SMOOTH",
"256 284 OFFCURVE",
"225 307 OFFCURVE",
"181 291 CURVE SMOOTH",
"96 262 OFFCURVE",
"19 158 OFFCURVE",
"8 67 CURVE SMOOTH",
"5 51 OFFCURVE",
"9 12 OFFCURVE",
"33 9 CURVE SMOOTH",
"76 4 OFFCURVE",
"126 94 OFFCURVE",
"142 134 CURVE",
"141 103 OFFCURVE",
"143 72 OFFCURVE",
"146 57 CURVE SMOOTH"
);
}
);
width = 273;
}
);
note = a;
unicode = 0061;
},
{
glyphname = b;
layers = (
{
hints = (
{
horizontal = 1;
place = "{17, 227}";
type = Stem;
},
{
horizontal = 1;
place = "{464, -20}";
target = down;
type = TopGhost;
}
);
layerId = "E4C06A0B-08E3-4931-8B17-6F9B46D87BCD";
paths = (
{
closed = 1;
nodes = (
"8 324 OFFCURVE",
"12 263 OFFCURVE",
"46 247 CURVE",
"36 195 OFFCURVE",
"32 50 OFFCURVE",
"48 10 CURVE",
"48 9 OFFCURVE",
"49 8 OFFCURVE",
"50 7 CURVE",
"51 4 OFFCURVE",
"54 2 OFFCURVE",
"58 2 CURVE SMOOTH",
"66 1 OFFCURVE",
"74 7 OFFCURVE",
"70 20 CURVE",
"83 49 LINE SMOOTH",
"107 98 OFFCURVE",
"138 150 OFFCURVE",
"181 183 CURVE SMOOTH",
"189 190 OFFCURVE",
"205 202 OFFCURVE",
"216 202 CURVE SMOOTH",
"222 202 OFFCURVE",
"225 198 OFFCURVE",
"225 191 CURVE SMOOTH",
"225 184 OFFCURVE",
"223 178 OFFCURVE",
"222 171 CURVE",
"214 141 OFFCURVE",
"177 9 OFFCURVE",
"142 9 CURVE SMOOTH",
"134 9 OFFCURVE",
"124 18 OFFCURVE",
"124 26 CURVE SMOOTH",
"124 27 OFFCURVE",
"118 47 OFFCURVE",
"113 59 CURVE SMOOTH",
"112 63 OFFCURVE",
"109 65 OFFCURVE",
"106 65 CURVE SMOOTH",
"99 65 OFFCURVE",
"99 59 OFFCURVE",
"99 54 CURVE SMOOTH",
"99 33 OFFCURVE",
"117 -6 OFFCURVE",
"142 -6 CURVE SMOOTH",
"194 -6 OFFCURVE",
"254 147 OFFCURVE",
"254 191 CURVE SMOOTH",
"254 206 OFFCURVE",
"249 221 OFFCURVE",
"233 221 CURVE SMOOTH",
"214 221 OFFCURVE",
"191 204 OFFCURVE",
"176 193 CURVE SMOOTH",
"129 157 OFFCURVE",
"91 96 OFFCURVE",
"62 45 CURVE",
"51 93 OFFCURVE",
"64 215 OFFCURVE",
"69 238 CURVE",
"152 200 OFFCURVE",
"246 272 OFFCURVE",
"305 342 CURVE SMOOTH",
"390 443 OFFCURVE",
"439 583 OFFCURVE",
"351 618 CURVE SMOOTH",
"265 653 OFFCURVE",
"84 479 OFFCURVE",
"49 261 CURVE",
"21 276 OFFCURVE",
"20 326 OFFCURVE",
"23 349 CURVE SMOOTH",
"23 352 OFFCURVE",
"22 355 OFFCURVE",
"20 356 CURVE SMOOTH",
"16 359 OFFCURVE",
"13 358 OFFCURVE",
"12 353 CURVE",
"11 352 OFFCURVE",
"11 351 OFFCURVE",
"11 350 CURVE SMOOTH"
);
},
{
closed = 1;
nodes = (
"86 408 OFFCURVE",
"234 635 OFFCURVE",
"346 603 CURVE SMOOTH",
"421 582 OFFCURVE",
"373 452 OFFCURVE",
"293 353 CURVE SMOOTH",
"236 285 OFFCURVE",
"150 215 OFFCURVE",
"70 252 CURVE"
);
}
);
width = 258;
}
);
note = b;
unicode = 0062;
},
{
glyphname = c;
layers = (
{
hints = (
{
horizontal = 1;
place = "{-7, 21}";
target = up;
type = BottomGhost;
},
{
horizontal = 1;
place = "{156, 101}";
type = Stem;
},
{
horizontal = 1;
place = "{231, 26}";
type = Stem;
},
{
place = "{13, 25}";
type = Stem;
}
);
layerId = "E4C06A0B-08E3-4931-8B17-6F9B46D87BCD";
paths = (
{
closed = 1;
nodes = (
"82 -17 OFFCURVE",
"121 -1 OFFCURVE",
"156 22 CURVE SMOOTH",
"178 35 OFFCURVE",
"163 39 OFFCURVE",
"152 31 CURVE SMOOTH",
"143 26 OFFCURVE",
"133 20 OFFCURVE",
"121 15 CURVE SMOOTH",
"104 8 OFFCURVE",
"79 -2 OFFCURVE",
"60 9 CURVE SMOOTH",
"14 33 OFFCURVE",
"57 136 OFFCURVE",
"76 168 CURVE",
"84 179 OFFCURVE",
"113 237 OFFCURVE",
"133 226 CURVE SMOOTH",
"148 218 OFFCURVE",
"142 182 OFFCURVE",
"140 170 CURVE",
"140 162 OFFCURVE",
"124 145 OFFCURVE",
"142 136 CURVE SMOOTH",
"147 133 OFFCURVE",
"152 138 OFFCURVE",
"155 143 CURVE SMOOTH",
"156 144 OFFCURVE",
"157 146 OFFCURVE",
"157 148 CURVE",
"165 174 OFFCURVE",
"180 232 OFFCURVE",
"148 248 CURVE SMOOTH",
"108 269 OFFCURVE",
"71 209 OFFCURVE",
"55 182 CURVE",
"46 163 OFFCURVE",
"38 145 OFFCURVE",
"31 125 CURVE SMOOTH",
"20 88 OFFCURVE",
"12 20 OFFCURVE",
"54 -2 CURVE SMOOTH"
);
}
);
width = 192;
}
);
note = c;
unicode = 0063;
},
{
glyphname = d;
layers = (
{
hints = (
{
horizontal = 1;
place = "{-15, 21}";
target = up;
type = BottomGhost;
},
{
horizontal = 1;
place = "{19, 24}";
type = Stem;
},
{
horizontal = 1;
place = "{241, 249}";
type = Stem;
},
{
place = "{6, 171}";
type = Stem;
},
{
place = "{209, 20}";
type = Stem;
},
{
horizontal = 1;
place = "{241, 31}";
type = Stem;
}
);
layerId = "E4C06A0B-08E3-4931-8B17-6F9B46D87BCD";
paths = (
{
closed = 1;
nodes = (
"151 349 OFFCURVE",
"152 467 OFFCURVE",
"165 542 CURVE SMOOTH",
"182 637 OFFCURVE",
"227 627 OFFCURVE",
"234 533 CURVE SMOOTH",
"241 457 OFFCURVE",
"233 364 OFFCURVE",
"209 274 CURVE",
"190 275 OFFCURVE",
"174 272 OFFCURVE",
"159 268 CURVE"
);
},
{
closed = 1;
nodes = (
"149 205 OFFCURVE",
"156 174 OFFCURVE",
"162 142 CURVE",
"153 122 OFFCURVE",
"142 103 OFFCURVE",
"131 84 CURVE SMOOTH",
"116 62 OFFCURVE",
"102 45 OFFCURVE",
"93 37 CURVE SMOOTH",
"76 21 OFFCURVE",
"65 15 OFFCURVE",
"56 18 CURVE SMOOTH",
"43 21 OFFCURVE",
"36 28 OFFCURVE",
"33 39 CURVE",
"19 76 OFFCURVE",
"54 151 OFFCURVE",
"70 175 CURVE SMOOTH",
"91 205 OFFCURVE",
"117 227 OFFCURVE",
"145 241 CURVE"
);
},
{
closed = 1;
nodes = (
"196 227 OFFCURVE",
"186 196 OFFCURVE",
"173 166 CURVE",
"168 193 OFFCURVE",
"163 219 OFFCURVE",
"161 246 CURVE",
"176 252 OFFCURVE",
"190 256 OFFCURVE",
"205 258 CURVE"
);
},
{
closed = 1;
nodes = (
"259 251 OFFCURVE",
"265 265 OFFCURVE",
"252 269 CURVE",
"244 270 OFFCURVE",
"237 272 OFFCURVE",
"229 272 CURVE",
"233 289 OFFCURVE",
"238 306 OFFCURVE",
"240 322 CURVE SMOOTH",
"253 392 OFFCURVE",
"267 457 OFFCURVE",
"261 529 CURVE SMOOTH",
"253 642 OFFCURVE",
"173 685 OFFCURVE",
"146 537 CURVE SMOOTH",
"134 463 OFFCURVE",
"132 363 OFFCURVE",
"143 265 CURVE",
"97 249 OFFCURVE",
"60 218 OFFCURVE",
"36 178 CURVE SMOOTH",
"16 146 OFFCURVE",
"-7 75 OFFCURVE",
"17 35 CURVE SMOOTH",
"24 23 OFFCURVE",
"37 14 OFFCURVE",
"55 9 CURVE SMOOTH",
"69 5 OFFCURVE",
"90 12 OFFCURVE",
"117 41 CURVE SMOOTH",
"135 60 OFFCURVE",
"152 84 OFFCURVE",
"168 114 CURVE",
"181 44 OFFCURVE",
"237 -113 OFFCURVE",
"339 -80 CURVE SMOOTH",
"356 -75 OFFCURVE",
"353 -63 OFFCURVE",
"345 -66 CURVE SMOOTH",
"237 -102 OFFCURVE",
"194 70 OFFCURVE",
"180 135 CURVE",
"197 175 OFFCURVE",
"213 216 OFFCURVE",
"225 258 CURVE",
"232 258 OFFCURVE",
"239 258 OFFCURVE",
"246 255 CURVE SMOOTH"
);
}
);
width = 274;
}
);
note = d;
unicode = 0064;
},
{
glyphname = e;
layers = (
{
hints = (
{
horizontal = 1;
place = "{-9, 23}";
type = Stem;
},
{
horizontal = 1;
place = "{160, 85}";
type = Stem;
},
{
place = "{9, 33}";
type = Stem;
}
);
layerId = "E4C06A0B-08E3-4931-8B17-6F9B46D87BCD";
paths = (
{
closed = 1;
nodes = (
"113 -7 OFFCURVE",
"179 59 OFFCURVE",
"207 103 CURVE SMOOTH",
"209 107 OFFCURVE",
"205 115 OFFCURVE",
"200 108 CURVE SMOOTH",
"169 64 OFFCURVE",
"111 12 OFFCURVE",
"72 8 CURVE SMOOTH",
"57 7 OFFCURVE",
"47 17 OFFCURVE",
"46 30 CURVE SMOOTH",
"43 66 OFFCURVE",
"82 147 OFFCURVE",
"98 177 CURVE",
"101 174 OFFCURVE",
"117 169 OFFCURVE",
"128 170 CURVE SMOOTH",
"161 173 OFFCURVE",
"184 193 OFFCURVE",
"181 223 CURVE SMOOTH",
"180 238 OFFCURVE",
"174 260 OFFCURVE",
"155 258 CURVE SMOOTH",
"128 255 OFFCURVE",
"104 214 OFFCURVE",
"90 194 CURVE",
"66 210 OFFCURVE",
"81 180 OFFCURVE",
"82 179 CURVE",
"59 143 OFFCURVE",
"19 65 OFFCURVE",
"23 22 CURVE SMOOTH",
"25 -2 OFFCURVE",
"42 -14 OFFCURVE",
"65 -11 CURVE SMOOTH"
);
},
{
closed = 1;
nodes = (
"151 199 OFFCURVE",
"144 184 OFFCURVE",
"125 182 CURVE SMOOTH",
"122 182 OFFCURVE",
"107 186 OFFCURVE",
"104 187 CURVE",
"110 198 OFFCURVE",
"129 229 OFFCURVE",
"141 231 CURVE",
"148 231 OFFCURVE",
"149 223 OFFCURVE",
"149 218 CURVE SMOOTH"
);
}
);
width = 187;
}
);
note = e;
unicode = 0065;
},
{
glyphname = f;
layers = (
{
hints = (
{
horizontal = 1;
place = "{-57, 21}";
target = up;
type = BottomGhost;
},
{
horizontal = 1;
place = "{478, -20}";
target = down;
type = TopGhost;
}
);
layerId = "E4C06A0B-08E3-4931-8B17-6F9B46D87BCD";
paths = (
{
closed = 1;
nodes = (
"149 183 OFFCURVE",
"188 80 OFFCURVE",
"204 -4 CURVE SMOOTH",
"215 -60 OFFCURVE",
"211 -109 OFFCURVE",
"207 -138 CURVE SMOOTH",
"194 -237 OFFCURVE",
"133 -251 OFFCURVE",
"106 -149 CURVE SMOOTH",
"82 -63 OFFCURVE",
"85 84 OFFCURVE",
"101 175 CURVE"
);
},
{
closed = 1;
nodes = (
"220 260 OFFCURVE",
"218 270 OFFCURVE",
"205 266 CURVE SMOOTH",
"180 258 OFFCURVE",
"144 245 OFFCURVE",
"109 226 CURVE",
"116 259 OFFCURVE",
"119 271 OFFCURVE",
"125 290 CURVE SMOOTH",
"149 366 OFFCURVE",
"184 464 OFFCURVE",
"239 469 CURVE SMOOTH",
"254 470 OFFCURVE",
"254 484 OFFCURVE",
"239 483 CURVE SMOOTH",
"177 478 OFFCURVE",
"129 391 OFFCURVE",
"101 300 CURVE SMOOTH",
"90 263 OFFCURVE",
"86 247 OFFCURVE",
"81 210 CURVE",
"49 190 OFFCURVE",
"23 168 OFFCURVE",
"12 147 CURVE",
"7 134 OFFCURVE",
"28 118 OFFCURVE",
"33 131 CURVE SMOOTH",
"41 149 OFFCURVE",
"57 168 OFFCURVE",
"75 171 CURVE",
"64 74 OFFCURVE",
"62 -99 OFFCURVE",
"99 -185 CURVE SMOOTH",
"139 -270 OFFCURVE",
"198 -250 OFFCURVE",
"220 -171 CURVE SMOOTH",
"232 -131 OFFCURVE",
"232 -68 OFFCURVE",
"217 0 CURVE SMOOTH",
"196 85 OFFCURVE",
"159 194 OFFCURVE",
"102 186 CURVE",
"102 189 OFFCURVE",
"104 198 OFFCURVE",
"105 203 CURVE",
"138 226 OFFCURVE",
"179 248 OFFCURVE",
"207 256 CURVE SMOOTH"
);
}
);
width = 220;
}
);
note = f;
unicode = 0066;
},
{
glyphname = g;
layers = (
{
hints = (
{
horizontal = 1;
place = "{270, -20}";
target = down;
type = TopGhost;
},
{
place = "{12, 32}";
type = Stem;
},
{
place = "{178, 26}";
type = Stem;
}
);
layerId = "E4C06A0B-08E3-4931-8B17-6F9B46D87BCD";
paths = (
{
closed = 1;
nodes = (
"147 -95 OFFCURVE",
"119 -270 OFFCURVE",
"18 -281 CURVE SMOOTH",
"-55 -289 OFFCURVE",
"-71 -237 OFFCURVE",
"-55 -185 CURVE SMOOTH",
"-25 -85 OFFCURVE",
"69 -31 OFFCURVE",
"159 -15 CURVE"
);
},
{
closed = 1;
nodes = (
"-93 -246 OFFCURVE",
"-71 -306 OFFCURVE",
"17 -297 CURVE SMOOTH",
"140 -284 OFFCURVE",
"165 -121 OFFCURVE",
"177 -12 CURVE",
"209 -7 OFFCURVE",
"224 6 OFFCURVE",
"179 2 CURVE",
"186 55 OFFCURVE",
"192 106 OFFCURVE",
"192 133 CURVE",
"203 146 OFFCURVE",
"222 167 OFFCURVE",
"225 182 CURVE SMOOTH",
"230 206 OFFCURVE",
"209 210 OFFCURVE",
"194 187 CURVE SMOOTH",
"183 171 OFFCURVE",
"183 148 OFFCURVE",
"180 135 CURVE",
"159 111 OFFCURVE",
"81 34 OFFCURVE",
"48 42 CURVE SMOOTH",
"33 45 OFFCURVE",
"34 59 OFFCURVE",
"37 70 CURVE SMOOTH",
"48 127 OFFCURVE",
"138 230 OFFCURVE",
"199 230 CURVE",
"222 227 LINE SMOOTH",
"229 226 OFFCURVE",
"235 224 OFFCURVE",
"238 217 CURVE",
"238 214 OFFCURVE",
"238 211 OFFCURVE",
"241 211 CURVE",
"244 210 OFFCURVE",
"246 212 OFFCURVE",
"246 215 CURVE",
"250 232 OFFCURVE",
"231 246 OFFCURVE",
"216 249 CURVE SMOOTH",
"146 265 OFFCURVE",
"19 139 OFFCURVE",
"5 74 CURVE SMOOTH",
"0 51 OFFCURVE",
"9 36 OFFCURVE",
"32 31 CURVE SMOOTH",
"82 21 OFFCURVE",
"147 88 OFFCURVE",
"179 120 CURVE",
"176 95 OFFCURVE",
"170 50 OFFCURVE",
"161 -1 CURVE",
"63 -17 OFFCURVE",
"-46 -76 OFFCURVE",
"-75 -181 CURVE SMOOTH"
);
}
);
width = 229;
}
);
note = g;
unicode = 0067;
},
{
glyphname = h;
layers = (
{
hints = (
{
horizontal = 1;
place = "{-15, 21}";
target = up;
type = BottomGhost;
},
{
horizontal = 1;
place = "{465, -20}";
target = down;
type = TopGhost;
},
{
place = "{6, 173}";
type = Stem;
}
);
layerId = "E4C06A0B-08E3-4931-8B17-6F9B46D87BCD";
paths = (
{
closed = 1;
nodes = (
"234 51 OFFCURVE",
"253 71 OFFCURVE",
"264 86 CURVE SMOOTH",
"272 97 OFFCURVE",
"263 101 OFFCURVE",
"258 92 CURVE SMOOTH",
"245 71 OFFCURVE",
"212 51 OFFCURVE",
"195 79 CURVE SMOOTH",
"174 114 OFFCURVE",
"157 184 OFFCURVE",
"151 200 CURVE SMOOTH",
"148 209 OFFCURVE",
"142 212 OFFCURVE",
"131 209 CURVE SMOOTH",
"126 207 OFFCURVE",
"121 204 OFFCURVE",
"117 200 CURVE SMOOTH",
"90 171 OFFCURVE",
"62 121 OFFCURVE",
"47 74 CURVE",
"52 178 OFFCURVE",
"87 314 OFFCURVE",
"111 382 CURVE SMOOTH",
"120 409 OFFCURVE",
"130 432 OFFCURVE",
"141 457 CURVE SMOOTH",
"145 466 OFFCURVE",
"148 476 OFFCURVE",
"145 487 CURVE",
"142 491 OFFCURVE",
"140 497 OFFCURVE",
"135 494 CURVE",
"116 489 OFFCURVE",
"89 409 OFFCURVE",
"84 389 CURVE SMOOTH",
"67 322 OFFCURVE",
"54 254 OFFCURVE",
"43 186 CURVE SMOOTH",
"32 109 OFFCURVE",
"26 26 OFFCURVE",
"46 -34 CURVE",
"46 -37 OFFCURVE",
"48 -38 OFFCURVE",
"51 -37 CURVE SMOOTH",
"54 -36 OFFCURVE",
"56 -34 OFFCURVE",
"56 -31 CURVE",
"52 -18 OFFCURVE",
"49 -4 OFFCURVE",
"48 12 CURVE",
"54 60 OFFCURVE",
"73 125 OFFCURVE",
"103 163 CURVE SMOOTH",
"116 178 OFFCURVE",
"124 181 OFFCURVE",
"137 154 CURVE SMOOTH",
"145 136 OFFCURVE",
"159 95 OFFCURVE",
"178 67 CURVE SMOOTH",
"190 49 OFFCURVE",
"206 46 OFFCURVE",
"222 49 CURVE SMOOTH"
);
}
);
width = 257;
}
);
note = h;
unicode = 0068;
},
{
glyphname = i;
layers = (
{
hints = (
{
horizontal = 1;
place = "{305, -20}";
target = down;
type = TopGhost;
}
);
layerId = "E4C06A0B-08E3-4931-8B17-6F9B46D87BCD";
paths = (
{
closed = 1;
nodes = (
"125 303 OFFCURVE",
"118 305 OFFCURVE",
"111 305 CURVE SMOOTH",
"99 305 OFFCURVE",
"75 296 OFFCURVE",
"75 281 CURVE SMOOTH",
"75 273 OFFCURVE",
"83 271 OFFCURVE",
"88 271 CURVE SMOOTH",
"100 271 OFFCURVE",
"125 281 OFFCURVE",
"125 296 CURVE SMOOTH"
);
},
{
closed = 1;
nodes = (
"67 -25 OFFCURVE",
"110 0 OFFCURVE",
"148 46 CURVE SMOOTH",
"171 73 OFFCURVE",
"192 99 OFFCURVE",
"205 120 CURVE SMOOTH",
"210 129 OFFCURVE",
"201 134 OFFCURVE",
"197 125 CURVE",
"178 94 OFFCURVE",
"163 76 OFFCURVE",
"146 60 CURVE SMOOTH",
"99 15 OFFCURVE",
"73 11 OFFCURVE",
"73 105 CURVE SMOOTH",
"73 136 OFFCURVE",
"76 165 OFFCURVE",
"81 196 CURVE SMOOTH",
"81 197 OFFCURVE",
"82 199 OFFCURVE",
"82 200 CURVE SMOOTH",
"82 207 OFFCURVE",
"79 210 OFFCURVE",
"73 210 CURVE SMOOTH",
"60 210 OFFCURVE",
"51 193 OFFCURVE",
"48 182 CURVE SMOOTH",
"43 155 OFFCURVE",
"43 81 OFFCURVE",
"48 57 CURVE SMOOTH"
);
}
);
width = 173;
}
);
note = i;
unicode = 0069;
},
{
glyphname = j;
layers = (
{
hints = (
{
horizontal = 1;
place = "{-196, 171}";
type = Stem;
},
{
horizontal = 1;
place = "{269, -20}";
target = down;
type = TopGhost;
},
{
place = "{52, 123}";
type = Stem;
},
{
place = "{144, 31}";
type = Stem;
},
{
place = "{-22, 197}";
type = Stem;
}
);
layerId = "E4C06A0B-08E3-4931-8B17-6F9B46D87BCD";
paths = (
{
closed = 1;
nodes = (
"88 234 OFFCURVE",
"93 236 OFFCURVE",
"93 243 CURVE SMOOTH",
"93 258 OFFCURVE",
"69 269 OFFCURVE",
"57 269 CURVE SMOOTH",
"50 269 OFFCURVE",
"44 267 OFFCURVE",
"44 260 CURVE SMOOTH",
"44 245 OFFCURVE",
"69 234 OFFCURVE",
"81 234 CURVE SMOOTH"
);
},
{
closed = 1;
nodes = (
"9 -199 OFFCURVE",
"52 -184 OFFCURVE",
"78 -162 CURVE SMOOTH",
"113 -132 OFFCURVE",
"135 -99 OFFCURVE",
"140 -59 CURVE SMOOTH",
"154 41 OFFCURVE",
"56 133 OFFCURVE",
"62 178 CURVE SMOOTH",
"63 185 OFFCURVE",
"66 188 OFFCURVE",
"67 192 CURVE SMOOTH",
"67 194 OFFCURVE",
"66 194 OFFCURVE",
"65 194 CURVE SMOOTH",
"57 194 OFFCURVE",
"52 178 OFFCURVE",
"52 173 CURVE",
"43 112 OFFCURVE",
"124 45 OFFCURVE",
"111 -48 CURVE SMOOTH",
"106 -87 OFFCURVE",
"83 -120 OFFCURVE",
"50 -150 CURVE SMOOTH",
"29 -168 OFFCURVE",
"0 -190 OFFCURVE",
"-27 -192 CURVE SMOOTH",
"-48 -194 OFFCURVE",
"-60 -182 OFFCURVE",
"-57 -161 CURVE SMOOTH",
"-53 -136 OFFCURVE",
"-32 -111 OFFCURVE",
"-14 -90 CURVE SMOOTH",
"0 -73 OFFCURVE",
"39 -39 OFFCURVE",
"60 -37 CURVE SMOOTH",
"75 -36 OFFCURVE",
"72 -47 OFFCURVE",
"79 -46 CURVE SMOOTH",
"80 -46 OFFCURVE",
"81 -45 OFFCURVE",
"81 -43 CURVE SMOOTH",
"83 -31 OFFCURVE",
"66 -25 OFFCURVE",
"55 -26 CURVE SMOOTH",
"28 -28 OFFCURVE",
"-6 -57 OFFCURVE",
"-26 -78 CURVE SMOOTH",
"-45 -99 OFFCURVE",
"-64 -132 OFFCURVE",
"-68 -159 CURVE SMOOTH",
"-72 -192 OFFCURVE",
"-52 -204 OFFCURVE",
"-21 -201 CURVE SMOOTH"
);
}
);
width = 178;
}
);
note = j;
unicode = 006A;
},
{
glyphname = k;
layers = (
{
hints = (
{
horizontal = 1;
place = "{-20, 21}";
target = up;
type = BottomGhost;
},
{
horizontal = 1;
place = "{465, -20}";
target = down;
type = TopGhost;
}
);
layerId = "E4C06A0B-08E3-4931-8B17-6F9B46D87BCD";
paths = (
{
closed = 1;
nodes = (
"230 200 OFFCURVE",
"201 189 OFFCURVE",
"182 182 CURVE SMOOTH",
"175 179 OFFCURVE",
"170 180 OFFCURVE",
"163 177 CURVE",
"160 177 OFFCURVE",
"158 176 OFFCURVE",
"158 173 CURVE SMOOTH",
"158 171 OFFCURVE",
"160 170 OFFCURVE",
"163 170 CURVE SMOOTH",
"172 170 OFFCURVE",
"215 184 OFFCURVE",
"226 187 CURVE",
"194 168 OFFCURVE",
"163 147 OFFCURVE",
"133 124 CURVE",
"133 135 OFFCURVE",
"119 146 OFFCURVE",
"111 149 CURVE SMOOTH",
"97 154 OFFCURVE",
"91 151 OFFCURVE",
"95 144 CURVE SMOOTH",
"99 135 OFFCURVE",
"103 117 OFFCURVE",
"106 105 CURVE",
"75 78 OFFCURVE",
"48 58 OFFCURVE",
"21 25 CURVE",
"45 143 OFFCURVE",
"164 340 OFFCURVE",
"249 427 CURVE SMOOTH",
"257 435 OFFCURVE",
"261 444 OFFCURVE",
"261 455 CURVE SMOOTH",
"261 459 OFFCURVE",
"261 465 OFFCURVE",
"254 465 CURVE SMOOTH",
"251 465 OFFCURVE",
"248 462 OFFCURVE",
"245 461 CURVE",
"214 441 OFFCURVE",
"193 409 OFFCURVE",
"164 386 CURVE SMOOTH",
"157 381 OFFCURVE",
"150 376 OFFCURVE",
"141 372 CURVE SMOOTH",
"138 371 OFFCURVE",
"137 369 OFFCURVE",
"137 367 CURVE SMOOTH",
"137 366 OFFCURVE",
"138 365 OFFCURVE",
"140 365 CURVE SMOOTH",
"145 365 OFFCURVE",
"163 374 OFFCURVE",
"168 378 CURVE",
"119 289 OFFCURVE",
"4 102 OFFCURVE",
"4 6 CURVE SMOOTH",
"4 2 OFFCURVE",
"5 -20 OFFCURVE",
"10 -20 CURVE SMOOTH",
"18 -20 OFFCURVE",
"17 -5 OFFCURVE",
"18 0 CURVE",
"41 32 OFFCURVE",
"78 70 OFFCURVE",
"109 93 CURVE",
"114 64 OFFCURVE",
"139 -14 OFFCURVE",
"179 -14 CURVE SMOOTH",
"192 -14 OFFCURVE",
"211 0 OFFCURVE",
"211 15 CURVE SMOOTH",
"211 17 OFFCURVE",
"210 18 OFFCURVE",
"209 18 CURVE SMOOTH",
"208 18 OFFCURVE",
"207 17 OFFCURVE",
"207 15 CURVE",
"202 4 OFFCURVE",
"192 -2 OFFCURVE",
"179 -2 CURVE SMOOTH",
"143 -2 OFFCURVE",
"137 88 OFFCURVE",
"134 113 CURVE",
"166 135 OFFCURVE",
"218 145 OFFCURVE",
"247 166 CURVE SMOOTH",
"254 171 OFFCURVE",
"256 181 OFFCURVE",
"256 189 CURVE SMOOTH",
"256 193 OFFCURVE",
"256 200 OFFCURVE",
"249 200 CURVE SMOOTH"
);
}
);
width = 244;
}
);
note = k;
unicode = 006B;
},
{
glyphname = l;
layers = (
{
hints = (
{
horizontal = 1;
place = "{-67, 21}";
target = up;
type = BottomGhost;
},
{
horizontal = 1;
place = "{438, -20}";
target = down;
type = TopGhost;
},
{
place = "{48, 29}";
type = Stem;
},
{
place = "{48, 85}";
type = Stem;
}
);
layerId = "E4C06A0B-08E3-4931-8B17-6F9B46D87BCD";
paths = (
{
closed = 1;
nodes = (
"100 268 OFFCURVE",
"172 412 OFFCURVE",
"243 472 CURVE",
"267 495 OFFCURVE",
"324 527 OFFCURVE",
"324 460 CURVE SMOOTH",
"324 367 OFFCURVE",
"185 214 OFFCURVE",
"67 174 CURVE"
);
},
{
closed = 1;
nodes = (
"24 -5 OFFCURVE",
"45 -26 OFFCURVE",
"74 -26 CURVE SMOOTH",
"137 -26 OFFCURVE",
"213 59 OFFCURVE",
"245 104 CURVE SMOOTH",
"253 115 OFFCURVE",
"244 115 OFFCURVE",
"236 105 CURVE SMOOTH",
"193 49 OFFCURVE",
"138 -7 OFFCURVE",
"84 -3 CURVE SMOOTH",
"21 0 OFFCURVE",
"55 131 OFFCURVE",
"60 156 CURVE",
"150 189 OFFCURVE",
"348 346 OFFCURVE",
"348 461 CURVE SMOOTH",
"348 544 OFFCURVE",
"267 510 OFFCURVE",
"230 480 CURVE SMOOTH",
"118 390 OFFCURVE",
"17 170 OFFCURVE",
"22 35 CURVE SMOOTH"
);
}
);
width = 224;
}
);
note = l;
unicode = 006C;
},
{
glyphname = m;
layers = (
{
hints = (
{
horizontal = 1;
place = "{-43, 21}";
target = up;
type = BottomGhost;
},
{
horizontal = 1;
place = "{0, 21}";
target = up;
type = BottomGhost;
},
{
horizontal = 1;
place = "{44, 174}";
type = Stem;
},
{
horizontal = 1;
place = "{253, -20}";
target = down;
type = TopGhost;
},
{
horizontal = 1;
place = "{278, -20}";
target = down;
type = TopGhost;
},
{
place = "{38, 25}";
type = Stem;
},
{
place = "{135, 30}";
type = Stem;
},
{
place = "{246, 28}";
type = Stem;
},
{
horizontal = 1;
place = "{11, 207}";
type = Stem;
},
{
horizontal = 1;
place = "{-1, 21}";
target = up;
type = BottomGhost;
}
);
layerId = "E4C06A0B-08E3-4931-8B17-6F9B46D87BCD";
paths = (
{
closed = 1;
nodes = (
"289 6 OFFCURVE",
"324 25 OFFCURVE",
"324 41 CURVE SMOOTH",
"324 43 OFFCURVE",
"323 44 OFFCURVE",
"322 44 CURVE SMOOTH",
"317 44 OFFCURVE",
"307 19 OFFCURVE",
"286 19 CURVE SMOOTH",
"269 19 OFFCURVE",
"269 40 OFFCURVE",
"269 53 CURVE SMOOTH",
"269 84 OFFCURVE",
"277 116 OFFCURVE",
"289 147 CURVE SMOOTH",
"290 150 OFFCURVE",
"293 153 OFFCURVE",
"293 157 CURVE SMOOTH",
"293 162 OFFCURVE",
"290 165 OFFCURVE",
"285 165 CURVE SMOOTH",
"273 165 OFFCURVE",
"262 155 OFFCURVE",
"255 147 CURVE SMOOTH",
"229 115 OFFCURVE",
"186 59 OFFCURVE",
"155 59 CURVE SMOOTH",
"139 59 OFFCURVE",
"220 165 OFFCURVE",
"220 205 CURVE SMOOTH",
"220 223 OFFCURVE",
"214 237 OFFCURVE",
"195 237 CURVE SMOOTH",
"182 237 OFFCURVE",
"167 230 OFFCURVE",
"157 221 CURVE SMOOTH",
"129 199 OFFCURVE",
"90 121 OFFCURVE",
"67 68 CURVE",
"76 128 OFFCURVE",
"58 241 OFFCURVE",
"3 272 CURVE",
"2 273 OFFCURVE",
"-1 274 OFFCURVE",
"-3 274 CURVE SMOOTH",
"-6 274 OFFCURVE",
"-5 268 OFFCURVE",
"-2 268 CURVE",
"27 249 OFFCURVE",
"33 211 OFFCURVE",
"36 183 CURVE SMOOTH",
"42 139 OFFCURVE",
"41 62 OFFCURVE",
"28 22 CURVE",
"26 19 OFFCURVE",
"26 15 OFFCURVE",
"26 11 CURVE SMOOTH",
"27 1 OFFCURVE",
"35 -10 OFFCURVE",
"47 -10 CURVE SMOOTH",
"49 -10 OFFCURVE",
"50 -9 OFFCURVE",
"51 -9 CURVE",
"63 -4 OFFCURVE",
"61 4 OFFCURVE",
"65 13 CURVE",
"64 20 LINE",
"64 20 OFFCURVE",
"65 21 OFFCURVE",
"65 22 CURVE",
"76 58 OFFCURVE",
"132 211 OFFCURVE",
"177 211 CURVE SMOOTH",
"194 211 OFFCURVE",
"180 172 OFFCURVE",
"178 166 CURVE SMOOTH",
"172 144 OFFCURVE",
"134 76 OFFCURVE",
"136 52 CURVE SMOOTH",
"136 46 OFFCURVE",
"146 39 OFFCURVE",
"150 39 CURVE SMOOTH",
"178 39 OFFCURVE",
"235 106 OFFCURVE",
"255 126 CURVE",
"249 105 OFFCURVE",
"242 80 OFFCURVE",
"242 57 CURVE SMOOTH",
"242 35 OFFCURVE",
"248 6 OFFCURVE",
"276 6 CURVE SMOOTH"
);
}
);
width = 329;
}
);
note = m;
unicode = 006D;
},
{
glyphname = n;
layers = (
{
hints = (
{
horizontal = 1;
place = "{-1, 21}";
target = up;
type = BottomGhost;
},
{
horizontal = 1;
place = "{253, -20}";
target = down;
type = TopGhost;
},
{
place = "{38, 25}";
type = Stem;
},
{
place = "{135, 30}";
type = Stem;
},
{
horizontal = 1;
place = "{0, 21}";
target = up;
type = BottomGhost;
}
);
layerId = "E4C06A0B-08E3-4931-8B17-6F9B46D87BCD";
paths = (
{
closed = 1;
nodes = (
"200 16 OFFCURVE",
"225 23 OFFCURVE",
"225 36 CURVE SMOOTH",
"225 37 OFFCURVE",
"224 38 OFFCURVE",
"223 38 CURVE SMOOTH",
"222 38 OFFCURVE",
"221 36 OFFCURVE",
"220 36 CURVE",
"215 28 OFFCURVE",
"202 23 OFFCURVE",
"193 23 CURVE SMOOTH",
"146 23 OFFCURVE",
"172 144 OFFCURVE",
"178 165 CURVE SMOOTH",
"179 169 OFFCURVE",
"180 172 OFFCURVE",
"180 174 CURVE SMOOTH",
"180 178 OFFCURVE",
"178 183 OFFCURVE",
"173 183 CURVE SMOOTH",
"158 183 OFFCURVE",
"148 171 OFFCURVE",
"140 160 CURVE SMOOTH",
"115 125 OFFCURVE",
"77 76 OFFCURVE",
"46 52 CURVE",
"64 119 OFFCURVE",
"72 217 OFFCURVE",
"18 251 CURVE",
"17 252 OFFCURVE",
"15 253 OFFCURVE",
"13 253 CURVE SMOOTH",
"12 253 OFFCURVE",
"11 252 OFFCURVE",
"11 251 CURVE SMOOTH",
"11 248 OFFCURVE",
"12 247 OFFCURVE",
"14 247 CURVE",
"37 230 OFFCURVE",
"38 196 OFFCURVE",
"38 171 CURVE SMOOTH",
"38 132 OFFCURVE",
"28 63 OFFCURVE",
"12 28 CURVE",
"10 25 OFFCURVE",
"9 21 OFFCURVE",
"9 18 CURVE SMOOTH",
"9 9 OFFCURVE",
"15 -1 OFFCURVE",
"26 -1 CURVE SMOOTH",
"27 -1 OFFCURVE",
"28 0 OFFCURVE",
"29 0 CURVE",
"40 4 OFFCURVE",
"40 12 OFFCURVE",
"44 20 CURVE SMOOTH",
"51 31 OFFCURVE",
"107 102 OFFCURVE",
"128 125 CURVE SMOOTH",
"138 135 OFFCURVE",
"146 132 OFFCURVE",
"144 125 CURVE SMOOTH",
"133 81 OFFCURVE",
"142 16 OFFCURVE",
"189 16 CURVE SMOOTH"
);
}
);
width = 210;
}
);
note = n;
unicode = 006E;
},
{
glyphname = o;
layers = (
{
hints = (
{
horizontal = 1;
place = "{8, 21}";
target = up;
type = BottomGhost;
},
{
horizontal = 1;
place = "{261, -20}";
target = down;
type = TopGhost;
},
{
place = "{5, 34}";
type = Stem;
},
{
place = "{249, 20}";
type = Stem;
},
{
place = "{5, 22}";
type = Stem;
}
);
layerId = "E4C06A0B-08E3-4931-8B17-6F9B46D87BCD";
paths = (
{
closed = 1;
nodes = (
"162 8 OFFCURVE",
"269 88 OFFCURVE",
"269 177 CURVE SMOOTH",
"269 228 OFFCURVE",
"234 261 OFFCURVE",
"183 261 CURVE SMOOTH",
"131 261 OFFCURVE",
"75 225 OFFCURVE",
"42 187 CURVE SMOOTH",
"23 164 OFFCURVE",
"5 128 OFFCURVE",
"5 99 CURVE SMOOTH",
"5 87 OFFCURVE",
"9 74 OFFCURVE",
"18 65 CURVE",
"17 62 OFFCURVE",
"17 58 OFFCURVE",
"17 53 CURVE SMOOTH",
"17 18 OFFCURVE",
"48 8 OFFCURVE",
"79 8 CURVE SMOOTH"
);
},
{
closed = 1;
nodes = (
"249 91 OFFCURVE",
"158 20 OFFCURVE",
"79 20 CURVE SMOOTH",
"52 20 OFFCURVE",
"39 27 OFFCURVE",
"39 54 CURVE",
"44 53 OFFCURVE",
"50 51 OFFCURVE",
"55 51 CURVE SMOOTH",
"58 51 OFFCURVE",
"59 52 OFFCURVE",
"59 54 CURVE SMOOTH",
"59 57 OFFCURVE",
"43 62 OFFCURVE",
"39 65 CURVE",
"42 118 OFFCURVE",
"100 169 OFFCURVE",
"142 193 CURVE",
"140 190 OFFCURVE",
"129 176 OFFCURVE",
"137 176 CURVE SMOOTH",
"141 176 OFFCURVE",
"167 197 OFFCURVE",
"173 201 CURVE SMOOTH",
"177 204 OFFCURVE",
"180 211 OFFCURVE",
"180 213 CURVE SMOOTH",
"180 222 OFFCURVE",
"175 238 OFFCURVE",
"165 233 CURVE SMOOTH",
"84 193 OFFCURVE",
"41 132 OFFCURVE",
"27 98 CURVE",
"32 170 OFFCURVE",
"112 246 OFFCURVE",
"184 246 CURVE SMOOTH",
"228 246 OFFCURVE",
"249 217 OFFCURVE",
"249 174 CURVE SMOOTH"
);
}
);
width = 270;
}
);
note = o;
unicode = 006F;
},
{
glyphname = p;
layers = (
{
hints = (
{
horizontal = 1;
place = "{-282, 21}";
target = up;
type = BottomGhost;
},
{
horizontal = 1;
place = "{4, 78}";
type = Stem;
},
{
horizontal = 1;
place = "{304, -20}";
target = down;
type = TopGhost;
},
{
place = "{19, 225}";
type = Stem;
}
);
layerId = "E4C06A0B-08E3-4931-8B17-6F9B46D87BCD";
paths = (
{
closed = 1;
nodes = (
"248 87 OFFCURVE",
"276 99 OFFCURVE",
"276 102 CURVE SMOOTH",
"276 105 OFFCURVE",
"274 106 OFFCURVE",
"271 106 CURVE SMOOTH",
"268 106 OFFCURVE",
"248 98 OFFCURVE",
"243 97 CURVE",
"240 123 OFFCURVE",
"205 193 OFFCURVE",
"189 216 CURVE",
"228 270 LINE",
"235 278 OFFCURVE",
"242 286 OFFCURVE",
"247 294 CURVE SMOOTH",
"248 295 OFFCURVE",
"248 296 OFFCURVE",
"248 298 CURVE SMOOTH",
"248 303 OFFCURVE",
"243 304 OFFCURVE",
"240 304 CURVE SMOOTH",
"232 304 OFFCURVE",
"221 300 OFFCURVE",
"216 295 CURVE SMOOTH",
"211 290 OFFCURVE",
"181 245 OFFCURVE",
"176 237 CURVE",
"169 246 OFFCURVE",
"153 268 OFFCURVE",
"140 268 CURVE SMOOTH",
"133 268 OFFCURVE",
"132 258 OFFCURVE",
"131 253 CURVE SMOOTH",
"124 206 OFFCURVE",
"115 152 OFFCURVE",
"94 109 CURVE",
"90 98 OFFCURVE",
"83 90 OFFCURVE",
"78 81 CURVE",
"66 81 OFFCURVE",
"55 82 OFFCURVE",
"43 82 CURVE SMOOTH",
"32 82 OFFCURVE",
"19 80 OFFCURVE",
"19 65 CURVE SMOOTH",
"19 46 OFFCURVE",
"34 36 OFFCURVE",
"49 29 CURVE",
"25 -11 OFFCURVE",
"-46 -144 OFFCURVE",
"-54 -243 CURVE SMOOTH",
"-55 -267 OFFCURVE",
"-49 -282 OFFCURVE",
"-38 -282 CURVE SMOOTH",
"-33 -282 OFFCURVE",
"-31 -280 OFFCURVE",
"-31 -276 CURVE SMOOTH",
"-31 -275 OFFCURVE",
"-40 -270 OFFCURVE",
"-40 -254 CURVE SMOOTH",
"-40 -211 OFFCURVE",
"32 -33 OFFCURVE",
"64 23 CURVE",
"86 15 OFFCURVE",
"125 4 OFFCURVE",
"148 4 CURVE SMOOTH",
"189 4 OFFCURVE",
"244 43 OFFCURVE",
"244 87 CURVE"
);
},
{
closed = 1;
nodes = (
"152 203 OFFCURVE",
"140 182 OFFCURVE",
"127 161 CURVE",
"136 188 OFFCURVE",
"144 216 OFFCURVE",
"151 247 CURVE",
"156 241 OFFCURVE",
"162 233 OFFCURVE",
"167 223 CURVE"
);
},
{
closed = 1;
nodes = (
"180 82 OFFCURVE",
"147 80 OFFCURVE",
"112 80 CURVE SMOOTH",
"98 80 LINE",
"178 201 LINE",
"194 169 OFFCURVE",
"210 125 OFFCURVE",
"213 89 CURVE"
);
},
{
closed = 1;
nodes = (
"213 72 OFFCURVE",
"213 68 OFFCURVE",
"212 61 CURVE SMOOTH",
"207 29 OFFCURVE",
"163 15 OFFCURVE",
"135 15 CURVE SMOOTH",
"112 15 OFFCURVE",
"90 23 OFFCURVE",
"70 34 CURVE",
"90 67 LINE",
"131 68 OFFCURVE",
"173 70 OFFCURVE",
"213 79 CURVE"
);
},
{
closed = 1;
nodes = (
"56 42 LINE",
"52 45 OFFCURVE",
"45 50 OFFCURVE",
"45 55 CURVE SMOOTH",
"45 63 OFFCURVE",
"64 65 OFFCURVE",
"69 66 CURVE"
);
}
);
width = 259;
}
);
note = p;
unicode = 0070;
},
{
glyphname = q;
layers = (
{
hints = (
{
horizontal = 1;
place = "{239, -20}";
target = down;
type = TopGhost;
},
{
place = "{10, 197}";
type = Stem;
},
{
place = "{10, 32}";
type = Stem;
}
);
layerId = "E4C06A0B-08E3-4931-8B17-6F9B46D87BCD";
paths = (
{
closed = 1;
nodes = (
"167 192 LINE",
"174 191 OFFCURVE",
"186 180 OFFCURVE",
"190 176 CURVE SMOOTH",
"192 174 OFFCURVE",
"193 172 OFFCURVE",
"193 170 CURVE SMOOTH",
"193 159 OFFCURVE",
"184 143 OFFCURVE",
"177 134 CURVE",
"173 150 OFFCURVE",
"167 170 OFFCURVE",
"167 187 CURVE SMOOTH"
);
},
{
closed = 1;
nodes = (
"183 119 OFFCURVE",
"183 120 OFFCURVE",
"182 120 CURVE",
"182 123 LINE",
"190 138 OFFCURVE",
"207 166 OFFCURVE",
"207 183 CURVE SMOOTH",
"207 186 OFFCURVE",
"206 189 OFFCURVE",
"203 192 CURVE SMOOTH",
"196 199 OFFCURVE",
"175 206 OFFCURVE",
"166 206 CURVE SMOOTH",
"159 206 OFFCURVE",
"156 202 OFFCURVE",
"156 193 CURVE SMOOTH",
"156 182 OFFCURVE",
"159 174 OFFCURVE",
"162 163 CURVE SMOOTH",
"165 148 OFFCURVE",
"166 135 OFFCURVE",
"169 120 CURVE",
"152 92 OFFCURVE",
"93 2 OFFCURVE",
"59 2 CURVE SMOOTH",
"44 2 OFFCURVE",
"42 15 OFFCURVE",
"42 27 CURVE SMOOTH",
"42 84 OFFCURVE",
"107 203 OFFCURVE",
"167 216 CURVE",
"175 219 OFFCURVE",
"183 218 OFFCURVE",
"191 218 CURVE SMOOTH",
"196 218 OFFCURVE",
"205 219 OFFCURVE",
"208 212 CURVE SMOOTH",
"209 209 OFFCURVE",
"210 206 OFFCURVE",
"213 206 CURVE SMOOTH",
"216 206 OFFCURVE",
"217 209 OFFCURVE",
"217 212 CURVE SMOOTH",
"217 231 OFFCURVE",
"196 239 OFFCURVE",
"180 239 CURVE SMOOTH",
"108 239 OFFCURVE",
"10 90 OFFCURVE",
"10 23 CURVE SMOOTH",
"10 -1 OFFCURVE",
"22 -13 OFFCURVE",
"46 -13 CURVE SMOOTH",
"95 -13 OFFCURVE",
"145 65 OFFCURVE",
"169 102 CURVE",
"174 36 OFFCURVE",
"202 -170 OFFCURVE",
"243 -246 CURVE SMOOTH",
"286 -328 OFFCURVE",
"354 -265 OFFCURVE",
"367 -210 CURVE SMOOTH",
"383 -136 OFFCURVE",
"336 -81 OFFCURVE",
"292 -48 CURVE SMOOTH",
"244 -13 OFFCURVE",
"222 -36 OFFCURVE",
"230 -63 CURVE SMOOTH",
"237 -82 OFFCURVE",
"250 -100 OFFCURVE",
"255 -115 CURVE SMOOTH",
"258 -122 OFFCURVE",
"262 -115 OFFCURVE",
"259 -108 CURVE SMOOTH",
"249 -75 OFFCURVE",
"245 -55 OFFCURVE",
"248 -46 CURVE SMOOTH",
"251 -36 OFFCURVE",
"275 -54 OFFCURVE",
"277 -56 CURVE SMOOTH",
"320 -88 OFFCURVE",
"373 -142 OFFCURVE",
"357 -207 CURVE SMOOTH",
"344 -262 OFFCURVE",
"294 -292 OFFCURVE",
"259 -225 CURVE SMOOTH",
"214 -145 OFFCURVE",
"204 26 OFFCURVE",
"183 118 CURVE SMOOTH"
);
}
);
width = 216;
}
);
note = q;
unicode = 0071;
},
{
glyphname = r;
layers = (
{
hints = (
{
horizontal = 1;
place = "{12, 21}";
target = up;
type = BottomGhost;
},
{
horizontal = 1;
place = "{265, -20}";
target = down;
type = TopGhost;
},
{
place = "{63, 95}";
type = Stem;
}
);
layerId = "E4C06A0B-08E3-4931-8B17-6F9B46D87BCD";
paths = (
{
closed = 1;
nodes = (
"-12 75 OFFCURVE",
"-6 69 OFFCURVE",
"3 80 CURVE SMOOTH",
"50 137 OFFCURVE",
"77 199 OFFCURVE",
"94 247 CURVE",
"98 236 OFFCURVE",
"116 223 OFFCURVE",
"127 218 CURVE SMOOTH",
"147 208 OFFCURVE",
"150 193 OFFCURVE",
"137 174 CURVE SMOOTH",
"100 121 OFFCURVE",
"48 61 OFFCURVE",
"43 -1 CURVE SMOOTH",
"38 -80 OFFCURVE",
"121 -59 OFFCURVE",
"154 -18 CURVE SMOOTH",
"162 -9 OFFCURVE",
"158 -1 OFFCURVE",
"151 -10 CURVE SMOOTH",
"140 -22 OFFCURVE",
"122 -36 OFFCURVE",
"103 -40 CURVE SMOOTH",
"80 -45 OFFCURVE",
"57 -35 OFFCURVE",
"60 -2 CURVE SMOOTH",
"63 34 OFFCURVE",
"90 69 OFFCURVE",
"114 101 CURVE SMOOTH",
"127 116 OFFCURVE",
"182 183 OFFCURVE",
"185 203 CURVE SMOOTH",
"188 231 OFFCURVE",
"137 232 OFFCURVE",
"121 245 CURVE SMOOTH",
"108 254 OFFCURVE",
"103 271 OFFCURVE",
"106 286 CURVE SMOOTH",
"107 299 OFFCURVE",
"87 297 OFFCURVE",
"86 284 CURVE SMOOTH",
"86 229 OFFCURVE",
"26 120 OFFCURVE",
"-3 86 CURVE SMOOTH"
);
}
);
width = 191;
}
);
note = r;
unicode = 0072;
},
{
glyphname = s;
layers = (
{
hints = (
{
horizontal = 1;
place = "{-7, 21}";
target = up;
type = BottomGhost;
},
{
horizontal = 1;
place = "{316, 20}";
type = Stem;
},
{
place = "{26, 234}";
type = Stem;
},
{
place = "{26, 28}";
type = Stem;
},
{
place = "{136, 31}";
type = Stem;
}
);
layerId = "E4C06A0B-08E3-4931-8B17-6F9B46D87BCD";
paths = (
{
closed = 1;
nodes = (
"253 268 OFFCURVE",
"260 289 OFFCURVE",
"260 297 CURVE SMOOTH",
"260 323 OFFCURVE",
"226 336 OFFCURVE",
"204 336 CURVE SMOOTH",
"135 336 OFFCURVE",
"26 250 OFFCURVE",
"26 179 CURVE SMOOTH",
"26 125 OFFCURVE",
"79 93 OFFCURVE",
"120 68 CURVE SMOOTH",
"127 63 OFFCURVE",
"136 51 OFFCURVE",
"136 42 CURVE SMOOTH",
"136 19 OFFCURVE",
"98 9 OFFCURVE",
"81 9 CURVE SMOOTH",
"70 9 OFFCURVE",
"60 9 OFFCURVE",
"49 8 CURVE SMOOTH",
"48 8 OFFCURVE",
"39 9 OFFCURVE",
"39 6 CURVE",
"41 2 LINE SMOOTH",
"42 0 OFFCURVE",
"42 -1 OFFCURVE",
"43 -1 CURVE",
"46 -7 OFFCURVE",
"70 -7 OFFCURVE",
"76 -7 CURVE SMOOTH",
"101 -7 OFFCURVE",
"167 -1 OFFCURVE",
"167 34 CURVE SMOOTH",
"167 73 OFFCURVE",
"54 108 OFFCURVE",
"54 164 CURVE SMOOTH",
"54 237 OFFCURVE",
"160 316 OFFCURVE",
"224 316 CURVE SMOOTH",
"236 316 OFFCURVE",
"242 310 OFFCURVE",
"242 298 CURVE SMOOTH",
"242 291 OFFCURVE",
"240 284 OFFCURVE",
"240 276 CURVE SMOOTH",
"240 273 OFFCURVE",
"240 268 OFFCURVE",
"244 268 CURVE SMOOTH"
);
}
);
width = 243;
}
);
note = s;
unicode = 0073;
},
{
glyphname = t;
layers = (
{
hints = (
{
horizontal = 1;
place = "{-34, 21}";
target = up;
type = BottomGhost;
},
{
horizontal = 1;
place = "{356, -20}";
target = down;
type = TopGhost;
},
{
place = "{20, 24}";
type = Stem;
}
);
layerId = "E4C06A0B-08E3-4931-8B17-6F9B46D87BCD";
paths = (
{
closed = 1;
nodes = (
"200 256 OFFCURVE",
"179 257 OFFCURVE",
"176 257 CURVE SMOOTH",
"164 257 OFFCURVE",
"150 256 OFFCURVE",
"138 253 CURVE SMOOTH",
"123 250 OFFCURVE",
"113 251 OFFCURVE",
"100 248 CURVE",
"116 276 OFFCURVE",
"133 303 OFFCURVE",
"151 329 CURVE SMOOTH",
"155 336 OFFCURVE",
"159 341 OFFCURVE",
"159 348 CURVE SMOOTH",
"159 353 OFFCURVE",
"156 356 OFFCURVE",
"150 356 CURVE SMOOTH",
"139 356 OFFCURVE",
"131 352 OFFCURVE",
"126 343 CURVE SMOOTH",
"106 312 OFFCURVE",
"90 277 OFFCURVE",
"75 244 CURVE",
"47 239 OFFCURVE",
"20 237 OFFCURVE",
"20 201 CURVE SMOOTH",
"20 197 OFFCURVE",
"21 194 OFFCURVE",
"21 190 CURVE SMOOTH",
"24 166 OFFCURVE",
"25 142 OFFCURVE",
"26 119 CURVE SMOOTH",
"27 108 OFFCURVE",
"29 97 OFFCURVE",
"29 86 CURVE SMOOTH",
"29 75 OFFCURVE",
"26 62 OFFCURVE",
"26 49 CURVE SMOOTH",
"26 21 OFFCURVE",
"31 -5 OFFCURVE",
"50 -28 CURVE SMOOTH",
"54 -32 OFFCURVE",
"58 -34 OFFCURVE",
"61 -34 CURVE SMOOTH",
"66 -34 OFFCURVE",
"72 -32 OFFCURVE",
"72 -25 CURVE SMOOTH",
"72 -24 OFFCURVE",
"71 -23 OFFCURVE",
"71 -22 CURVE",
"48 13 OFFCURVE",
"44 50 OFFCURVE",
"44 90 CURVE SMOOTH",
"44 97 OFFCURVE",
"43 101 OFFCURVE",
"44 108 CURVE SMOOTH",
"47 138 OFFCURVE",
"77 200 OFFCURVE",
"90 229 CURVE",
"123 237 OFFCURVE",
"156 242 OFFCURVE",
"189 246 CURVE",
"192 247 OFFCURVE",
"200 247 OFFCURVE",
"200 251 CURVE SMOOTH"
);
},
{
closed = 1;
nodes = (
"56 193 OFFCURVE",
"45 164 OFFCURVE",
"38 135 CURVE",
"37 151 OFFCURVE",
"35 166 OFFCURVE",
"35 182 CURVE SMOOTH",
"35 189 OFFCURVE",
"34 194 OFFCURVE",
"37 199 CURVE",
"42 223 OFFCURVE",
"47 219 OFFCURVE",
"67 222 CURVE"
);
}
);
width = 140;
}
);
note = t;
unicode = 0074;
},
{
glyphname = u;
layers = (
{
hints = (
{
horizontal = 1;
place = "{-14, 21}";
target = up;
type = BottomGhost;
},
{
place = "{122, 30}";
type = Stem;
},
{
horizontal = 1;
place = "{2, 233}";
type = Stem;
}
);
layerId = "E4C06A0B-08E3-4931-8B17-6F9B46D87BCD";
paths = (
{
closed = 1;
nodes = (
"184 11 OFFCURVE",
"220 70 OFFCURVE",
"234 86 CURVE SMOOTH",
"248 103 OFFCURVE",
"236 103 OFFCURVE",
"229 93 CURVE SMOOTH",
"221 81 OFFCURVE",
"178 28 OFFCURVE",
"163 28 CURVE SMOOTH",
"158 28 OFFCURVE",
"155 30 OFFCURVE",
"155 43 CURVE SMOOTH",
"155 78 OFFCURVE",
"173 109 OFFCURVE",
"187 142 CURVE SMOOTH",
"189 146 OFFCURVE",
"194 157 OFFCURVE",
"194 160 CURVE SMOOTH",
"194 174 OFFCURVE",
"166 177 OFFCURVE",
"161 162 CURVE SMOOTH",
"147 119 OFFCURVE",
"80 42 OFFCURVE",
"48 20 CURVE SMOOTH",
"34 11 OFFCURVE",
"27 17 OFFCURVE",
"34 31 CURVE SMOOTH",
"53 66 OFFCURVE",
"112 166 OFFCURVE",
"112 204 CURVE SMOOTH",
"112 221 OFFCURVE",
"104 235 OFFCURVE",
"85 235 CURVE SMOOTH",
"74 235 OFFCURVE",
"40 221 OFFCURVE",
"40 210 CURVE SMOOTH",
"40 209 OFFCURVE",
"41 208 OFFCURVE",
"43 208 CURVE SMOOTH",
"48 208 OFFCURVE",
"63 222 OFFCURVE",
"71 222 CURVE SMOOTH",
"78 222 OFFCURVE",
"78 213 OFFCURVE",
"78 208 CURVE SMOOTH",
"78 175 OFFCURVE",
"62 132 OFFCURVE",
"49 105 CURVE SMOOTH",
"17 34 LINE SMOOTH",
"7 12 OFFCURVE",
"9 -5 OFFCURVE",
"37 3 CURVE SMOOTH",
"68 12 OFFCURVE",
"116 77 OFFCURVE",
"140 101 CURVE",
"134 88 OFFCURVE",
"125 64 OFFCURVE",
"125 47 CURVE SMOOTH",
"125 27 OFFCURVE",
"137 11 OFFCURVE",
"158 11 CURVE SMOOTH"
);
}
);
width = 226;
}
);
note = u;
unicode = 0075;
},
{
glyphname = v;
layers = (
{
hints = (
{
horizontal = 1;
place = "{-32, 21}";
target = up;
type = BottomGhost;
},
{
horizontal = 1;
place = "{255, -20}";
target = down;
type = TopGhost;
}
);
layerId = "E4C06A0B-08E3-4931-8B17-6F9B46D87BCD";
paths = (
{
closed = 1;
nodes = (
"226 260 OFFCURVE",
"202 256 OFFCURVE",
"198 241 CURVE SMOOTH",
"178 166 OFFCURVE",
"107 69 OFFCURVE",
"91 40 CURVE",
"84 85 OFFCURVE",
"74 130 OFFCURVE",
"63 175 CURVE SMOOTH",
"58 198 OFFCURVE",
"52 224 OFFCURVE",
"44 244 CURVE SMOOTH",
"41 251 OFFCURVE",
"37 255 OFFCURVE",
"32 255 CURVE SMOOTH",
"20 255 OFFCURVE",
"11 239 OFFCURVE",
"11 228 CURVE SMOOTH",
"11 224 OFFCURVE",
"12 220 OFFCURVE",
"14 216 CURVE",
"30 169 OFFCURVE",
"46 122 OFFCURVE",
"61 75 CURVE SMOOTH",
"68 52 OFFCURVE",
"76 28 OFFCURVE",
"79 4 CURVE",
"76 -1 OFFCURVE",
"74 -10 OFFCURVE",
"74 -15 CURVE SMOOTH",
"74 -22 OFFCURVE",
"77 -32 OFFCURVE",
"85 -32 CURVE SMOOTH",
"96 -32 OFFCURVE",
"96 -13 OFFCURVE",
"96 -6 CURVE SMOOTH",
"96 8 OFFCURVE",
"93 19 OFFCURVE",
"100 30 CURVE",
"123 82 OFFCURVE",
"202 154 OFFCURVE",
"224 241 CURVE"
);
}
);
width = 213;
}
);
note = v;
unicode = 0076;
},
{
glyphname = w;
layers = (
{
hints = (
{
horizontal = 1;
place = "{5, 216}";
type = Stem;
},
{
horizontal = 1;
place = "{294, -20}";
target = down;
type = TopGhost;
},
{
place = "{331, 22}";
type = Stem;
},
{
horizontal = 1;
place = "{-13, 34}";
type = Stem;
}
);
layerId = "E4C06A0B-08E3-4931-8B17-6F9B46D87BCD";
paths = (
{
closed = 1;
nodes = (
"326 5 OFFCURVE",
"350 74 OFFCURVE",
"353 114 CURVE SMOOTH",
"353 128 LINE SMOOTH",
"353 161 OFFCURVE",
"344 221 OFFCURVE",
"300 221 CURVE SMOOTH",
"289 221 OFFCURVE",
"256 210 OFFCURVE",
"256 198 CURVE SMOOTH",
"256 197 OFFCURVE",
"256 196 OFFCURVE",
"257 196 CURVE SMOOTH",
"260 196 OFFCURVE",
"268 202 OFFCURVE",
"279 202 CURVE SMOOTH",
"315 202 OFFCURVE",
"331 141 OFFCURVE",
"331 113 CURVE SMOOTH",
"331 86 OFFCURVE",
"320 21 OFFCURVE",
"285 21 CURVE SMOOTH",
"258 21 OFFCURVE",
"240 60 OFFCURVE",
"232 79 CURVE SMOOTH",
"224 95 OFFCURVE",
"205 158 OFFCURVE",
"200 166 CURVE SMOOTH",
"196 171 OFFCURVE",
"189 178 OFFCURVE",
"182 178 CURVE SMOOTH",
"175 178 OFFCURVE",
"174 173 OFFCURVE",
"173 168 CURVE SMOOTH",
"169 146 LINE",
"156 109 OFFCURVE",
"114 37 OFFCURVE",
"81 18 CURVE",
"74 15 OFFCURVE",
"67 11 OFFCURVE",
"60 11 CURVE SMOOTH",
"49 11 OFFCURVE",
"46 21 OFFCURVE",
"46 30 CURVE SMOOTH",
"46 39 OFFCURVE",
"48 49 OFFCURVE",
"51 60 CURVE SMOOTH",
"68 124 OFFCURVE",
"88 183 OFFCURVE",
"105 247 CURVE SMOOTH",
"107 254 OFFCURVE",
"108 260 OFFCURVE",
"108 267 CURVE SMOOTH",
"108 280 OFFCURVE",
"103 294 OFFCURVE",
"88 294 CURVE SMOOTH",
"72 294 OFFCURVE",
"57 276 OFFCURVE",
"50 263 CURVE",
"50 261 OFFCURVE",
"52 260 OFFCURVE",
"55 260 CURVE SMOOTH",
"64 260 OFFCURVE",
"70 276 OFFCURVE",
"79 276 CURVE SMOOTH",
"83 276 OFFCURVE",
"83 271 OFFCURVE",
"83 268 CURVE SMOOTH",
"83 249 OFFCURVE",
"70 218 OFFCURVE",
"65 198 CURVE SMOOTH",
"49 144 OFFCURVE",
"12 71 OFFCURVE",
"12 14 CURVE SMOOTH",
"12 3 OFFCURVE",
"13 -13 OFFCURVE",
"28 -13 CURVE SMOOTH",
"98 -13 OFFCURVE",
"158 70 OFFCURVE",
"179 129 CURVE",
"182 105 OFFCURVE",
"201 71 OFFCURVE",
"213 51 CURVE SMOOTH",
"228 30 OFFCURVE",
"249 5 OFFCURVE",
"277 5 CURVE SMOOTH"
);
}
);
width = 378;
}
);
note = w;
unicode = 0077;
},
{
glyphname = x;
layers = (
{
hints = (
{
horizontal = 1;
place = "{-142, 21}";
target = up;
type = BottomGhost;
},
{
horizontal = 1;
place = "{-26, 21}";
type = Stem;
},
{
horizontal = 1;
place = "{269, -20}";
target = down;
type = TopGhost;
},
{
place = "{33, 189}";
type = Stem;
}
);
layerId = "E4C06A0B-08E3-4931-8B17-6F9B46D87BCD";
paths = (
{
closed = 1;
nodes = (
"133 148 OFFCURVE",
"156 175 OFFCURVE",
"181 199 CURVE SMOOTH",
"193 210 OFFCURVE",
"205 220 OFFCURVE",
"216 232 CURVE SMOOTH",
"220 236 OFFCURVE",
"222 241 OFFCURVE",
"222 246 CURVE SMOOTH",
"222 254 OFFCURVE",
"216 269 OFFCURVE",
"207 269 CURVE SMOOTH",
"188 269 OFFCURVE",
"114 160 OFFCURVE",
"101 141 CURVE",
"98 149 OFFCURVE",
"97 156 OFFCURVE",
"94 164 CURVE",
"90 184 OFFCURVE",
"85 204 OFFCURVE",
"79 224 CURVE SMOOTH",
"76 232 OFFCURVE",
"76 241 OFFCURVE",
"73 248 CURVE SMOOTH",
"70 256 OFFCURVE",
"64 260 OFFCURVE",
"57 260 CURVE SMOOTH",
"44 260 OFFCURVE",
"33 251 OFFCURVE",
"33 238 CURVE SMOOTH",
"33 222 OFFCURVE",
"74 130 OFFCURVE",
"82 111 CURVE",
"50 58 OFFCURVE",
"-45 -76 OFFCURVE",
"-45 -132 CURVE SMOOTH",
"-45 -135 OFFCURVE",
"-44 -142 OFFCURVE",
"-40 -142 CURVE SMOOTH",
"-33 -142 OFFCURVE",
"-32 -133 OFFCURVE",
"-31 -129 CURVE SMOOTH",
"-18 -60 OFFCURVE",
"52 30 OFFCURVE",
"91 91 CURVE",
"107 56 OFFCURVE",
"152 -26 OFFCURVE",
"195 -26 CURVE SMOOTH",
"218 -26 OFFCURVE",
"222 0 OFFCURVE",
"222 19 CURVE SMOOTH",
"222 31 OFFCURVE",
"214 106 OFFCURVE",
"204 106 CURVE SMOOTH",
"201 106 OFFCURVE",
"201 99 OFFCURVE",
"201 98 CURVE SMOOTH",
"201 93 OFFCURVE",
"201 89 OFFCURVE",
"202 86 CURVE SMOOTH",
"204 75 OFFCURVE",
"205 63 OFFCURVE",
"205 51 CURVE SMOOTH",
"205 39 OFFCURVE",
"204 -5 OFFCURVE",
"187 -5 CURVE SMOOTH",
"176 -5 OFFCURVE",
"166 11 OFFCURVE",
"159 18 CURVE",
"136 49 OFFCURVE",
"120 81 OFFCURVE",
"112 120 CURVE"
);
}
);
width = 225;
}
);
note = x;
unicode = 0078;
},
{
glyphname = y;
layers = (
{
hints = (
{
horizontal = 1;
place = "{-170, 21}";
target = up;
type = BottomGhost;
},
{
horizontal = 1;
place = "{235, -20}";
target = down;
type = TopGhost;
},
{
place = "{173, 25}";
type = Stem;
},
{
place = "{-4, 202}";
type = Stem;
}
);
layerId = "E4C06A0B-08E3-4931-8B17-6F9B46D87BCD";
paths = (
{
closed = 1;
nodes = (
"230 24 OFFCURVE",
"202 34 OFFCURVE",
"194 34 CURVE",
"188 67 OFFCURVE",
"177 98 OFFCURVE",
"162 129 CURVE",
"170 140 OFFCURVE",
"192 168 OFFCURVE",
"192 180 CURVE SMOOTH",
"192 184 OFFCURVE",
"190 186 OFFCURVE",
"185 186 CURVE SMOOTH",
"176 186 OFFCURVE",
"138 168 OFFCURVE",
"138 157 CURVE SMOOTH",
"138 150 OFFCURVE",
"147 135 OFFCURVE",
"150 128 CURVE",
"129 96 OFFCURVE",
"103 68 OFFCURVE",
"73 43 CURVE SMOOTH",
"68 38 OFFCURVE",
"43 21 OFFCURVE",
"35 21 CURVE SMOOTH",
"33 21 OFFCURVE",
"32 22 OFFCURVE",
"32 24 CURVE SMOOTH",
"32 36 OFFCURVE",
"112 159 OFFCURVE",
"112 204 CURVE SMOOTH",
"112 221 OFFCURVE",
"104 235 OFFCURVE",
"85 235 CURVE SMOOTH",
"74 235 OFFCURVE",
"40 221 OFFCURVE",
"40 210 CURVE SMOOTH",
"40 209 OFFCURVE",
"41 208 OFFCURVE",
"43 208 CURVE SMOOTH",
"48 208 OFFCURVE",
"63 222 OFFCURVE",
"71 222 CURVE SMOOTH",
"78 222 OFFCURVE",
"78 213 OFFCURVE",
"78 208 CURVE SMOOTH",
"78 183 OFFCURVE",
"62 150 OFFCURVE",
"53 126 CURVE SMOOTH",
"41 95 OFFCURVE",
"28 65 OFFCURVE",
"17 34 CURVE SMOOTH",
"14 26 OFFCURVE",
"12 19 OFFCURVE",
"12 12 CURVE SMOOTH",
"12 4 OFFCURVE",
"15 0 OFFCURVE",
"22 0 CURVE SMOOTH",
"39 0 OFFCURVE",
"69 23 OFFCURVE",
"82 34 CURVE SMOOTH",
"109 59 OFFCURVE",
"133 87 OFFCURVE",
"154 118 CURVE",
"165 90 OFFCURVE",
"172 62 OFFCURVE",
"173 31 CURVE",
"131 20 OFFCURVE",
"82 -19 OFFCURVE",
"49 -47 CURVE SMOOTH",
"26 -65 OFFCURVE",
"-4 -98 OFFCURVE",
"-4 -130 CURVE SMOOTH",
"-4 -158 OFFCURVE",
"20 -170 OFFCURVE",
"45 -170 CURVE SMOOTH",
"78 -170 OFFCURVE",
"115 -151 OFFCURVE",
"142 -132 CURVE SMOOTH",
"182 -101 OFFCURVE",
"198 -61 OFFCURVE",
"198 -10 CURVE SMOOTH",
"198 1 OFFCURVE",
"197 11 OFFCURVE",
"196 22 CURVE",
"215 23 OFFCURVE",
"223 10 OFFCURVE",
"227 10 CURVE SMOOTH",
"229 10 OFFCURVE",
"230 11 OFFCURVE",
"230 14 CURVE SMOOTH"
);
},
{
closed = 1;
nodes = (
"169 162 OFFCURVE",
"164 150 OFFCURVE",
"157 139 CURVE",
"154 146 OFFCURVE",
"152 151 OFFCURVE",
"147 156 CURVE",
"158 163 OFFCURVE",
"165 169 OFFCURVE",
"176 173 CURVE"
);
},
{
closed = 1;
nodes = (
"173 -33 OFFCURVE",
"155 -82 OFFCURVE",
"120 -121 CURVE SMOOTH",
"101 -140 OFFCURVE",
"75 -161 OFFCURVE",
"47 -161 CURVE SMOOTH",
"28 -161 OFFCURVE",
"13 -149 OFFCURVE",
"13 -129 CURVE SMOOTH",
"13 -70 OFFCURVE",
"124 2 OFFCURVE",
"173 18 CURVE"
);
}
);
width = 215;
}
);
note = y;
unicode = 0079;
},
{
glyphname = z;
layers = (
{
hints = (
{
horizontal = 1;
place = "{22, 21}";
target = up;
type = BottomGhost;
},
{
horizontal = 1;
place = "{69, 28}";
type = Stem;
},
{
horizontal = 1;
place = "{243, 26}";
type = Stem;
},
{
horizontal = 1;
place = "{315, -20}";
target = down;
type = TopGhost;
}
);
layerId = "E4C06A0B-08E3-4931-8B17-6F9B46D87BCD";
paths = (
{
closed = 1;
nodes = (
"78 133 OFFCURVE",
"143 179 OFFCURVE",
"217 224 CURVE SMOOTH",
"234 235 OFFCURVE",
"253 244 OFFCURVE",
"270 255 CURVE SMOOTH",
"275 258 OFFCURVE",
"277 263 OFFCURVE",
"277 270 CURVE SMOOTH",
"277 278 OFFCURVE",
"273 295 OFFCURVE",
"262 294 CURVE SMOOTH",
"261 294 LINE",
"260 295 OFFCURVE",
"259 295 OFFCURVE",
"258 295 CURVE SMOOTH",
"254 295 OFFCURVE",
"252 294 OFFCURVE",
"249 291 CURVE",
"224 274 OFFCURVE",
"161 269 OFFCURVE",
"131 269 CURVE SMOOTH",
"119 269 OFFCURVE",
"72 270 OFFCURVE",
"72 286 CURVE SMOOTH",
"72 297 OFFCURVE",
"84 299 OFFCURVE",
"84 310 CURVE SMOOTH",
"84 313 OFFCURVE",
"83 315 OFFCURVE",
"80 315 CURVE SMOOTH",
"78 315 OFFCURVE",
"75 313 OFFCURVE",
"72 310 CURVE SMOOTH",
"61 302 OFFCURVE",
"53 293 OFFCURVE",
"53 278 CURVE SMOOTH",
"53 246 OFFCURVE",
"122 243 OFFCURVE",
"144 243 CURVE SMOOTH",
"163 243 OFFCURVE",
"180 246 OFFCURVE",
"199 250 CURVE",
"130 189 OFFCURVE",
"50 127 OFFCURVE",
"26 33 CURVE",
"25 32 OFFCURVE",
"25 30 OFFCURVE",
"25 29 CURVE SMOOTH",
"25 24 OFFCURVE",
"27 22 OFFCURVE",
"31 22 CURVE SMOOTH",
"38 22 OFFCURVE",
"39 25 OFFCURVE",
"43 28 CURVE SMOOTH",
"50 32 OFFCURVE",
"55 35 OFFCURVE",
"62 38 CURVE SMOOTH",
"93 53 OFFCURVE",
"135 69 OFFCURVE",
"170 69 CURVE SMOOTH",
"182 69 OFFCURVE",
"235 68 OFFCURVE",
"235 49 CURVE SMOOTH",
"235 42 OFFCURVE",
"230 39 OFFCURVE",
"230 35 CURVE SMOOTH",
"230 34 OFFCURVE",
"230 33 OFFCURVE",
"231 33 CURVE SMOOTH",
"244 33 OFFCURVE",
"244 53 OFFCURVE",
"244 61 CURVE SMOOTH",
"244 92 OFFCURVE",
"226 97 OFFCURVE",
"198 97 CURVE SMOOTH",
"157 97 OFFCURVE",
"88 71 OFFCURVE",
"51 47 CURVE"
);
}
);
width = 258;
}
);
note = z;
unicode = 007A;
},
{
glyphname = A;
layers = (
{
hints = (
{
horizontal = 1;
place = "{-141, 21}";
target = up;
type = BottomGhost;
},
{
horizontal = 1;
place = "{559, -20}";
target = down;
type = TopGhost;
}
);
layerId = "E4C06A0B-08E3-4931-8B17-6F9B46D87BCD";
paths = (
{
closed = 1;
nodes = (
"447 429 OFFCURVE",
"463 498 OFFCURVE",
"476 544 CURVE",
"476 551 OFFCURVE",
"458 560 OFFCURVE",
"452 559 CURVE SMOOTH",
"446 559 LINE",
"443 554 OFFCURVE",
"436 531 OFFCURVE",
"431 506 CURVE SMOOTH",
"420 458 OFFCURVE",
"413 391 OFFCURVE",
"413 324 CURVE SMOOTH",
"413 294 OFFCURVE",
"414 265 OFFCURVE",
"417 235 CURVE",
"395 238 OFFCURVE",
"376 238 OFFCURVE",
"366 238 CURVE SMOOTH",
"351 238 OFFCURVE",
"333 238 OFFCURVE",
"316 237 CURVE",
"353 327 OFFCURVE",
"384 423 OFFCURVE",
"404 506 CURVE SMOOTH",
"404 505 LINE",
"405 506 OFFCURVE",
"406 508 OFFCURVE",
"406 511 CURVE",
"404 519 OFFCURVE",
"392 515 OFFCURVE",
"389 505 CURVE SMOOTH",
"367 427 OFFCURVE",
"330 325 OFFCURVE",
"291 235 CURVE",
"144 221 OFFCURVE",
"-57 168 OFFCURVE",
"-57 31 CURVE SMOOTH",
"-57 -30 OFFCURVE",
"-13 -46 OFFCURVE",
"34 -46 CURVE SMOOTH",
"64 -46 OFFCURVE",
"94 -39 OFFCURVE",
"112 -32 CURVE SMOOTH",
"212 10 OFFCURVE",
"270 126 OFFCURVE",
"309 218 CURVE",
"329 220 OFFCURVE",
"347 220 OFFCURVE",
"365 220 CURVE SMOOTH",
"377 219 OFFCURVE",
"398 217 OFFCURVE",
"420 213 CURVE",
"433 111 OFFCURVE",
"468 19 OFFCURVE",
"537 -13 CURVE",
"536 -13 LINE",
"544 -20 OFFCURVE",
"550 -12 OFFCURVE",
"547 -5 CURVE SMOOTH",
"545 3 OFFCURVE",
"545 -1 OFFCURVE",
"545 -1 CURVE",
"532 6 OFFCURVE",
"512 17 OFFCURVE",
"496 45 CURVE SMOOTH",
"467 91 OFFCURVE",
"452 150 OFFCURVE",
"445 209 CURVE",
"466 204 OFFCURVE",
"485 199 OFFCURVE",
"496 192 CURVE",
"503 189 OFFCURVE",
"512 181 OFFCURVE",
"512 171 CURVE SMOOTH",
"512 143 OFFCURVE",
"527 146 OFFCURVE",
"527 171 CURVE SMOOTH",
"527 208 OFFCURVE",
"484 224 OFFCURVE",
"442 232 CURVE",
"440 254 OFFCURVE",
"440 277 OFFCURVE",
"440 299 CURVE SMOOTH",
"440 323 OFFCURVE",
"442 347 OFFCURVE",
"443 369 CURVE SMOOTH"
);
},
{
closed = 1;
nodes = (
"87 -15 OFFCURVE",
"60 -21 OFFCURVE",
"33 -21 CURVE SMOOTH",
"-3 -21 OFFCURVE",
"-37 -8 OFFCURVE",
"-36 32 CURVE SMOOTH",
"-36 154 OFFCURVE",
"143 205 OFFCURVE",
"283 217 CURVE",
"241 125 OFFCURVE",
"192 28 OFFCURVE",
"106 -7 CURVE SMOOTH"
);
}
);
width = 557;
}
);
note = A;
unicode = 0041;
},
{
glyphname = B;
layers = (
{
hints = (
{
horizontal = 1;
place = "{534, -20}";
target = down;
type = TopGhost;
},
{
place = "{516, 41}";
type = Stem;
}
);
layerId = "E4C06A0B-08E3-4931-8B17-6F9B46D87BCD";
paths = (
{
closed = 1;
nodes = (
"210 560 OFFCURVE",
"190 523 OFFCURVE",
"174 480 CURVE",
"128 466 OFFCURVE",
"87 449 OFFCURVE",
"67 432 CURVE SMOOTH",
"46 413 OFFCURVE",
"34 386 OFFCURVE",
"34 360 CURVE SMOOTH",
"34 330 OFFCURVE",
"49 301 OFFCURVE",
"82 281 CURVE SMOOTH",
"93 274 OFFCURVE",
"103 290 OFFCURVE",
"93 297 CURVE SMOOTH",
"66 314 OFFCURVE",
"54 336 OFFCURVE",
"54 356 CURVE SMOOTH",
"54 374 OFFCURVE",
"64 394 OFFCURVE",
"79 409 CURVE",
"96 422 OFFCURVE",
"127 439 OFFCURVE",
"164 453 CURVE",
"140 376 OFFCURVE",
"129 286 OFFCURVE",
"129 200 CURVE SMOOTH",
"129 123 OFFCURVE",
"138 49 OFFCURVE",
"155 -11 CURVE",
"141 -10 OFFCURVE",
"129 -8 OFFCURVE",
"118 -6 CURVE",
"82 6 OFFCURVE",
"53 37 OFFCURVE",
"53 72 CURVE SMOOTH",
"53 87 OFFCURVE",
"57 103 OFFCURVE",
"67 120 CURVE",
"71 133 OFFCURVE",
"54 144 OFFCURVE",
"45 131 CURVE SMOOTH",
"34 114 OFFCURVE",
"31 95 OFFCURVE",
"31 78 CURVE SMOOTH",
"31 30 OFFCURVE",
"69 -10 OFFCURVE",
"123 -25 CURVE",
"134 -27 OFFCURVE",
"146 -29 OFFCURVE",
"161 -30 CURVE",
"166 -45 OFFCURVE",
"172 -59 OFFCURVE",
"178 -72 CURVE SMOOTH",
"185 -84 OFFCURVE",
"202 -89 OFFCURVE",
"193 -62 CURVE SMOOTH",
"189 -52 OFFCURVE",
"186 -41 OFFCURVE",
"183 -31 CURVE",
"187 -31 LINE SMOOTH",
"260 -31 OFFCURVE",
"360 -14 OFFCURVE",
"429 18 CURVE SMOOTH",
"508 56 OFFCURVE",
"546 106 OFFCURVE",
"546 149 CURVE SMOOTH",
"546 217 OFFCURVE",
"470 278 OFFCURVE",
"374 291 CURVE",
"439 328 OFFCURVE",
"477 378 OFFCURVE",
"477 423 CURVE SMOOTH",
"477 470 OFFCURVE",
"435 508 OFFCURVE",
"333 508 CURVE SMOOTH",
"298 508 OFFCURVE",
"254 501 OFFCURVE",
"211 491 CURVE",
"224 518 OFFCURVE",
"239 543 OFFCURVE",
"256 567 CURVE",
"273 585 OFFCURVE",
"310 613 OFFCURVE",
"338 613 CURVE SMOOTH",
"353 613 OFFCURVE",
"366 606 OFFCURVE",
"373 590 CURVE SMOOTH",
"379 576 OFFCURVE",
"392 582 OFFCURVE",
"385 598 CURVE SMOOTH",
"369 629 OFFCURVE",
"348 641 OFFCURVE",
"328 641 CURVE SMOOTH",
"292 641 OFFCURVE",
"254 614 OFFCURVE",
"235 590 CURVE SMOOTH"
);
},
{
closed = 1;
nodes = (
"327 -3 OFFCURVE",
"255 -14 OFFCURVE",
"198 -14 CURVE SMOOTH",
"191 -14 OFFCURVE",
"185 -14 OFFCURVE",
"178 -13 CURVE",
"161 53 OFFCURVE",
"151 127 OFFCURVE",
"151 202 CURVE SMOOTH",
"151 292 OFFCURVE",
"166 385 OFFCURVE",
"200 466 CURVE",
"239 479 OFFCURVE",
"282 488 OFFCURVE",
"319 490 CURVE SMOOTH",
"408 493 OFFCURVE",
"444 463 OFFCURVE",
"444 424 CURVE SMOOTH",
"444 382 OFFCURVE",
"401 328 OFFCURVE",
"343 293 CURVE",
"312 294 OFFCURVE",
"270 292 OFFCURVE",
"236 284 CURVE",
"224 279 OFFCURVE",
"199 273 OFFCURVE",
"202 256 CURVE",
"204 252 OFFCURVE",
"214 246 OFFCURVE",
"279 256 CURVE",
"297 261 LINE SMOOTH",
"312 264 OFFCURVE",
"328 269 OFFCURVE",
"340 275 CURVE",
"428 271 OFFCURVE",
"507 212 OFFCURVE",
"507 148 CURVE SMOOTH",
"507 106 OFFCURVE",
"474 60 OFFCURVE",
"390 24 CURVE SMOOTH"
);
}
);
width = 557;
}
);
note = B;
unicode = 0042;
},
{
glyphname = C;
layers = (
{
hints = (
{
horizontal = 1;
place = "{-38, 22}";
type = Stem;
},
{
place = "{18, 44}";
type = Stem;
}
);
layerId = "E4C06A0B-08E3-4931-8B17-6F9B46D87BCD";
paths = (
{
closed = 1;
nodes = (
"92 -3 OFFCURVE",
"212 -38 OFFCURVE",
"309 -38 CURVE SMOOTH",
"401 -38 OFFCURVE",
"514 -2 OFFCURVE",
"584 53 CURVE SMOOTH",
"593 61 OFFCURVE",
"585 78 OFFCURVE",
"569 66 CURVE SMOOTH",
"507 14 OFFCURVE",
"404 -16 OFFCURVE",
"321 -16 CURVE SMOOTH",
"238 -16 OFFCURVE",
"122 22 OFFCURVE",
"97 130 CURVE SMOOTH",
"92 148 OFFCURVE",
"91 167 OFFCURVE",
"91 184 CURVE SMOOTH",
"91 354 OFFCURVE",
"274 507 OFFCURVE",
"442 507 CURVE SMOOTH",
"469 507 OFFCURVE",
"496 503 OFFCURVE",
"521 494 CURVE",
"522 494 OFFCURVE",
"523 493 OFFCURVE",
"524 493 CURVE",
"536 487 LINE",
"518 450 OFFCURVE",
"508 405 OFFCURVE",
"507 363 CURVE",
"509 361 OFFCURVE",
"515 359 OFFCURVE",
"515 361 CURVE SMOOTH",
"514 393 OFFCURVE",
"534 425 OFFCURVE",
"551 454 CURVE SMOOTH",
"560 468 OFFCURVE",
"570 485 OFFCURVE",
"578 505 CURVE SMOOTH",
"582 517 OFFCURVE",
"554 522 OFFCURVE",
"549 511 CURVE SMOOTH",
"547 508 LINE",
"544 503 LINE",
"537 506 OFFCURVE",
"531 508 OFFCURVE",
"526 509 CURVE SMOOTH",
"500 515 OFFCURVE",
"477 520 OFFCURVE",
"451 520 CURVE SMOOTH",
"261 520 OFFCURVE",
"55 373 OFFCURVE",
"55 184 CURVE SMOOTH",
"55 164 OFFCURVE",
"57 145 OFFCURVE",
"62 125 CURVE SMOOTH"
);
}
);
width = 596;
}
);
note = C;
unicode = 0043;
},
{
glyphname = D;
layers = (
{
hints = (
{
horizontal = 1;
place = "{-54, 21}";
target = up;
type = BottomGhost;
},
{
place = "{1, 23}";
type = Stem;
},
{
place = "{476, 40}";
type = Stem;
}
);
layerId = "E4C06A0B-08E3-4931-8B17-6F9B46D87BCD";
paths = (
{
closed = 1;
nodes = (
"190 566 OFFCURVE",
"173 537 OFFCURVE",
"159 504 CURVE",
"125 490 OFFCURVE",
"94 473 OFFCURVE",
"69 453 CURVE SMOOTH",
"60 445 OFFCURVE",
"68 428 OFFCURVE",
"84 440 CURVE SMOOTH",
"102 455 OFFCURVE",
"125 469 OFFCURVE",
"150 481 CURVE",
"119 398 OFFCURVE",
"105 297 OFFCURVE",
"105 200 CURVE SMOOTH",
"105 132 OFFCURVE",
"112 66 OFFCURVE",
"126 10 CURVE",
"123 10 LINE SMOOTH",
"74 17 OFFCURVE",
"15 70 OFFCURVE",
"33 129 CURVE SMOOTH",
"36 141 OFFCURVE",
"18 146 OFFCURVE",
"14 135 CURVE",
"-2 63 OFFCURVE",
"57 8 OFFCURVE",
"117 -3 CURVE SMOOTH",
"121 -4 OFFCURVE",
"125 -5 OFFCURVE",
"129 -5 CURVE",
"136 -30 OFFCURVE",
"144 -52 OFFCURVE",
"154 -72 CURVE SMOOTH",
"161 -84 OFFCURVE",
"178 -89 OFFCURVE",
"169 -62 CURVE SMOOTH",
"163 -45 OFFCURVE",
"158 -27 OFFCURVE",
"153 -9 CURVE",
"173 -11 OFFCURVE",
"192 -13 OFFCURVE",
"210 -13 CURVE SMOOTH",
"305 -13 OFFCURVE",
"390 21 OFFCURVE",
"459 72 CURVE SMOOTH",
"543 137 OFFCURVE",
"591 235 OFFCURVE",
"591 324 CURVE SMOOTH",
"591 442 OFFCURVE",
"513 544 OFFCURVE",
"344 544 CURVE SMOOTH",
"299 544 OFFCURVE",
"249 535 OFFCURVE",
"202 520 CURVE",
"211 537 OFFCURVE",
"221 552 OFFCURVE",
"232 567 CURVE SMOOTH",
"248 585 OFFCURVE",
"286 613 OFFCURVE",
"315 613 CURVE SMOOTH",
"330 613 OFFCURVE",
"343 606 OFFCURVE",
"348 590 CURVE",
"355 576 OFFCURVE",
"368 582 OFFCURVE",
"361 598 CURVE SMOOTH",
"345 629 OFFCURVE",
"325 641 OFFCURVE",
"304 641 CURVE SMOOTH",
"268 641 OFFCURVE",
"230 614 OFFCURVE",
"210 590 CURVE SMOOTH"
);
},
{
closed = 1;
nodes = (
"483 522 OFFCURVE",
"553 432 OFFCURVE",
"553 327 CURVE SMOOTH",
"553 247 OFFCURVE",
"513 158 OFFCURVE",
"436 90 CURVE SMOOTH",
"383 43 OFFCURVE",
"282 6 OFFCURVE",
"181 6 CURVE SMOOTH",
"170 6 OFFCURVE",
"160 6 OFFCURVE",
"149 7 CURVE",
"135 68 OFFCURVE",
"126 135 OFFCURVE",
"126 202 CURVE SMOOTH",
"126 303 OFFCURVE",
"147 408 OFFCURVE",
"190 497 CURVE",
"237 513 OFFCURVE",
"288 522 OFFCURVE",
"333 522 CURVE SMOOTH"
);
}
);
width = 609;
}
);
note = D;
unicode = 0044;
},
{
glyphname = E;
layers = (
{
hints = (
{
horizontal = 1;
place = "{-59, 21}";
target = up;
type = BottomGhost;
},
{
horizontal = 1;
place = "{309, 37}";
type = Stem;
},
{
horizontal = 1;
place = "{309, 225}";
type = Stem;
},
{
place = "{16, 40}";
type = Stem;
},
{
place = "{339, 36}";
type = Stem;
},
{
place = "{339, 238}";
type = Stem;
}
);
layerId = "E4C06A0B-08E3-4931-8B17-6F9B46D87BCD";
paths = (
{
closed = 1;
nodes = (
"301 315 OFFCURVE",
"192 303 OFFCURVE",
"106 268 CURVE",
"152 401 OFFCURVE",
"302 507 OFFCURVE",
"442 507 CURVE SMOOTH",
"469 507 OFFCURVE",
"496 503 OFFCURVE",
"521 494 CURVE",
"522 494 OFFCURVE",
"523 493 OFFCURVE",
"524 493 CURVE",
"529 491 OFFCURVE",
"537 486 OFFCURVE",
"543 483 CURVE",
"526 447 OFFCURVE",
"517 403 OFFCURVE",
"516 363 CURVE",
"519 361 OFFCURVE",
"524 359 OFFCURVE",
"524 361 CURVE SMOOTH",
"523 393 OFFCURVE",
"543 425 OFFCURVE",
"560 454 CURVE SMOOTH",
"569 468 OFFCURVE",
"580 485 OFFCURVE",
"588 505 CURVE",
"591 517 OFFCURVE",
"562 519 OFFCURVE",
"557 507 CURVE",
"557 508 LINE",
"552 500 LINE",
"546 504 OFFCURVE",
"539 507 OFFCURVE",
"529 511 CURVE SMOOTH",
"505 520 OFFCURVE",
"477 520 OFFCURVE",
"451 520 CURVE SMOOTH",
"283 520 OFFCURVE",
"102 404 OFFCURVE",
"63 247 CURVE",
"41 234 OFFCURVE",
"22 219 OFFCURVE",
"9 202 CURVE SMOOTH",
"-2 185 OFFCURVE",
"14 168 OFFCURVE",
"23 177 CURVE SMOOTH",
"33 187 OFFCURVE",
"44 197 OFFCURVE",
"56 207 CURVE",
"55 199 OFFCURVE",
"55 192 OFFCURVE",
"55 184 CURVE SMOOTH",
"55 164 OFFCURVE",
"57 145 OFFCURVE",
"62 125 CURVE SMOOTH",
"92 -3 OFFCURVE",
"212 -38 OFFCURVE",
"309 -38 CURVE SMOOTH",
"401 -38 OFFCURVE",
"514 -2 OFFCURVE",
"584 53 CURVE SMOOTH",
"593 61 OFFCURVE",
"585 78 OFFCURVE",
"569 66 CURVE SMOOTH",
"507 14 OFFCURVE",
"404 -16 OFFCURVE",
"321 -16 CURVE SMOOTH",
"238 -16 OFFCURVE",
"122 22 OFFCURVE",
"97 130 CURVE SMOOTH",
"92 148 OFFCURVE",
"91 167 OFFCURVE",
"91 184 CURVE SMOOTH",
"91 200 OFFCURVE",
"92 217 OFFCURVE",
"96 233 CURVE",
"173 276 OFFCURVE",
"273 297 OFFCURVE",
"346 297 CURVE SMOOTH",
"376 297 OFFCURVE",
"463 290 OFFCURVE",
"489 273 CURVE SMOOTH",
"496 268 OFFCURVE",
"505 260 OFFCURVE",
"505 251 CURVE SMOOTH",
"505 222 OFFCURVE",
"520 225 OFFCURVE",
"520 251 CURVE SMOOTH",
"520 315 OFFCURVE",
"384 315 OFFCURVE",
"351 315 CURVE SMOOTH"
);
},
{
closed = 1;
nodes = (
"531 510 OFFCURVE",
"533 509 OFFCURVE",
"535 509 CURVE",
"533 509 OFFCURVE",
"531 510 OFFCURVE",
"530 511 CURVE"
);
}
);
width = 591;
}
);
note = E;
unicode = 0045;
},
{
glyphname = F;
layers = (
{
hints = (
{
horizontal = 1;
place = "{262, 22}";
type = Stem;
},
{
horizontal = 1;
place = "{520, 22}";
type = Stem;
},
{
horizontal = 1;
place = "{613, 28}";
type = Stem;
},
{
place = "{105, 21}";
type = Stem;
},
{
place = "{518, 17}";
type = Stem;
},
{
horizontal = 1;
place = "{256, 24}";
type = Stem;
},
{
place = "{108, 22}";
type = Stem;
}
);
layerId = "E4C06A0B-08E3-4931-8B17-6F9B46D87BCD";
paths = (
{
closed = 1;
nodes = (
"76 251 OFFCURVE",
"91 254 OFFCURVE",
"106 256 CURVE",
"105 237 OFFCURVE",
"105 218 OFFCURVE",
"105 200 CURVE SMOOTH",
"105 95 OFFCURVE",
"122 -6 OFFCURVE",
"154 -72 CURVE SMOOTH",
"161 -84 OFFCURVE",
"178 -89 OFFCURVE",
"169 -62 CURVE SMOOTH",
"143 16 OFFCURVE",
"126 109 OFFCURVE",
"126 202 CURVE SMOOTH",
"126 221 OFFCURVE",
"126 240 OFFCURVE",
"128 259 CURVE",
"149 261 OFFCURVE",
"172 262 OFFCURVE",
"194 262 CURVE SMOOTH",
"241 262 OFFCURVE",
"285 256 OFFCURVE",
"304 245 CURVE",
"319 239 OFFCURVE",
"317 255 OFFCURVE",
"302 263 CURVE SMOOTH",
"277 276 OFFCURVE",
"216 284 OFFCURVE",
"156 284 CURVE SMOOTH",
"147 284 OFFCURVE",
"138 284 OFFCURVE",
"130 283 CURVE",
"137 358 OFFCURVE",
"155 433 OFFCURVE",
"188 498 CURVE",
"216 506 OFFCURVE",
"245 511 OFFCURVE",
"274 515 CURVE SMOOTH",
"355 527 OFFCURVE",
"436 517 OFFCURVE",
"488 493 CURVE SMOOTH",
"501 488 OFFCURVE",
"537 463 OFFCURVE",
"505 442 CURVE",
"494 431 OFFCURVE",
"499 427 OFFCURVE",
"516 439 CURVE SMOOTH",
"532 452 OFFCURVE",
"536 465 OFFCURVE",
"535 477 CURVE SMOOTH",
"532 492 OFFCURVE",
"520 507 OFFCURVE",
"509 513 CURVE SMOOTH",
"463 539 OFFCURVE",
"375 549 OFFCURVE",
"287 537 CURVE SMOOTH",
"258 533 OFFCURVE",
"229 527 OFFCURVE",
"200 520 CURVE",
"210 536 OFFCURVE",
"220 552 OFFCURVE",
"232 567 CURVE SMOOTH",
"247 586 OFFCURVE",
"286 613 OFFCURVE",
"315 613 CURVE SMOOTH",
"330 613 OFFCURVE",
"342 606 OFFCURVE",
"348 590 CURVE SMOOTH",
"355 576 OFFCURVE",
"368 582 OFFCURVE",
"361 598 CURVE SMOOTH",
"345 629 OFFCURVE",
"325 641 OFFCURVE",
"304 641 CURVE SMOOTH",
"268 641 OFFCURVE",
"230 614 OFFCURVE",
"210 590 CURVE SMOOTH",
"191 567 OFFCURVE",
"174 539 OFFCURVE",
"161 508 CURVE",
"134 499 OFFCURVE",
"107 489 OFFCURVE",
"83 477 CURVE SMOOTH",
"64 468 OFFCURVE",
"18 439 OFFCURVE",
"5 428 CURVE SMOOTH",
"-2 421 OFFCURVE",
"-8 402 OFFCURVE",
"10 414 CURVE SMOOTH",
"30 429 OFFCURVE",
"80 455 OFFCURVE",
"102 467 CURVE SMOOTH",
"118 474 OFFCURVE",
"135 481 OFFCURVE",
"152 487 CURVE",
"128 426 OFFCURVE",
"114 354 OFFCURVE",
"108 282 CURVE",
"76 278 LINE SMOOTH",
"63 276 OFFCURVE",
"29 267 OFFCURVE",
"21 262 CURVE SMOOTH",
"8 254 OFFCURVE",
"-5 218 OFFCURVE",
"18 231 CURVE SMOOTH",
"25 236 OFFCURVE",
"54 246 OFFCURVE",
"63 248 CURVE SMOOTH"
);
}
);
width = 412;
}
);
note = F;
unicode = 0046;
},
{
glyphname = G;
layers = (
{
hints = (
{
horizontal = 1;
place = "{-38, 22}";
type = Stem;
},
{
horizontal = 1;
place = "{519, -20}";
target = down;
type = TopGhost;
}
);
layerId = "E4C06A0B-08E3-4931-8B17-6F9B46D87BCD";
paths = (
{
closed = 1;
nodes = (
"673 225 OFFCURVE",
"651 243 OFFCURVE",
"639 241 CURVE",
"637 242 OFFCURVE",
"635 243 OFFCURVE",
"632 243 CURVE",
"633 276 OFFCURVE",
"615 278 OFFCURVE",
"605 263 CURVE",
"605 250 LINE",
"569 257 OFFCURVE",
"521 260 OFFCURVE",
"471 260 CURVE SMOOTH",
"404 260 OFFCURVE",
"337 253 OFFCURVE",
"307 237 CURVE SMOOTH",
"292 230 OFFCURVE",
"277 194 OFFCURVE",
"305 207 CURVE SMOOTH",
"347 228 OFFCURVE",
"420 235 OFFCURVE",
"489 235 CURVE SMOOTH",
"532 235 OFFCURVE",
"573 232 OFFCURVE",
"604 228 CURVE",
"590 73 OFFCURVE",
"469 -16 OFFCURVE",
"312 -16 CURVE SMOOTH",
"231 -16 OFFCURVE",
"120 23 OFFCURVE",
"92 125 CURVE SMOOTH",
"89 139 OFFCURVE",
"86 158 OFFCURVE",
"86 172 CURVE SMOOTH",
"86 258 OFFCURVE",
"139 355 OFFCURVE",
"212 421 CURVE SMOOTH",
"261 463 OFFCURVE",
"354 506 OFFCURVE",
"438 506 CURVE SMOOTH",
"463 506 OFFCURVE",
"489 503 OFFCURVE",
"512 494 CURVE",
"513 494 OFFCURVE",
"514 493 OFFCURVE",
"515 493 CURVE",
"520 491 OFFCURVE",
"527 486 OFFCURVE",
"534 484 CURVE",
"517 447 OFFCURVE",
"508 403 OFFCURVE",
"507 363 CURVE",
"509 361 OFFCURVE",
"515 359 OFFCURVE",
"515 361 CURVE SMOOTH",
"514 393 OFFCURVE",
"534 425 OFFCURVE",
"551 454 CURVE SMOOTH",
"560 468 OFFCURVE",
"570 485 OFFCURVE",
"578 505 CURVE SMOOTH",
"582 517 OFFCURVE",
"553 519 OFFCURVE",
"547 507 CURVE",
"547 508 LINE",
"541 498 LINE",
"522 509 OFFCURVE",
"475 520 OFFCURVE",
"424 520 CURVE SMOOTH",
"339 520 OFFCURVE",
"259 488 OFFCURVE",
"191 440 CURVE SMOOTH",
"122 392 OFFCURVE",
"47 292 OFFCURVE",
"47 179 CURVE SMOOTH",
"47 161 OFFCURVE",
"48 144 OFFCURVE",
"53 125 CURVE SMOOTH",
"83 -3 OFFCURVE",
"202 -38 OFFCURVE",
"300 -38 CURVE SMOOTH",
"445 -38 OFFCURVE",
"588 49 OFFCURVE",
"624 198 CURVE SMOOTH",
"627 208 OFFCURVE",
"629 216 OFFCURVE",
"630 224 CURVE",
"638 223 OFFCURVE",
"644 221 OFFCURVE",
"649 220 CURVE"
);
}
);
width = 665;
}
);
note = G;
unicode = 0047;
},
{
glyphname = H;
layers = (
{
hints = (
{
horizontal = 1;
place = "{-22, 28}";
type = Stem;
},
{
place = "{465, 40}";
type = Stem;
}
);
layerId = "E4C06A0B-08E3-4931-8B17-6F9B46D87BCD";
paths = (
{
closed = 1;
nodes = (
"233 -74 OFFCURVE",
"246 -71 OFFCURVE",
"258 -63 CURVE SMOOTH",
"274 -52 OFFCURVE",
"270 -40 OFFCURVE",
"252 -51 CURVE",
"253 -51 LINE",
"245 -55 OFFCURVE",
"238 -56 OFFCURVE",
"231 -56 CURVE SMOOTH",
"162 -56 OFFCURVE",
"136 -1 OFFCURVE",
"136 76 CURVE SMOOTH",
"136 124 OFFCURVE",
"146 182 OFFCURVE",
"162 240 CURVE",
"229 248 OFFCURVE",
"307 252 OFFCURVE",
"377 252 CURVE SMOOTH",
"411 252 OFFCURVE",
"442 251 OFFCURVE",
"470 249 CURVE",
"469 232 OFFCURVE",
"469 216 OFFCURVE",
"469 200 CURVE SMOOTH",
"469 95 OFFCURVE",
"486 -6 OFFCURVE",
"519 -72 CURVE SMOOTH",
"526 -84 OFFCURVE",
"543 -89 OFFCURVE",
"534 -62 CURVE SMOOTH",
"507 16 OFFCURVE",
"491 109 OFFCURVE",
"491 202 CURVE SMOOTH",
"491 217 OFFCURVE",
"491 231 OFFCURVE",
"492 246 CURVE",
"511 244 OFFCURVE",
"527 242 OFFCURVE",
"539 239 CURVE SMOOTH",
"582 230 OFFCURVE",
"551 252 OFFCURVE",
"520 262 CURVE",
"493 266 LINE",
"502 375 OFFCURVE",
"536 483 OFFCURVE",
"597 567 CURVE",
"613 585 OFFCURVE",
"651 613 OFFCURVE",
"680 613 CURVE SMOOTH",
"695 613 OFFCURVE",
"707 606 OFFCURVE",
"714 590 CURVE SMOOTH",
"721 576 OFFCURVE",
"734 582 OFFCURVE",
"727 598 CURVE SMOOTH",
"711 629 OFFCURVE",
"690 641 OFFCURVE",
"668 641 CURVE SMOOTH",
"632 641 OFFCURVE",
"595 614 OFFCURVE",
"575 590 CURVE SMOOTH",
"514 517 OFFCURVE",
"480 394 OFFCURVE",
"471 269 CURVE",
"438 272 OFFCURVE",
"397 273 OFFCURVE",
"353 273 CURVE SMOOTH",
"292 273 OFFCURVE",
"226 270 OFFCURVE",
"168 265 CURVE",
"209 404 OFFCURVE",
"279 539 OFFCURVE",
"312 557 CURVE SMOOTH",
"332 568 OFFCURVE",
"313 575 OFFCURVE",
"301 569 CURVE SMOOTH",
"260 545 OFFCURVE",
"181 405 OFFCURVE",
"136 261 CURVE",
"81 255 OFFCURVE",
"37 247 OFFCURVE",
"18 238 CURVE",
"6 228 OFFCURVE",
"-6 194 OFFCURVE",
"17 207 CURVE SMOOTH",
"37 218 OFFCURVE",
"78 228 OFFCURVE",
"128 235 CURVE",
"111 178 OFFCURVE",
"101 121 OFFCURVE",
"101 72 CURVE SMOOTH",
"101 -13 OFFCURVE",
"132 -74 OFFCURVE",
"221 -74 CURVE SMOOTH"
);
}
);
width = 573;
}
);
note = H;
unicode = 0048;
},
{
glyphname = I;
layers = (
{
hints = (
{
horizontal = 1;
place = "{534, -20}";
target = down;
type = TopGhost;
},
{
place = "{386, 36}";
type = Stem;
}
);
layerId = "E4C06A0B-08E3-4931-8B17-6F9B46D87BCD";
paths = (
{
closed = 1;
nodes = (
"120 501 OFFCURVE",
"174 517 OFFCURVE",
"233 517 CURVE SMOOTH",
"276 517 OFFCURVE",
"317 511 OFFCURVE",
"360 493 CURVE",
"216 373 OFFCURVE",
"117 154 OFFCURVE",
"130 17 CURVE",
"89 9 OFFCURVE",
"41 -2 OFFCURVE",
"13 -14 CURVE SMOOTH",
"-8 -21 OFFCURVE",
"0 -44 OFFCURVE",
"11 -45 CURVE",
"135 -10 LINE",
"137 -15 OFFCURVE",
"138 -22 OFFCURVE",
"139 -26 CURVE SMOOTH",
"141 -35 LINE",
"149 -57 OFFCURVE",
"178 -91 OFFCURVE",
"217 -91 CURVE SMOOTH",
"229 -91 OFFCURVE",
"240 -89 OFFCURVE",
"253 -82 CURVE SMOOTH",
"271 -72 OFFCURVE",
"262 -61 OFFCURVE",
"248 -69 CURVE",
"250 -69 LINE",
"204 -93 OFFCURVE",
"179 -41 OFFCURVE",
"171 -21 CURVE SMOOTH",
"169 -15 OFFCURVE",
"167 -7 OFFCURVE",
"167 -2 CURVE",
"213 9 OFFCURVE",
"261 20 OFFCURVE",
"307 24 CURVE SMOOTH",
"314 25 OFFCURVE",
"313 39 OFFCURVE",
"306 38 CURVE SMOOTH",
"267 36 OFFCURVE",
"215 30 OFFCURVE",
"162 22 CURVE",
"149 159 OFFCURVE",
"241 359 OFFCURVE",
"386 483 CURVE",
"400 476 OFFCURVE",
"415 466 OFFCURVE",
"431 453 CURVE SMOOTH",
"446 443 OFFCURVE",
"442 461 OFFCURVE",
"436 467 CURVE SMOOTH",
"425 476 OFFCURVE",
"414 484 OFFCURVE",
"399 492 CURVE",
"409 503 OFFCURVE",
"427 513 OFFCURVE",
"438 521 CURVE",
"437 521 LINE",
"458 534 LINE SMOOTH",
"478 546 OFFCURVE",
"446 550 OFFCURVE",
"436 544 CURVE SMOOTH",
"413 531 OFFCURVE",
"391 516 OFFCURVE",
"374 505 CURVE",
"328 526 OFFCURVE",
"274 538 OFFCURVE",
"224 538 CURVE SMOOTH",
"156 538 OFFCURVE",
"97 520 OFFCURVE",
"67 486 CURVE",
"60 480 OFFCURVE",
"52 465 OFFCURVE",
"52 448 CURVE SMOOTH",
"52 437 OFFCURVE",
"57 423 OFFCURVE",
"69 413 CURVE",
"76 409 OFFCURVE",
"82 414 OFFCURVE",
"76 420 CURVE",
"53 437 OFFCURVE",
"76 463 OFFCURVE",
"85 470 CURVE SMOOTH"
);
}
);
width = 340;
}
);
note = I;
unicode = 0049;
},
{
glyphname = J;
layers = (
{
hints = (
{
horizontal = 1;
place = "{-52, 29}";
type = Stem;
},
{
place = "{568, 39}";
type = Stem;
}
);
layerId = "E4C06A0B-08E3-4931-8B17-6F9B46D87BCD";
paths = (
{
closed = 1;
nodes = (
"607 516 OFFCURVE",
"528 547 OFFCURVE",
"438 547 CURVE SMOOTH",
"375 547 OFFCURVE",
"305 529 OFFCURVE",
"259 512 CURVE SMOOTH",
"178 480 OFFCURVE",
"39 402 OFFCURVE",
"39 308 CURVE SMOOTH",
"39 296 OFFCURVE",
"41 283 OFFCURVE",
"46 270 CURVE SMOOTH",
"70 212 OFFCURVE",
"140 195 OFFCURVE",
"197 195 CURVE SMOOTH",
"214 195 OFFCURVE",
"230 197 OFFCURVE",
"244 198 CURVE SMOOTH",
"306 206 OFFCURVE",
"363 222 OFFCURVE",
"416 251 CURVE SMOOTH",
"434 260 OFFCURVE",
"431 275 OFFCURVE",
"413 268 CURVE",
"365 243 OFFCURVE",
"294 225 OFFCURVE",
"259 223 CURVE SMOOTH",
"248 222 OFFCURVE",
"236 222 OFFCURVE",
"222 222 CURVE SMOOTH",
"166 222 OFFCURVE",
"87 232 OFFCURVE",
"69 285 CURVE SMOOTH",
"34 383 OFFCURVE",
"200 467 OFFCURVE",
"266 491 CURVE SMOOTH",
"312 508 OFFCURVE",
"377 528 OFFCURVE",
"436 528 CURVE SMOOTH",
"507 528 OFFCURVE",
"568 499 OFFCURVE",
"568 406 CURVE SMOOTH",
"568 327 OFFCURVE",
"520 232 OFFCURVE",
"470 171 CURVE",
"425 170 OFFCURVE",
"366 167 OFFCURVE",
"322 156 CURVE SMOOTH",
"251 140 OFFCURVE",
"155 106 OFFCURVE",
"100 60 CURVE SMOOTH",
"80 45 OFFCURVE",
"54 16 OFFCURVE",
"54 -10 CURVE SMOOTH",
"54 -46 OFFCURVE",
"93 -52 OFFCURVE",
"120 -52 CURVE SMOOTH",
"141 -52 OFFCURVE",
"162 -48 OFFCURVE",
"185 -43 CURVE SMOOTH",
"299 -16 OFFCURVE",
"415 64 OFFCURVE",
"492 153 CURVE",
"507 152 OFFCURVE",
"546 148 OFFCURVE",
"552 135 CURVE SMOOTH",
"555 128 OFFCURVE",
"554 120 OFFCURVE",
"553 113 CURVE",
"568 109 OFFCURVE",
"574 124 OFFCURVE",
"573 136 CURVE SMOOTH",
"570 162 OFFCURVE",
"527 168 OFFCURVE",
"506 170 CURVE",
"559 235 OFFCURVE",
"607 327 OFFCURVE",
"607 414 CURVE SMOOTH"
);
},
{
closed = 1;
nodes = (
"99 -23 OFFCURVE",
"89 -15 OFFCURVE",
"89 -5 CURVE SMOOTH",
"89 9 OFFCURVE",
"107 29 OFFCURVE",
"122 45 CURVE SMOOTH",
"178 101 OFFCURVE",
"252 126 OFFCURVE",
"324 141 CURVE SMOOTH",
"366 151 OFFCURVE",
"411 153 OFFCURVE",
"454 153 CURVE",
"385 72 OFFCURVE",
"291 10 OFFCURVE",
"189 -16 CURVE SMOOTH",
"169 -21 OFFCURVE",
"148 -23 OFFCURVE",
"129 -23 CURVE SMOOTH"
);
}
);
width = 592;
}
);
note = J;
unicode = 004A;
},
{
glyphname = K;
layers = (
{
hints = (
{
horizontal = 1;
place = "{576, -20}";
target = down;
type = TopGhost;
},
{
place = "{411, 35}";
type = Stem;
}
);
layerId = "E4C06A0B-08E3-4931-8B17-6F9B46D87BCD";
paths = (
{
closed = 1;
nodes = (
"209 170 LINE",
"250 102 OFFCURVE",
"337 -13 OFFCURVE",
"415 -38 CURVE SMOOTH",
"428 -43 OFFCURVE",
"440 -41 OFFCURVE",
"453 -38 CURVE",
"498 -22 OFFCURVE",
"501 45 OFFCURVE",
"501 83 CURVE SMOOTH",
"501 92 OFFCURVE",
"493 93 OFFCURVE",
"490 92 CURVE SMOOTH",
"485 91 OFFCURVE",
"483 87 OFFCURVE",
"484 83 CURVE SMOOTH",
"484 79 OFFCURVE",
"483 75 OFFCURVE",
"483 70 CURVE SMOOTH",
"482 38 OFFCURVE",
"480 -8 OFFCURVE",
"448 -20 CURVE SMOOTH",
"442 -22 OFFCURVE",
"434 -22 OFFCURVE",
"427 -20 CURVE SMOOTH",
"359 0 OFFCURVE",
"262 147 OFFCURVE",
"224 209 CURVE",
"222 214 OFFCURVE",
"211 234 OFFCURVE",
"200 248 CURVE",
"326 376 OFFCURVE",
"490 474 OFFCURVE",
"653 507 CURVE SMOOTH",
"670 511 OFFCURVE",
"658 537 OFFCURVE",
"641 537 CURVE",
"477 500 OFFCURVE",
"312 390 OFFCURVE",
"187 260 CURVE",
"185 262 OFFCURVE",
"183 262 OFFCURVE",
"182 262 CURVE SMOOTH",
"174 260 OFFCURVE",
"170 251 OFFCURVE",
"170 242 CURVE",
"138 207 OFFCURVE",
"108 170 OFFCURVE",
"82 133 CURVE",
"98 281 OFFCURVE",
"153 434 OFFCURVE",
"259 532 CURVE SMOOTH",
"275 547 OFFCURVE",
"309 566 OFFCURVE",
"337 566 CURVE SMOOTH",
"355 566 OFFCURVE",
"371 558 OFFCURVE",
"377 536 CURVE SMOOTH",
"382 520 OFFCURVE",
"397 522 OFFCURVE",
"391 543 CURVE SMOOTH",
"379 581 OFFCURVE",
"356 595 OFFCURVE",
"329 595 CURVE SMOOTH",
"297 595 OFFCURVE",
"262 577 OFFCURVE",
"241 560 CURVE SMOOTH",
"124 460 OFFCURVE",
"56 224 OFFCURVE",
"56 45 CURVE SMOOTH",
"56 -3 OFFCURVE",
"61 -47 OFFCURVE",
"71 -84 CURVE SMOOTH",
"75 -97 OFFCURVE",
"92 -101 OFFCURVE",
"87 -76 CURVE SMOOTH",
"82 -39 OFFCURVE",
"78 5 OFFCURVE",
"78 45 CURVE SMOOTH",
"78 62 OFFCURVE",
"78 79 OFFCURVE",
"79 97 CURVE",
"82 100 LINE",
"109 143 OFFCURVE",
"141 184 OFFCURVE",
"177 223 CURVE",
"185 207 OFFCURVE",
"199 184 OFFCURVE",
"206 175 CURVE",
"206 176 LINE",
"207 174 OFFCURVE",
"209 170 OFFCURVE",
"209 171 CURVE"
);
}
);
width = 517;
}
);
note = K;
unicode = 004B;
},
{
glyphname = L;
layers = (
{
hints = (
{
horizontal = 1;
place = "{-84, 21}";
target = up;
type = BottomGhost;
},
{
horizontal = 1;
place = "{530, 25}";
type = Stem;
},
{
place = "{22, 26}";
type = Stem;
},
{
place = "{743, 23}";
type = Stem;
}
);
layerId = "E4C06A0B-08E3-4931-8B17-6F9B46D87BCD";
paths = (
{
closed = 1;
nodes = (
"287 144 OFFCURVE",
"429 240 OFFCURVE",
"519 342 CURVE SMOOTH",
"578 409 OFFCURVE",
"606 471 OFFCURVE",
"606 516 CURVE SMOOTH",
"606 561 OFFCURVE",
"580 586 OFFCURVE",
"531 586 CURVE SMOOTH",
"498 586 OFFCURVE",
"455 575 OFFCURVE",
"404 546 CURVE SMOOTH",
"261 467 OFFCURVE",
"143 268 OFFCURVE",
"87 171 CURVE",
"67 183 OFFCURVE",
"46 207 OFFCURVE",
"46 229 CURVE SMOOTH",
"46 241 OFFCURVE",
"47 260 OFFCURVE",
"36 260 CURVE SMOOTH",
"24 260 OFFCURVE",
"22 232 OFFCURVE",
"22 225 CURVE SMOOTH",
"22 193 OFFCURVE",
"48 162 OFFCURVE",
"77 156 CURVE",
"60 126 OFFCURVE",
"10 14 OFFCURVE",
"2 -32 CURVE",
"-76 -83 OFFCURVE",
"-69 -110 OFFCURVE",
"-44 -110 CURVE SMOOTH",
"-18 -110 OFFCURVE",
"28 -85 OFFCURVE",
"39 -32 CURVE SMOOTH",
"39 -33 LINE",
"90 -3 OFFCURVE",
"204 29 OFFCURVE",
"285 41 CURVE SMOOTH",
"306 45 OFFCURVE",
"339 48 OFFCURVE",
"376 48 CURVE SMOOTH",
"460 48 OFFCURVE",
"558 31 OFFCURVE",
"558 -37 CURVE SMOOTH",
"558 -53 OFFCURVE",
"553 -72 OFFCURVE",
"540 -94 CURVE SMOOTH",
"526 -122 OFFCURVE",
"546 -114 OFFCURVE",
"559 -90 CURVE SMOOTH",
"572 -64 OFFCURVE",
"577 -44 OFFCURVE",
"577 -25 CURVE SMOOTH",
"577 55 OFFCURVE",
"467 75 OFFCURVE",
"374 75 CURVE SMOOTH",
"335 75 OFFCURVE",
"300 71 OFFCURVE",
"276 68 CURVE SMOOTH",
"192 55 OFFCURVE",
"112 30 OFFCURVE",
"40 -7 CURVE",
"46 20 OFFCURVE",
"75 99 OFFCURVE",
"102 151 CURVE",
"116 146 OFFCURVE",
"133 144 OFFCURVE",
"147 144 CURVE SMOOTH"
);
},
{
closed = 1;
nodes = (
"465 551 OFFCURVE",
"503 565 OFFCURVE",
"528 565 CURVE SMOOTH",
"560 565 OFFCURVE",
"575 543 OFFCURVE",
"575 512 CURVE SMOOTH",
"575 474 OFFCURVE",
"544 408 OFFCURVE",
"499 352 CURVE SMOOTH",
"414 255 OFFCURVE",
"271 162 OFFCURVE",
"141 162 CURVE SMOOTH",
"135 162 OFFCURVE",
"118 162 OFFCURVE",
"113 167 CURVE",
"161 248 OFFCURVE",
"289 436 OFFCURVE",
"416 519 CURVE SMOOTH"
);
}
);
width = 598;
}
);
note = L;
unicode = 004C;
},
{
glyphname = M;
layers = (
{
hints = (
{
horizontal = 1;
place = "{-82, 21}";
target = up;
type = BottomGhost;
},
{
horizontal = 1;
place = "{-55, 29}";
type = Stem;
},
{
horizontal = 1;
place = "{-46, 21}";
target = up;
type = BottomGhost;
},
{
horizontal = 1;
place = "{13, 239}";
type = Stem;
},
{
horizontal = 1;
place = "{2, 21}";
target = up;
type = BottomGhost;
},
{
horizontal = 1;
place = "{3, 21}";
target = up;
type = BottomGhost;
},
{
horizontal = 1;
place = "{51, 201}";
type = Stem;
},
{
horizontal = 1;
place = "{292, -20}";
target = down;
type = TopGhost;
},
{
horizontal = 1;
place = "{321, -20}";
target = down;
type = TopGhost;
},
{
place = "{43, 31}";
type = Stem;
},
{
place = "{154, 37}";
type = Stem;
},
{
place = "{282, 34}";
type = Stem;
},
{
place = "{294, 39}";
type = Stem;
},
{
place = "{480, 27}";
type = Stem;
},
{
place = "{480, 46}";
type = Stem;
},
{
place = "{480, 106}";
type = Stem;
}
);
layerId = "E4C06A0B-08E3-4931-8B17-6F9B46D87BCD";
paths = (
{
closed = 1;
nodes = (
"84 561 OFFCURVE",
"46 596 OFFCURVE",
"8 596 CURVE SMOOTH",
"-12 596 OFFCURVE",
"-31 584 OFFCURVE",
"-47 562 CURVE",
"-53 549 OFFCURVE",
"-44 540 OFFCURVE",
"-36 551 CURVE SMOOTH",
"-28 561 OFFCURVE",
"-15 570 OFFCURVE",
"-5 570 CURVE SMOOTH",
"26 570 OFFCURVE",
"63 536 OFFCURVE",
"76 513 CURVE SMOOTH",
"122 431 OFFCURVE",
"141 339 OFFCURVE",
"141 250 CURVE SMOOTH",
"141 197 OFFCURVE",
"135 141 OFFCURVE",
"122 91 CURVE",
"95 45 OFFCURVE",
"71 -2 OFFCURVE",
"53 -43 CURVE SMOOTH",
"43 -66 OFFCURVE",
"62 -115 OFFCURVE",
"84 -77 CURVE SMOOTH",
"109 -32 OFFCURVE",
"125 15 OFFCURVE",
"140 80 CURVE SMOOTH",
"140 79 LINE",
"147 91 OFFCURVE",
"158 113 OFFCURVE",
"171 139 CURVE SMOOTH",
"229 252 OFFCURVE",
"337 468 OFFCURVE",
"428 468 CURVE SMOOTH",
"440 468 OFFCURVE",
"450 462 OFFCURVE",
"450 438 CURVE SMOOTH",
"450 383 OFFCURVE",
"411 300 OFFCURVE",
"373 222 CURVE SMOOTH",
"343 159 OFFCURVE",
"314 98 OFFCURVE",
"309 59 CURVE SMOOTH",
"308 45 OFFCURVE",
"333 28 OFFCURVE",
"343 28 CURVE SMOOTH",
"391 28 OFFCURVE",
"471 117 OFFCURVE",
"527 179 CURVE SMOOTH",
"542 194 OFFCURVE",
"552 207 OFFCURVE",
"562 217 CURVE",
"552 181 OFFCURVE",
"540 130 OFFCURVE",
"540 86 CURVE SMOOTH",
"540 21 OFFCURVE",
"563 -35 OFFCURVE",
"645 -35 CURVE SMOOTH",
"683 -35 OFFCURVE",
"735 1 OFFCURVE",
"735 33 CURVE SMOOTH",
"735 39 OFFCURVE",
"731 41 OFFCURVE",
"729 41 CURVE SMOOTH",
"727 41 OFFCURVE",
"724 37 OFFCURVE",
"721 30 CURVE SMOOTH",
"719 26 OFFCURVE",
"716 22 OFFCURVE",
"712 17 CURVE SMOOTH",
"698 0 OFFCURVE",
"678 -17 OFFCURVE",
"647 -17 CURVE SMOOTH",
"591 -17 OFFCURVE",
"574 25 OFFCURVE",
"574 75 CURVE SMOOTH",
"574 133 OFFCURVE",
"598 202 OFFCURVE",
"612 232 CURVE SMOOTH",
"629 268 OFFCURVE",
"642 296 OFFCURVE",
"642 305 CURVE SMOOTH",
"641 339 OFFCURVE",
"599 301 OFFCURVE",
"590 290 CURVE SMOOTH",
"569 264 LINE SMOOTH",
"506 185 OFFCURVE",
"406 60 OFFCURVE",
"347 60 CURVE SMOOTH",
"329 60 OFFCURVE",
"366 139 OFFCURVE",
"405 223 CURVE SMOOTH",
"439 299 OFFCURVE",
"480 385 OFFCURVE",
"485 427 CURVE SMOOTH",
"492 478 OFFCURVE",
"469 500 OFFCURVE",
"437 500 CURVE SMOOTH",
"420 500 OFFCURVE",
"402 494 OFFCURVE",
"386 484 CURVE",
"388 484 LINE",
"314 440 OFFCURVE",
"198 239 OFFCURVE",
"154 146 CURVE",
"159 184 OFFCURVE",
"162 225 OFFCURVE",
"162 264 CURVE SMOOTH",
"162 366 OFFCURVE",
"144 463 OFFCURVE",
"100 534 CURVE SMOOTH"
);
}
);
width = 749;
}
);
note = M;
unicode = 004D;
},
{
glyphname = N;
layers = (
{
hints = (
{
horizontal = 1;
place = "{-122, 21}";
target = up;
type = BottomGhost;
},
{
horizontal = 1;
place = "{-1, 24}";
type = Stem;
},
{
horizontal = 1;
place = "{615, -20}";
target = down;
type = TopGhost;
},
{
place = "{271, 38}";
type = Stem;
},
{
place = "{352, 23}";
type = Stem;
},
{
place = "{352, 110}";
type = Stem;
}
);
layerId = "E4C06A0B-08E3-4931-8B17-6F9B46D87BCD";
paths = (
{
closed = 1;
nodes = (
"79 553 OFFCURVE",
"68 517 OFFCURVE",
"68 473 CURVE SMOOTH",
"68 421 OFFCURVE",
"83 358 OFFCURVE",
"95 325 CURVE SMOOTH",
"102 307 OFFCURVE",
"113 314 OFFCURVE",
"108 329 CURVE SMOOTH",
"101 352 OFFCURVE",
"87 415 OFFCURVE",
"87 461 CURVE SMOOTH",
"87 493 OFFCURVE",
"94 520 OFFCURVE",
"112 520 CURVE SMOOTH",
"160 520 OFFCURVE",
"212 475 OFFCURVE",
"263 410 CURVE",
"259 259 OFFCURVE",
"191 -38 OFFCURVE",
"68 -38 CURVE SMOOTH",
"53 -38 OFFCURVE",
"38 -33 OFFCURVE",
"22 -25 CURVE",
"17 -24 OFFCURVE",
"14 -20 OFFCURVE",
"8 -12 CURVE",
"8 -13 LINE",
"1 0 OFFCURVE",
"-9 -8 OFFCURVE",
"-2 -21 CURVE SMOOTH",
"5 -32 OFFCURVE",
"13 -40 OFFCURVE",
"24 -45 CURVE SMOOTH",
"46 -56 OFFCURVE",
"66 -62 OFFCURVE",
"84 -62 CURVE SMOOTH",
"221 -62 OFFCURVE",
"280 219 OFFCURVE",
"281 385 CURVE",
"339 305 OFFCURVE",
"395 202 OFFCURVE",
"440 118 CURVE SMOOTH",
"489 30 LINE",
"496 1 OFFCURVE",
"505 -35 OFFCURVE",
"519 -55 CURVE SMOOTH",
"534 -78 OFFCURVE",
"549 -74 OFFCURVE",
"554 -61 CURVE",
"558 -54 OFFCURVE",
"558 -30 OFFCURVE",
"544 3 CURVE SMOOTH",
"537 21 OFFCURVE",
"521 41 OFFCURVE",
"505 57 CURVE",
"505 56 LINE",
"499 77 OFFCURVE",
"497 109 OFFCURVE",
"497 146 CURVE SMOOTH",
"497 292 OFFCURVE",
"544 523 OFFCURVE",
"684 523 CURVE SMOOTH",
"698 523 OFFCURVE",
"715 516 OFFCURVE",
"722 503 CURVE",
"719 515 OFFCURVE",
"722 527 OFFCURVE",
"733 509 CURVE",
"716 542 OFFCURVE",
"695 552 OFFCURVE",
"670 552 CURVE SMOOTH",
"511 552 OFFCURVE",
"478 253 OFFCURVE",
"476 113 CURVE",
"461 136 OFFCURVE",
"447 158 OFFCURVE",
"431 186 CURVE SMOOTH",
"386 263 OFFCURVE",
"334 353 OFFCURVE",
"280 424 CURVE",
"278 458 OFFCURVE",
"272 484 OFFCURVE",
"264 497 CURVE",
"260 507 OFFCURVE",
"247 516 OFFCURVE",
"254 486 CURVE",
"258 478 OFFCURVE",
"261 464 OFFCURVE",
"262 447 CURVE",
"212 509 OFFCURVE",
"160 553 OFFCURVE",
"113 553 CURVE SMOOTH"
);
}
);
width = 582;
}
);
note = N;
unicode = 004E;
},
{
glyphname = O;
layers = (
{
hints = (
{
horizontal = 1;
place = "{-117, 23}";
type = Stem;
},
{
horizontal = 1;
place = "{481, 25}";
type = Stem;
},
{
place = "{25, 35}";
type = Stem;
},
{
place = "{667, 46}";
type = Stem;
}
);
layerId = "E4C06A0B-08E3-4931-8B17-6F9B46D87BCD";
paths = (
{
closed = 1;
nodes = (
"30 36 OFFCURVE",
"110 -23 OFFCURVE",
"216 -23 CURVE SMOOTH",
"256 -23 OFFCURVE",
"296 -15 OFFCURVE",
"332 -1 CURVE SMOOTH",
"474 53 OFFCURVE",
"582 197 OFFCURVE",
"582 353 CURVE SMOOTH",
"582 474 OFFCURVE",
"491 540 OFFCURVE",
"376 540 CURVE SMOOTH",
"282 540 OFFCURVE",
"177 507 OFFCURVE",
"113 435 CURVE",
"36 339 OFFCURVE",
"83 335 OFFCURVE",
"99 367 CURVE SMOOTH",
"149 467 OFFCURVE",
"269 513 OFFCURVE",
"376 513 CURVE SMOOTH",
"454 513 OFFCURVE",
"543 462 OFFCURVE",
"559 383 CURVE SMOOTH",
"560 374 OFFCURVE",
"561 361 OFFCURVE",
"561 352 CURVE SMOOTH",
"561 217 OFFCURVE",
"458 99 OFFCURVE",
"345 47 CURVE SMOOTH",
"306 28 OFFCURVE",
"250 6 OFFCURVE",
"202 6 CURVE SMOOTH",
"101 6 OFFCURVE",
"60 61 OFFCURVE",
"60 131 CURVE SMOOTH",
"60 269 OFFCURVE",
"224 481 OFFCURVE",
"386 481 CURVE SMOOTH",
"389 481 OFFCURVE",
"411 482 OFFCURVE",
"411 489 CURVE SMOOTH",
"411 498 OFFCURVE",
"393 499 OFFCURVE",
"389 499 CURVE SMOOTH",
"207 499 OFFCURVE",
"30 316 OFFCURVE",
"30 144 CURVE SMOOTH"
);
}
);
width = 608;
}
);
note = O;
unicode = 004F;
},
{
glyphname = P;
layers = (
{
hints = (
{
horizontal = 1;
place = "{574, 21}";
type = Stem;
},
{
place = "{898, 45}";
type = Stem;
}
);
layerId = "E4C06A0B-08E3-4931-8B17-6F9B46D87BCD";
paths = (
{
closed = 1;
nodes = (
"336 558 OFFCURVE",
"323 545 OFFCURVE",
"311 531 CURVE",
"148 517 OFFCURVE",
"20 464 OFFCURVE",
"20 384 CURVE SMOOTH",
"20 345 OFFCURVE",
"48 301 OFFCURVE",
"115 253 CURVE SMOOTH",
"131 243 OFFCURVE",
"145 247 OFFCURVE",
"131 258 CURVE SMOOTH",
"74 300 OFFCURVE",
"48 339 OFFCURVE",
"48 374 CURVE SMOOTH",
"48 445 OFFCURVE",
"153 498 OFFCURVE",
"297 513 CURVE",
"209 395 OFFCURVE",
"156 200 OFFCURVE",
"156 54 CURVE SMOOTH",
"156 11 OFFCURVE",
"161 -28 OFFCURVE",
"170 -59 CURVE SMOOTH",
"174 -70 OFFCURVE",
"190 -77 OFFCURVE",
"186 -52 CURVE SMOOTH",
"181 -20 OFFCURVE",
"178 16 OFFCURVE",
"178 53 CURVE SMOOTH",
"178 209 OFFCURVE",
"230 394 OFFCURVE",
"340 516 CURVE",
"352 516 OFFCURVE",
"364 517 OFFCURVE",
"377 517 CURVE SMOOTH",
"396 517 OFFCURVE",
"419 516 OFFCURVE",
"437 515 CURVE SMOOTH",
"551 505 OFFCURVE",
"607 453 OFFCURVE",
"607 398 CURVE SMOOTH",
"606 337 OFFCURVE",
"546 266 OFFCURVE",
"459 240 CURVE SMOOTH",
"424 231 OFFCURVE",
"391 228 OFFCURVE",
"365 228 CURVE SMOOTH",
"338 228 OFFCURVE",
"316 232 OFFCURVE",
"305 236 CURVE",
"286 235 OFFCURVE",
"290 208 OFFCURVE",
"371 208 CURVE SMOOTH",
"552 209 OFFCURVE",
"647 301 OFFCURVE",
"647 397 CURVE SMOOTH",
"647 467 OFFCURVE",
"592 523 OFFCURVE",
"468 531 CURVE SMOOTH",
"444 532 OFFCURVE",
"420 534 OFFCURVE",
"396 534 CURVE SMOOTH",
"382 534 OFFCURVE",
"369 533 OFFCURVE",
"355 533 CURVE",
"366 543 LINE SMOOTH",
"382 558 OFFCURVE",
"416 575 OFFCURVE",
"444 575 CURVE SMOOTH",
"462 575 OFFCURVE",
"480 568 OFFCURVE",
"485 546 CURVE SMOOTH",
"490 530 OFFCURVE",
"505 532 OFFCURVE",
"499 553 CURVE SMOOTH",
"488 591 OFFCURVE",
"463 605 OFFCURVE",
"436 605 CURVE SMOOTH",
"404 605 OFFCURVE",
"369 588 OFFCURVE",
"350 570 CURVE SMOOTH"
);
}
);
width = 649;
}
);
note = P;
unicode = 0050;
},
{
glyphname = Q;
layers = (
{
hints = (
{
horizontal = 1;
place = "{-225, 30}";
type = Stem;
},
{
horizontal = 1;
place = "{-43, 25}";
type = Stem;
},
{
horizontal = 1;
place = "{-43, 156}";
type = Stem;
},
{
horizontal = 1;
place = "{438, 52}";
type = Stem;
},
{
place = "{8, 28}";
type = Stem;
},
{
place = "{477, 35}";
type = Stem;
},
{
place = "{555, 30}";
type = Stem;
}
);
layerId = "E4C06A0B-08E3-4931-8B17-6F9B46D87BCD";
paths = (
{
closed = 1;
nodes = (
"315 -38 OFFCURVE",
"322 -38 OFFCURVE",
"328 -37 CURVE",
"330 -39 LINE",
"330 -40 LINE",
"370 -108 OFFCURVE",
"457 -222 OFFCURVE",
"536 -247 CURVE SMOOTH",
"549 -252 OFFCURVE",
"561 -251 OFFCURVE",
"574 -247 CURVE SMOOTH",
"619 -231 OFFCURVE",
"622 -166 OFFCURVE",
"622 -128 CURVE SMOOTH",
"622 -118 OFFCURVE",
"614 -117 OFFCURVE",
"611 -118 CURVE SMOOTH",
"606 -120 OFFCURVE",
"604 -123 OFFCURVE",
"605 -128 CURVE SMOOTH",
"605 -131 OFFCURVE",
"604 -136 OFFCURVE",
"604 -140 CURVE SMOOTH",
"603 -173 OFFCURVE",
"600 -217 OFFCURVE",
"569 -229 CURVE SMOOTH",
"562 -231 OFFCURVE",
"554 -231 OFFCURVE",
"547 -229 CURVE SMOOTH",
"488 -212 OFFCURVE",
"411 -104 OFFCURVE",
"366 -34 CURVE",
"553 -10 OFFCURVE",
"724 129 OFFCURVE",
"724 320 CURVE SMOOTH",
"724 483 OFFCURVE",
"573 551 OFFCURVE",
"419 551 CURVE SMOOTH",
"328 551 OFFCURVE",
"237 527 OFFCURVE",
"176 486 CURVE SMOOTH",
"114 445 OFFCURVE",
"80 383 OFFCURVE",
"80 321 CURVE SMOOTH",
"80 313 OFFCURVE",
"80 306 OFFCURVE",
"82 299 CURVE",
"64 262 OFFCURVE",
"55 224 OFFCURVE",
"55 184 CURVE SMOOTH",
"55 164 OFFCURVE",
"57 145 OFFCURVE",
"62 125 CURVE SMOOTH",
"95 5 OFFCURVE",
"214 -38 OFFCURVE",
"309 -38 CURVE SMOOTH"
);
},
{
closed = 1;
nodes = (
"168 178 OFFCURVE",
"177 193 OFFCURVE",
"166 201 CURVE SMOOTH",
"137 221 OFFCURVE",
"118 248 OFFCURVE",
"109 278 CURVE",
"161 407 OFFCURVE",
"306 507 OFFCURVE",
"442 507 CURVE SMOOTH",
"514 507 OFFCURVE",
"568 497 OFFCURVE",
"624 454 CURVE SMOOTH",
"647 437 OFFCURVE",
"688 381 OFFCURVE",
"689 324 CURVE SMOOTH",
"699 129 OFFCURVE",
"530 0 OFFCURVE",
"354 -14 CURVE",
"345 0 LINE",
"342 8 OFFCURVE",
"314 56 OFFCURVE",
"302 53 CURVE SMOOTH",
"292 49 OFFCURVE",
"290 36 OFFCURVE",
"293 24 CURVE SMOOTH",
"297 14 OFFCURVE",
"307 -2 OFFCURVE",
"315 -16 CURVE",
"232 -14 OFFCURVE",
"121 24 OFFCURVE",
"97 130 CURVE SMOOTH",
"92 148 OFFCURVE",
"91 167 OFFCURVE",
"91 184 CURVE SMOOTH",
"91 204 OFFCURVE",
"93 225 OFFCURVE",
"99 245 CURVE",
"110 222 OFFCURVE",
"130 200 OFFCURVE",
"155 185 CURVE SMOOTH"
);
},
{
closed = 1;
nodes = (
"253 504 OFFCURVE",
"329 520 OFFCURVE",
"402 520 CURVE SMOOTH",
"411 520 OFFCURVE",
"420 520 OFFCURVE",
"428 519 CURVE",
"302 512 OFFCURVE",
"172 442 OFFCURVE",
"103 338 CURVE",
"108 393 OFFCURVE",
"139 445 OFFCURVE",
"191 471 CURVE SMOOTH"
);
}
);
width = 749;
}
);
note = Q;
unicode = 0051;
},
{
glyphname = R;
layers = (
{
hints = (
{
place = "{486, 42}";
type = Stem;
}
);
layerId = "E4C06A0B-08E3-4931-8B17-6F9B46D87BCD";
paths = (
{
closed = 1;
nodes = (
"296 177 LINE",
"336 109 OFFCURVE",
"422 -6 OFFCURVE",
"501 -31 CURVE SMOOTH",
"514 -36 OFFCURVE",
"527 -35 OFFCURVE",
"539 -31 CURVE SMOOTH",
"584 -15 OFFCURVE",
"588 52 OFFCURVE",
"588 90 CURVE SMOOTH",
"588 99 OFFCURVE",
"580 100 OFFCURVE",
"576 99 CURVE SMOOTH",
"572 98 OFFCURVE",
"569 94 OFFCURVE",
"570 90 CURVE SMOOTH",
"570 86 OFFCURVE",
"569 82 OFFCURVE",
"569 77 CURVE SMOOTH",
"568 45 OFFCURVE",
"566 -1 OFFCURVE",
"535 -13 CURVE SMOOTH",
"528 -15 OFFCURVE",
"520 -15 OFFCURVE",
"513 -13 CURVE SMOOTH",
"444 7 OFFCURVE",
"347 154 OFFCURVE",
"310 216 CURVE SMOOTH",
"308 220 OFFCURVE",
"300 235 OFFCURVE",
"291 248 CURVE",
"298 250 OFFCURVE",
"306 251 OFFCURVE",
"316 253 CURVE SMOOTH",
"416 277 OFFCURVE",
"527 353 OFFCURVE",
"523 447 CURVE SMOOTH",
"521 501 OFFCURVE",
"471 544 OFFCURVE",
"358 544 CURVE SMOOTH",
"336 544 OFFCURVE",
"312 542 OFFCURVE",
"286 538 CURVE",
"297 551 OFFCURVE",
"308 563 OFFCURVE",
"321 575 CURVE SMOOTH",
"337 590 OFFCURVE",
"370 608 OFFCURVE",
"398 608 CURVE SMOOTH",
"416 608 OFFCURVE",
"434 600 OFFCURVE",
"439 578 CURVE",
"444 565 OFFCURVE",
"459 568 OFFCURVE",
"453 585 CURVE SMOOTH",
"442 623 OFFCURVE",
"416 638 OFFCURVE",
"390 638 CURVE SMOOTH",
"358 638 OFFCURVE",
"324 620 OFFCURVE",
"304 601 CURVE SMOOTH",
"281 582 OFFCURVE",
"260 557 OFFCURVE",
"241 529 CURVE",
"163 513 OFFCURVE",
"85 484 OFFCURVE",
"54 455 CURVE SMOOTH",
"30 432 OFFCURVE",
"16 402 OFFCURVE",
"16 371 CURVE SMOOTH",
"16 336 OFFCURVE",
"31 302 OFFCURVE",
"66 279 CURVE SMOOTH",
"82 270 OFFCURVE",
"99 275 OFFCURVE",
"85 285 CURVE SMOOTH",
"53 306 OFFCURVE",
"39 337 OFFCURVE",
"39 367 CURVE SMOOTH",
"39 392 OFFCURVE",
"48 417 OFFCURVE",
"67 435 CURVE SMOOTH",
"95 462 OFFCURVE",
"159 488 OFFCURVE",
"226 506 CURVE",
"158 391 OFFCURVE",
"121 226 OFFCURVE",
"121 92 CURVE SMOOTH",
"121 41 OFFCURVE",
"126 -3 OFFCURVE",
"137 -41 CURVE SMOOTH",
"140 -53 OFFCURVE",
"158 -60 OFFCURVE",
"154 -33 CURVE SMOOTH",
"147 6 OFFCURVE",
"144 49 OFFCURVE",
"144 93 CURVE SMOOTH",
"144 238 OFFCURVE",
"182 400 OFFCURVE",
"269 517 CURVE",
"287 521 OFFCURVE",
"305 524 OFFCURVE",
"323 526 CURVE SMOOTH",
"336 527 OFFCURVE",
"350 528 OFFCURVE",
"360 528 CURVE SMOOTH",
"457 528 OFFCURVE",
"490 483 OFFCURVE",
"486 437 CURVE SMOOTH",
"481 350 OFFCURVE",
"384 287 OFFCURVE",
"314 268 CURVE",
"309 268 OFFCURVE",
"302 269 OFFCURVE",
"299 269 CURVE SMOOTH",
"270 271 OFFCURVE",
"240 273 OFFCURVE",
"229 270 CURVE",
"194 266 OFFCURVE",
"208 238 OFFCURVE",
"243 241 CURVE SMOOTH",
"247 241 OFFCURVE",
"252 242 OFFCURVE",
"258 243 CURVE",
"258 242 OFFCURVE",
"258 241 OFFCURVE",
"259 240 CURVE",
"266 225 OFFCURVE",
"284 193 OFFCURVE",
"292 182 CURVE",
"292 183 LINE",
"293 181 OFFCURVE",
"296 177 OFFCURVE",
"296 178 CURVE"
);
}
);
width = 591;
}
);
note = R;
unicode = 0052;
},
{
glyphname = S;
layers = (
{
hints = (
{
horizontal = 1;
place = "{557, 26}";
type = Stem;
}
);
layerId = "E4C06A0B-08E3-4931-8B17-6F9B46D87BCD";
paths = (
{
closed = 1;
nodes = (
"411 524 OFFCURVE",
"414 538 OFFCURVE",
"414 551 CURVE SMOOTH",
"414 570 OFFCURVE",
"402 584 OFFCURVE",
"383 595 CURVE",
"371 600 OFFCURVE",
"355 603 OFFCURVE",
"339 603 CURVE SMOOTH",
"327 603 OFFCURVE",
"312 601 OFFCURVE",
"301 599 CURVE SMOOTH",
"162 570 OFFCURVE",
"38 470 OFFCURVE",
"38 371 CURVE SMOOTH",
"38 316 OFFCURVE",
"72 262 OFFCURVE",
"159 220 CURVE",
"184 205 OFFCURVE",
"238 170 OFFCURVE",
"256 154 CURVE SMOOTH",
"282 132 OFFCURVE",
"292 107 OFFCURVE",
"292 84 CURVE SMOOTH",
"292 72 OFFCURVE",
"289 60 OFFCURVE",
"285 51 CURVE SMOOTH",
"263 11 OFFCURVE",
"193 -21 OFFCURVE",
"138 -21 CURVE SMOOTH",
"118 -21 OFFCURVE",
"98 -15 OFFCURVE",
"84 -6 CURVE",
"67 8 OFFCURVE",
"56 30 OFFCURVE",
"56 49 CURVE SMOOTH",
"56 62 OFFCURVE",
"60 74 OFFCURVE",
"66 84 CURVE",
"72 98 OFFCURVE",
"69 110 OFFCURVE",
"51 90 CURVE SMOOTH",
"45 82 OFFCURVE",
"39 70 OFFCURVE",
"37 54 CURVE SMOOTH",
"30 -20 OFFCURVE",
"79 -46 OFFCURVE",
"136 -46 CURVE SMOOTH",
"179 -46 OFFCURVE",
"225 -30 OFFCURVE",
"255 -7 CURVE SMOOTH",
"292 25 OFFCURVE",
"320 72 OFFCURVE",
"310 121 CURVE SMOOTH",
"301 174 OFFCURVE",
"237 206 OFFCURVE",
"192 230 CURVE",
"194 230 OFFCURVE",
"181 237 OFFCURVE",
"176 239 CURVE",
"107 277 OFFCURVE",
"75 323 OFFCURVE",
"75 369 CURVE SMOOTH",
"75 454 OFFCURVE",
"189 543 OFFCURVE",
"310 574 CURVE",
"323 575 OFFCURVE",
"335 577 OFFCURVE",
"345 577 CURVE SMOOTH",
"390 577 OFFCURVE",
"406 551 OFFCURVE",
"386 514 CURVE SMOOTH",
"383 507 OFFCURVE",
"371 494 OFFCURVE",
"365 490 CURVE SMOOTH",
"351 481 OFFCURVE",
"365 478 OFFCURVE",
"368 480 CURVE SMOOTH",
"381 488 OFFCURVE",
"394 500 OFFCURVE",
"401 509 CURVE SMOOTH"
);
}
);
width = 342;
}
);
note = S;
unicode = 0053;
},
{
glyphname = T;
layers = (
{
hints = (
{
horizontal = 1;
place = "{-22, 23}";
type = Stem;
},
{
horizontal = 1;
place = "{498, 102}";
type = Stem;
},
{
horizontal = 1;
place = "{569, 31}";
type = Stem;
},
{
place = "{777, 28}";
type = Stem;
}
);
layerId = "E4C06A0B-08E3-4931-8B17-6F9B46D87BCD";
paths = (
{
closed = 1;
nodes = (
"91 445 OFFCURVE",
"45 421 OFFCURVE",
"28 402 CURVE SMOOTH",
"13 385 OFFCURVE",
"21 359 OFFCURVE",
"30 368 CURVE SMOOTH",
"67 405 OFFCURVE",
"172 450 OFFCURVE",
"236 467 CURVE SMOOTH",
"299 484 OFFCURVE",
"365 498 OFFCURVE",
"432 507 CURVE",
"432 499 LINE SMOOTH",
"432 329 OFFCURVE",
"354 -40 OFFCURVE",
"221 -40 CURVE SMOOTH",
"209 -40 OFFCURVE",
"195 -37 OFFCURVE",
"183 -30 CURVE",
"176 -28 OFFCURVE",
"170 -23 OFFCURVE",
"166 -15 CURVE",
"166 -16 LINE",
"159 -3 OFFCURVE",
"148 -12 OFFCURVE",
"155 -24 CURVE SMOOTH",
"162 -36 OFFCURVE",
"170 -44 OFFCURVE",
"182 -48 CURVE",
"201 -59 OFFCURVE",
"218 -63 OFFCURVE",
"236 -63 CURVE SMOOTH",
"382 -63 OFFCURVE",
"453 274 OFFCURVE",
"453 465 CURVE SMOOTH",
"453 481 OFFCURVE",
"452 496 OFFCURVE",
"451 510 CURVE",
"484 513 OFFCURVE",
"517 516 OFFCURVE",
"549 516 CURVE SMOOTH",
"614 516 OFFCURVE",
"678 507 OFFCURVE",
"737 486 CURVE SMOOTH",
"747 483 OFFCURVE",
"769 467 OFFCURVE",
"768 457 CURVE SMOOTH",
"767 442 OFFCURVE",
"780 445 OFFCURVE",
"781 457 CURVE SMOOTH",
"787 513 OFFCURVE",
"700 532 OFFCURVE",
"586 532 CURVE SMOOTH",
"543 532 OFFCURVE",
"497 529 OFFCURVE",
"450 525 CURVE",
"447 551 OFFCURVE",
"441 572 OFFCURVE",
"435 583 CURVE SMOOTH",
"429 592 OFFCURVE",
"408 591 OFFCURVE",
"421 574 CURVE SMOOTH",
"427 565 OFFCURVE",
"430 547 OFFCURVE",
"431 523 CURVE",
"304 509 OFFCURVE",
"178 482 OFFCURVE",
"130 461 CURVE SMOOTH"
);
}
);
width = 561;
}
);
note = T;
unicode = 0054;
},
{
glyphname = U;
lastChange = "2020-07-15 18:43:05 +0000";
layers = (
{
hints = (
{
horizontal = 1;
place = "{-139, 22}";
type = Stem;
},
{
horizontal = 1;
place = "{613, 22}";
type = Stem;
},
{
place = "{10, 22}";
type = Stem;
},
{
place = "{328, 35}";
type = Stem;
},
{
place = "{340, 37}";
type = Stem;
}
);
layerId = "E4C06A0B-08E3-4931-8B17-6F9B46D87BCD";
paths = (
{
closed = 1;
nodes = (
"507 -74 OFFCURVE",
"519 -71 OFFCURVE",
"531 -63 CURVE SMOOTH",
"547 -52 OFFCURVE",
"544 -40 OFFCURVE",
"525 -51 CURVE",
"526 -51 LINE",
"518 -55 OFFCURVE",
"511 -56 OFFCURVE",
"504 -56 CURVE SMOOTH",
"435 -56 OFFCURVE",
"409 -1 OFFCURVE",
"409 76 CURVE SMOOTH",
"409 248 OFFCURVE",
"537 532 OFFCURVE",
"585 557 CURVE SMOOTH",
"606 568 OFFCURVE",
"586 575 OFFCURVE",
"575 569 CURVE SMOOTH",
"538 549 OFFCURVE",
"475 439 OFFCURVE",
"429 316 CURVE",
"426 315 OFFCURVE",
"423 310 OFFCURVE",
"419 302 CURVE SMOOTH",
"376 216 OFFCURVE",
"191 -21 OFFCURVE",
"71 -14 CURVE SMOOTH",
"54 -13 OFFCURVE",
"38 -1 OFFCURVE",
"38 25 CURVE SMOOTH",
"38 36 OFFCURVE",
"42 52 OFFCURVE",
"47 68 CURVE SMOOTH",
"61 114 OFFCURVE",
"94 169 OFFCURVE",
"126 221 CURVE SMOOTH",
"180 309 OFFCURVE",
"234 406 OFFCURVE",
"234 491 CURVE SMOOTH",
"234 506 OFFCURVE",
"232 521 OFFCURVE",
"228 535 CURVE SMOOTH",
"208 604 OFFCURVE",
"153 636 OFFCURVE",
"90 636 CURVE SMOOTH",
"57 636 OFFCURVE",
"27 624 OFFCURVE",
"15 613 CURVE SMOOTH",
"2 601 OFFCURVE",
"11 591 OFFCURVE",
"26 604 CURVE SMOOTH",
"34 611 OFFCURVE",
"59 619 OFFCURVE",
"77 619 CURVE SMOOTH",
"148 619 OFFCURVE",
"196 586 OFFCURVE",
"194 507 CURVE SMOOTH",
"192 413 OFFCURVE",
"140 319 OFFCURVE",
"90 229 CURVE SMOOTH",
"61 177 OFFCURVE",
"35 126 OFFCURVE",
"18 79 CURVE SMOOTH",
"14 68 OFFCURVE",
"11 53 OFFCURVE",
"11 38 CURVE SMOOTH",
"11 6 OFFCURVE",
"24 -29 OFFCURVE",
"67 -29 CURVE SMOOTH",
"182 -29 OFFCURVE",
"333 129 OFFCURVE",
"406 250 CURVE",
"387 188 OFFCURVE",
"375 125 OFFCURVE",
"375 72 CURVE SMOOTH",
"375 -13 OFFCURVE",
"406 -74 OFFCURVE",
"494 -74 CURVE SMOOTH"
);
}
);
width = 552;
}
);
note = U;
unicode = 0055;
},
{
glyphname = V;
layers = (
{
hints = (
{
horizontal = 1;
place = "{-85, 21}";
target = up;
type = BottomGhost;
},
{
horizontal = 1;
place = "{600, -20}";
target = down;
type = TopGhost;
},
{
horizontal = 1;
place = "{601, -20}";
target = down;
type = TopGhost;
},
{
place = "{330, 37}";
type = Stem;
}
);
layerId = "E4C06A0B-08E3-4931-8B17-6F9B46D87BCD";
paths = (
{
closed = 1;
nodes = (
"182 532 OFFCURVE",
"132 558 OFFCURVE",
"85 558 CURVE SMOOTH",
"54 558 OFFCURVE",
"24 545 OFFCURVE",
"5 512 CURVE",
"5 513 LINE",
"-6 494 OFFCURVE",
"11 489 OFFCURVE",
"21 504 CURVE SMOOTH",
"31 522 OFFCURVE",
"51 529 OFFCURVE",
"71 529 CURVE SMOOTH",
"110 529 OFFCURVE",
"161 504 OFFCURVE",
"183 485 CURVE SMOOTH",
"293 379 OFFCURVE",
"353 239 OFFCURVE",
"353 115 CURVE SMOOTH",
"353 103 OFFCURVE",
"353 89 OFFCURVE",
"352 77 CURVE",
"331 28 OFFCURVE",
"317 -43 OFFCURVE",
"317 -66 CURVE SMOOTH",
"317 -92 OFFCURVE",
"338 -137 OFFCURVE",
"354 -94 CURVE SMOOTH",
"368 -56 OFFCURVE",
"370 -2 OFFCURVE",
"374 51 CURVE SMOOTH",
"374 62 OFFCURVE",
"376 80 OFFCURVE",
"376 92 CURVE",
"381 103 OFFCURVE",
"390 125 OFFCURVE",
"400 151 CURVE SMOOTH",
"448 268 OFFCURVE",
"543 486 OFFCURVE",
"665 503 CURVE SMOOTH",
"681 505 OFFCURVE",
"719 494 OFFCURVE",
"722 470 CURVE SMOOTH",
"724 455 OFFCURVE",
"749 440 OFFCURVE",
"750 471 CURVE SMOOTH",
"752 517 OFFCURVE",
"723 536 OFFCURVE",
"685 536 CURVE SMOOTH",
"660 536 OFFCURVE",
"628 526 OFFCURVE",
"605 512 CURVE",
"516 450 OFFCURVE",
"404 230 OFFCURVE",
"373 137 CURVE",
"367 273 OFFCURVE",
"315 423 OFFCURVE",
"208 511 CURVE SMOOTH"
);
}
);
width = 480;
}
);
note = V;
unicode = 0056;
},
{
glyphname = W;
layers = (
{
hints = (
{
horizontal = 1;
place = "{-138, 26}";
type = Stem;
},
{
horizontal = 1;
place = "{504, 22}";
type = Stem;
},
{
place = "{-9, 31}";
type = Stem;
},
{
place = "{320, 36}";
type = Stem;
},
{
place = "{375, 40}";
type = Stem;
},
{
place = "{888, 33}";
type = Stem;
}
);
layerId = "E4C06A0B-08E3-4931-8B17-6F9B46D87BCD";
paths = (
{
closed = 1;
nodes = (
"808 66 OFFCURVE",
"869 194 OFFCURVE",
"869 331 CURVE SMOOTH",
"869 386 OFFCURVE",
"859 443 OFFCURVE",
"836 497 CURVE SMOOTH",
"815 545 OFFCURVE",
"770 589 OFFCURVE",
"721 586 CURVE SMOOTH",
"712 586 OFFCURVE",
"690 585 OFFCURVE",
"696 573 CURVE SMOOTH",
"699 566 OFFCURVE",
"704 567 OFFCURVE",
"710 569 CURVE SMOOTH",
"713 570 OFFCURVE",
"716 572 OFFCURVE",
"720 572 CURVE SMOOTH",
"762 569 OFFCURVE",
"787 508 OFFCURVE",
"799 475 CURVE SMOOTH",
"814 429 OFFCURVE",
"825 367 OFFCURVE",
"825 309 CURVE SMOOTH",
"825 202 OFFCURVE",
"785 84 OFFCURVE",
"712 24 CURVE",
"685 7 OFFCURVE",
"660 -2 OFFCURVE",
"638 -2 CURVE SMOOTH",
"558 -2 OFFCURVE",
"499 93 OFFCURVE",
"473 168 CURVE SMOOTH",
"462 195 OFFCURVE",
"454 230 OFFCURVE",
"453 258 CURVE SMOOTH",
"453 262 OFFCURVE",
"453 266 OFFCURVE",
"454 270 CURVE SMOOTH",
"455 277 OFFCURVE",
"458 283 OFFCURVE",
"454 293 CURVE SMOOTH",
"451 301 OFFCURVE",
"440 321 OFFCURVE",
"430 320 CURVE SMOOTH",
"418 320 OFFCURVE",
"417 289 OFFCURVE",
"425 245 CURVE",
"363 145 OFFCURVE",
"201 -46 OFFCURVE",
"93 -41 CURVE SMOOTH",
"76 -40 OFFCURVE",
"60 -29 OFFCURVE",
"60 -2 CURVE SMOOTH",
"60 8 OFFCURVE",
"64 24 OFFCURVE",
"69 40 CURVE SMOOTH",
"85 85 OFFCURVE",
"116 141 OFFCURVE",
"148 193 CURVE SMOOTH",
"201 283 OFFCURVE",
"256 378 OFFCURVE",
"256 463 CURVE SMOOTH",
"256 478 OFFCURVE",
"254 493 OFFCURVE",
"251 507 CURVE SMOOTH",
"232 576 OFFCURVE",
"175 608 OFFCURVE",
"113 608 CURVE SMOOTH",
"79 608 OFFCURVE",
"49 597 OFFCURVE",
"37 585 CURVE SMOOTH",
"25 575 OFFCURVE",
"33 565 OFFCURVE",
"48 576 CURVE SMOOTH",
"56 583 OFFCURVE",
"82 591 OFFCURVE",
"99 591 CURVE SMOOTH",
"170 591 OFFCURVE",
"218 560 OFFCURVE",
"216 480 CURVE SMOOTH",
"214 385 OFFCURVE",
"162 291 OFFCURVE",
"113 201 CURVE SMOOTH",
"84 149 OFFCURVE",
"56 99 OFFCURVE",
"40 52 CURVE SMOOTH",
"37 40 OFFCURVE",
"33 25 OFFCURVE",
"33 10 CURVE SMOOTH",
"33 -22 OFFCURVE",
"46 -56 OFFCURVE",
"90 -56 CURVE SMOOTH",
"205 -55 OFFCURVE",
"358 103 OFFCURVE",
"430 224 CURVE",
"432 212 OFFCURVE",
"435 200 OFFCURVE",
"439 187 CURVE SMOOTH",
"469 86 OFFCURVE",
"546 -22 OFFCURVE",
"642 -22 CURVE SMOOTH",
"670 -22 OFFCURVE",
"699 -13 OFFCURVE",
"729 7 CURVE SMOOTH"
);
}
);
width = 914;
}
);
note = W;
unicode = 0057;
},
{
glyphname = X;
layers = (
{
hints = (
{
horizontal = 1;
place = "{567, 29}";
type = Stem;
}
);
layerId = "E4C06A0B-08E3-4931-8B17-6F9B46D87BCD";
paths = (
{
closed = 1;
nodes = (
"485 530 OFFCURVE",
"344 398 OFFCURVE",
"229 255 CURVE",
"200 304 OFFCURVE",
"173 355 OFFCURVE",
"149 400 CURVE SMOOTH",
"101 489 LINE",
"98 506 LINE SMOOTH",
"93 531 OFFCURVE",
"89 552 OFFCURVE",
"77 572 CURVE",
"77 570 LINE",
"62 595 OFFCURVE",
"40 574 OFFCURVE",
"41 561 CURVE SMOOTH",
"43 544 OFFCURVE",
"52 516 OFFCURVE",
"69 484 CURVE SMOOTH",
"95 437 OFFCURVE",
"164 312 OFFCURVE",
"212 232 CURVE",
"122 118 OFFCURVE",
"51 1 OFFCURVE",
"20 -56 CURVE",
"20 -55 LINE",
"6 -78 OFFCURVE",
"8 -100 OFFCURVE",
"17 -100 CURVE SMOOTH",
"25 -100 OFFCURVE",
"36 -86 OFFCURVE",
"49 -54 CURVE SMOOTH",
"80 15 OFFCURVE",
"144 117 OFFCURVE",
"223 214 CURVE",
"231 200 OFFCURVE",
"239 188 OFFCURVE",
"245 179 CURVE SMOOTH",
"314 84 OFFCURVE",
"414 -35 OFFCURVE",
"477 -35 CURVE SMOOTH",
"511 -35 OFFCURVE",
"522 1 OFFCURVE",
"522 46 CURVE SMOOTH",
"522 98 OFFCURVE",
"507 161 OFFCURVE",
"494 192 CURVE SMOOTH",
"488 210 OFFCURVE",
"477 204 OFFCURVE",
"482 190 CURVE SMOOTH",
"489 167 OFFCURVE",
"503 103 OFFCURVE",
"503 57 CURVE SMOOTH",
"503 25 OFFCURVE",
"496 -1 OFFCURVE",
"478 -1 CURVE SMOOTH",
"401 -1 OFFCURVE",
"316 112 OFFCURVE",
"241 236 CURVE",
"359 378 OFFCURVE",
"505 503 OFFCURVE",
"620 496 CURVE SMOOTH",
"635 494 OFFCURVE",
"649 480 OFFCURVE",
"650 465 CURVE SMOOTH",
"651 452 OFFCURVE",
"664 463 OFFCURVE",
"662 481 CURVE SMOOTH",
"660 513 OFFCURVE",
"634 530 OFFCURVE",
"609 530 CURVE SMOOTH"
);
}
);
width = 538;
}
);
note = X;
unicode = 0058;
},
{
glyphname = Y;
layers = (
{
hints = (
{
horizontal = 1;
place = "{591, 21}";
target = up;
type = BottomGhost;
},
{
place = "{-105, 26}";
type = Stem;
},
{
place = "{271, 45}";
type = Stem;
},
{
place = "{319, 29}";
type = Stem;
}
);
layerId = "E4C06A0B-08E3-4931-8B17-6F9B46D87BCD";
paths = (
{
closed = 1;
nodes = (
"431 -100 OFFCURVE",
"358 -202 OFFCURVE",
"268 -246 CURVE SMOOTH",
"238 -261 OFFCURVE",
"199 -268 OFFCURVE",
"160 -268 CURVE SMOOTH",
"63 -268 OFFCURVE",
"-39 -222 OFFCURVE",
"-39 -120 CURVE SMOOTH",
"-39 -74 OFFCURVE",
"-54 -82 OFFCURVE",
"-54 -112 CURVE SMOOTH",
"-54 -239 OFFCURVE",
"34 -293 OFFCURVE",
"137 -293 CURVE SMOOTH",
"183 -293 OFFCURVE",
"230 -282 OFFCURVE",
"274 -262 CURVE SMOOTH",
"351 -227 OFFCURVE",
"429 -158 OFFCURVE",
"465 -56 CURVE SMOOTH",
"480 -14 OFFCURVE",
"484 33 OFFCURVE",
"484 82 CURVE SMOOTH",
"484 135 OFFCURVE",
"478 187 OFFCURVE",
"473 233 CURVE SMOOTH",
"469 268 OFFCURVE",
"466 314 OFFCURVE",
"466 338 CURVE",
"488 378 OFFCURVE",
"517 448 OFFCURVE",
"509 471 CURVE",
"505 488 OFFCURVE",
"484 474 OFFCURVE",
"476 462 CURVE SMOOTH",
"445 415 OFFCURVE",
"445 362 OFFCURVE",
"445 328 CURVE SMOOTH",
"445 322 LINE",
"413 225 OFFCURVE",
"204 -15 OFFCURVE",
"92 -9 CURVE SMOOTH",
"75 -8 OFFCURVE",
"59 3 OFFCURVE",
"59 30 CURVE SMOOTH",
"59 40 OFFCURVE",
"63 56 OFFCURVE",
"68 72 CURVE SMOOTH",
"84 117 OFFCURVE",
"115 174 OFFCURVE",
"147 225 CURVE SMOOTH",
"200 315 OFFCURVE",
"255 411 OFFCURVE",
"255 496 CURVE SMOOTH",
"255 511 OFFCURVE",
"253 526 OFFCURVE",
"250 539 CURVE SMOOTH",
"231 608 OFFCURVE",
"174 641 OFFCURVE",
"112 641 CURVE SMOOTH",
"78 641 OFFCURVE",
"48 629 OFFCURVE",
"36 618 CURVE SMOOTH",
"23 606 OFFCURVE",
"32 596 OFFCURVE",
"47 608 CURVE SMOOTH",
"55 615 OFFCURVE",
"80 623 OFFCURVE",
"98 623 CURVE SMOOTH",
"169 623 OFFCURVE",
"217 591 OFFCURVE",
"215 512 CURVE SMOOTH",
"213 417 OFFCURVE",
"161 323 OFFCURVE",
"112 233 CURVE SMOOTH",
"83 182 OFFCURVE",
"55 131 OFFCURVE",
"39 84 CURVE SMOOTH",
"36 72 OFFCURVE",
"32 57 OFFCURVE",
"32 43 CURVE SMOOTH",
"32 10 OFFCURVE",
"45 -24 OFFCURVE",
"89 -24 CURVE SMOOTH",
"214 -23 OFFCURVE",
"382 161 OFFCURVE",
"444 284 CURVE",
"444 285 OFFCURVE",
"446 287 OFFCURVE",
"446 283 CURVE SMOOTH",
"446 254 OFFCURVE",
"447 227 OFFCURVE",
"448 199 CURVE SMOOTH",
"450 172 OFFCURVE",
"451 145 OFFCURVE",
"451 118 CURVE SMOOTH",
"451 94 OFFCURVE",
"450 71 OFFCURVE",
"446 48 CURVE"
);
}
);
width = 527;
}
);
note = Y;
unicode = 0059;
},
{
glyphname = Z;
layers = (
{
hints = (
{
horizontal = 1;
place = "{-76, 21}";
target = up;
type = BottomGhost;
},
{
horizontal = 1;
place = "{28, 21}";
target = up;
type = BottomGhost;
},
{
horizontal = 1;
place = "{79, 35}";
type = Stem;
},
{
horizontal = 1;
place = "{278, 32}";
type = Stem;
},
{
horizontal = 1;
place = "{363, -20}";
target = down;
type = TopGhost;
},
{
horizontal = 1;
place = "{532, 40}";
type = Stem;
}
);
layerId = "E4C06A0B-08E3-4931-8B17-6F9B46D87BCD";
paths = (
{
closed = 1;
nodes = (
"465 432 LINE SMOOTH",
"505 457 OFFCURVE",
"551 484 OFFCURVE",
"551 501 CURVE SMOOTH",
"551 532 OFFCURVE",
"537 551 OFFCURVE",
"514 534 CURVE SMOOTH",
"463 496 OFFCURVE",
"324 484 OFFCURVE",
"262 484 CURVE SMOOTH",
"200 484 OFFCURVE",
"100 486 OFFCURVE",
"100 519 CURVE SMOOTH",
"100 540 OFFCURVE",
"122 558 OFFCURVE",
"146 573 CURVE",
"149 576 OFFCURVE",
"143 584 OFFCURVE",
"136 584 CURVE SMOOTH",
"132 584 OFFCURVE",
"124 580 OFFCURVE",
"118 575 CURVE SMOOTH",
"95 559 OFFCURVE",
"78 539 OFFCURVE",
"78 507 CURVE SMOOTH",
"78 460 OFFCURVE",
"139 452 OFFCURVE",
"191 452 CURVE SMOOTH",
"205 452 OFFCURVE",
"218 453 OFFCURVE",
"230 453 CURVE SMOOTH",
"251 453 LINE SMOOTH",
"287 453 OFFCURVE",
"437 476 OFFCURVE",
"500 501 CURVE",
"331 385 OFFCURVE",
"77 189 OFFCURVE",
"22 -3 CURVE SMOOTH",
"18 -14 OFFCURVE",
"21 -28 OFFCURVE",
"33 -28 CURVE SMOOTH",
"47 -28 OFFCURVE",
"63 -15 OFFCURVE",
"72 -8 CURVE SMOOTH",
"77 -5 LINE",
"76 -5 LINE",
"186 55 OFFCURVE",
"330 86 OFFCURVE",
"452 86 CURVE SMOOTH",
"504 86 OFFCURVE",
"611 79 OFFCURVE",
"611 40 CURVE SMOOTH",
"611 34 OFFCURVE",
"606 28 OFFCURVE",
"603 23 CURVE",
"599 20 OFFCURVE",
"597 16 OFFCURVE",
"597 11 CURVE SMOOTH",
"597 8 OFFCURVE",
"597 6 OFFCURVE",
"601 6 CURVE SMOOTH",
"624 6 OFFCURVE",
"626 39 OFFCURVE",
"626 55 CURVE SMOOTH",
"626 121 OFFCURVE",
"538 121 OFFCURVE",
"462 121 CURVE SMOOTH",
"353 121 OFFCURVE",
"130 55 OFFCURVE",
"51 6 CURVE",
"106 174 OFFCURVE",
"268 294 OFFCURVE",
"413 400 CURVE"
);
}
);
width = 637;
}
);
note = Z;
unicode = 005A;
},
{
glyphname = quotedbl;
layers = (
{
hints = (
{
horizontal = 1;
place = "{321, 131}";
type = Stem;
},
{
place = "{57, 22}";
type = Stem;
},
{
place = "{125, 23}";
type = Stem;
}
);
layerId = "E4C06A0B-08E3-4931-8B17-6F9B46D87BCD";
paths = (
{
closed = 1;
nodes = (
"148 435 OFFCURVE",
"155 455 OFFCURVE",
"129 452 CURVE",
"119 452 OFFCURVE",
"102 429 OFFCURVE",
"108 426 CURVE",
"127 407 OFFCURVE",
"125 376 OFFCURVE",
"125 348 CURVE SMOOTH",
"125 331 OFFCURVE",
"126 322 OFFCURVE",
"127 321 CURVE SMOOTH",
"132 318 OFFCURVE",
"140 380 OFFCURVE",
"145 417 CURVE SMOOTH"
);
},
{
closed = 1;
nodes = (
"79 435 OFFCURVE",
"86 455 OFFCURVE",
"61 452 CURVE",
"51 452 OFFCURVE",
"34 429 OFFCURVE",
"40 426 CURVE",
"59 407 OFFCURVE",
"57 376 OFFCURVE",
"57 348 CURVE SMOOTH",
"57 333 OFFCURVE",
"56 322 OFFCURVE",
"59 321 CURVE",
"63 317 OFFCURVE",
"71 381 OFFCURVE",
"76 417 CURVE SMOOTH"
);
}
);
width = 158;
}
);
note = quotedbl;
unicode = 0022;
},
{
glyphname = numbersign;
layers = (
{
hints = (
{
horizontal = 1;
place = "{117, 137}";
type = Stem;
}
);
layerId = "E4C06A0B-08E3-4931-8B17-6F9B46D87BCD";
paths = (
{
closed = 1;
nodes = (
"104 166 OFFCURVE",
"120 204 OFFCURVE",
"133 239 CURVE",
"199 241 LINE",
"184 206 OFFCURVE",
"167 168 OFFCURVE",
"150 133 CURVE",
"131 133 OFFCURVE",
"112 134 OFFCURVE",
"89 133 CURVE"
);
},
{
closed = 1;
nodes = (
"225 129 OFFCURVE",
"203 131 OFFCURVE",
"172 132 CURVE",
"187 167 OFFCURVE",
"202 205 OFFCURVE",
"215 241 CURVE",
"239 242 OFFCURVE",
"260 242 OFFCURVE",
"279 242 CURVE SMOOTH",
"287 242 OFFCURVE",
"290 247 OFFCURVE",
"283 248 CURVE SMOOTH",
"268 251 OFFCURVE",
"247 253 OFFCURVE",
"220 254 CURVE",
"235 294 OFFCURVE",
"244 330 OFFCURVE",
"244 349 CURVE SMOOTH",
"244 369 OFFCURVE",
"236 366 OFFCURVE",
"235 351 CURVE SMOOTH",
"234 332 OFFCURVE",
"222 296 OFFCURVE",
"205 255 CURVE",
"185 255 OFFCURVE",
"164 256 OFFCURVE",
"140 255 CURVE",
"152 290 OFFCURVE",
"162 320 OFFCURVE",
"163 337 CURVE SMOOTH",
"164 358 OFFCURVE",
"155 355 OFFCURVE",
"154 339 CURVE SMOOTH",
"153 319 OFFCURVE",
"142 288 OFFCURVE",
"127 255 CURVE",
"100 255 OFFCURVE",
"73 254 OFFCURVE",
"42 251 CURVE SMOOTH",
"34 251 OFFCURVE",
"57 235 OFFCURVE",
"65 235 CURVE SMOOTH",
"119 238 LINE",
"100 199 OFFCURVE",
"80 162 OFFCURVE",
"69 139 CURVE",
"61 132 LINE",
"42 132 OFFCURVE",
"22 131 OFFCURVE",
"1 129 CURVE SMOOTH",
"-7 129 OFFCURVE",
"16 113 OFFCURVE",
"24 113 CURVE SMOOTH",
"33 113 OFFCURVE",
"43 114 OFFCURVE",
"52 115 CURVE",
"41 91 OFFCURVE",
"30 62 OFFCURVE",
"26 54 CURVE SMOOTH",
"21 46 OFFCURVE",
"47 45 OFFCURVE",
"52 56 CURVE SMOOTH",
"57 65 OFFCURVE",
"68 87 OFFCURVE",
"81 116 CURVE",
"143 119 LINE",
"128 86 OFFCURVE",
"113 59 OFFCURVE",
"104 40 CURVE SMOOTH",
"99 29 OFFCURVE",
"126 32 OFFCURVE",
"131 42 CURVE SMOOTH",
"136 53 OFFCURVE",
"150 82 OFFCURVE",
"166 119 CURVE",
"193 120 OFFCURVE",
"217 120 OFFCURVE",
"238 120 CURVE SMOOTH",
"245 120 OFFCURVE",
"249 125 OFFCURVE",
"241 126 CURVE SMOOTH"
);
}
);
width = 290;
}
);
note = numbersign;
unicode = 0023;
},
{
glyphname = dollar;
layers = (
{
hints = (
{
place = "{73, 26}";
type = Stem;
},
{
place = "{152, 29}";
type = Stem;
},
{
place = "{-18, 199}";
type = Stem;
}
);
layerId = "E4C06A0B-08E3-4931-8B17-6F9B46D87BCD";
paths = (
{
closed = 1;
nodes = (
"79 191 OFFCURVE",
"96 232 OFFCURVE",
"117 273 CURVE",
"136 260 OFFCURVE",
"152 246 OFFCURVE",
"152 219 CURVE SMOOTH",
"152 188 OFFCURVE",
"138 167 OFFCURVE",
"111 156 CURVE SMOOTH",
"92 148 OFFCURVE",
"79 148 OFFCURVE",
"64 148 CURVE"
);
},
{
closed = 1;
nodes = (
"114 299 LINE",
"105 307 OFFCURVE",
"99 315 OFFCURVE",
"99 330 CURVE SMOOTH",
"99 365 OFFCURVE",
"127 378 OFFCURVE",
"156 375 CURVE"
);
},
{
closed = 1;
nodes = (
"72 305 OFFCURVE",
"88 293 OFFCURVE",
"105 281 CURVE",
"84 236 OFFCURVE",
"65 193 OFFCURVE",
"50 150 CURVE",
"-21 166 OFFCURVE",
"-28 265 OFFCURVE",
"65 260 CURVE",
"70 259 OFFCURVE",
"72 265 OFFCURVE",
"67 266 CURVE SMOOTH",
"28 271 OFFCURVE",
"-15 248 OFFCURVE",
"-18 205 CURVE SMOOTH",
"-21 166 OFFCURVE",
"8 147 OFFCURVE",
"47 142 CURVE",
"34 105 OFFCURVE",
"26 72 OFFCURVE",
"25 48 CURVE SMOOTH",
"25 45 OFFCURVE",
"44 42 OFFCURVE",
"44 46 CURVE SMOOTH",
"45 75 OFFCURVE",
"51 107 OFFCURVE",
"62 141 CURVE",
"117 141 OFFCURVE",
"181 168 OFFCURVE",
"181 220 CURVE SMOOTH",
"181 261 OFFCURVE",
"150 274 OFFCURVE",
"126 290 CURVE",
"143 321 OFFCURVE",
"158 348 OFFCURVE",
"173 372 CURVE",
"200 364 OFFCURVE",
"191 336 OFFCURVE",
"166 336 CURVE SMOOTH",
"158 336 OFFCURVE",
"156 327 OFFCURVE",
"165 327 CURVE SMOOTH",
"212 327 OFFCURVE",
"217 369 OFFCURVE",
"178 379 CURVE",
"194 406 OFFCURVE",
"206 424 OFFCURVE",
"217 439 CURVE SMOOTH",
"225 450 OFFCURVE",
"199 443 OFFCURVE",
"189 427 CURVE",
"178 414 OFFCURVE",
"171 400 OFFCURVE",
"160 381 CURVE",
"127 385 OFFCURVE",
"75 367 OFFCURVE",
"73 329 CURVE SMOOTH"
);
}
);
width = 181;
}
);
note = dollar;
unicode = 0024;
},
{
glyphname = percent;
layers = (
{
hints = (
{
horizontal = 1;
place = "{492, -20}";
target = down;
type = TopGhost;
}
);
layerId = "E4C06A0B-08E3-4931-8B17-6F9B46D87BCD";
paths = (
{
closed = 1;
nodes = (
"353 341 OFFCURVE",
"347 350 OFFCURVE",
"337 349 CURVE",
"329 366 OFFCURVE",
"280 372 OFFCURVE",
"265 372 CURVE SMOOTH",
"224 372 OFFCURVE",
"192 365 OFFCURVE",
"152 360 CURVE",
"147 361 OFFCURVE",
"140 358 OFFCURVE",
"136 359 CURVE",
"182 339 OFFCURVE",
"138 238 OFFCURVE",
"101 202 CURVE",
"95 198 OFFCURVE",
"84 187 OFFCURVE",
"75 192 CURVE SMOOTH",
"47 204 OFFCURVE",
"123 320 OFFCURVE",
"127 330 CURVE",
"127 336 OFFCURVE",
"122 337 OFFCURVE",
"117 337 CURVE SMOOTH",
"99 337 OFFCURVE",
"28 193 OFFCURVE",
"75 184 CURVE SMOOTH",
"119 175 OFFCURVE",
"205 316 OFFCURVE",
"169 350 CURVE",
"168 350 OFFCURVE",
"167 351 OFFCURVE",
"166 351 CURVE SMOOTH",
"202 357 OFFCURVE",
"232 363 OFFCURVE",
"270 363 CURVE SMOOTH",
"281 363 OFFCURVE",
"326 363 OFFCURVE",
"332 347 CURVE",
"326 345 OFFCURVE",
"323 343 OFFCURVE",
"318 339 CURVE SMOOTH",
"237 274 OFFCURVE",
"10 48 OFFCURVE",
"-11 -50 CURVE SMOOTH",
"-13 -62 OFFCURVE",
"2 -70 OFFCURVE",
"5 -61 CURVE",
"32 67 OFFCURVE",
"271 271 OFFCURVE",
"347 336 CURVE SMOOTH"
);
},
{
closed = 1;
nodes = (
"168 133 OFFCURVE",
"137 44 OFFCURVE",
"159 3 CURVE SMOOTH",
"172 -21 OFFCURVE",
"199 -15 OFFCURVE",
"223 3 CURVE SMOOTH",
"248 24 OFFCURVE",
"270 62 OFFCURVE",
"275 92 CURVE SMOOTH",
"280 122 OFFCURVE",
"277 153 OFFCURVE",
"249 155 CURVE",
"247 161 LINE",
"238 176 OFFCURVE",
"221 168 OFFCURVE",
"207 158 CURVE SMOOTH"
);
},
{
closed = 1;
nodes = (
"219 161 OFFCURVE",
"230 165 OFFCURVE",
"237 152 CURVE",
"235 151 OFFCURVE",
"225 146 OFFCURVE",
"228 144 CURVE",
"231 140 OFFCURVE",
"237 144 OFFCURVE",
"239 144 CURVE",
"246 146 OFFCURVE",
"248 146 OFFCURVE",
"253 136 CURVE SMOOTH",
"268 107 OFFCURVE",
"251 38 OFFCURVE",
"218 10 CURVE SMOOTH",
"195 -12 OFFCURVE",
"168 0 OFFCURVE",
"164 37 CURVE SMOOTH",
"161 73 OFFCURVE",
"180 126 OFFCURVE",
"210 153 CURVE SMOOTH"
);
}
);
width = 340;
}
);
note = percent;
unicode = 0025;
},
{
glyphname = ampersand;
layers = (
{
hints = (
{
place = "{264, 25}";
type = Stem;
}
);
layerId = "E4C06A0B-08E3-4931-8B17-6F9B46D87BCD";
paths = (
{
closed = 1;
nodes = (
"336 84 OFFCURVE",
"370 125 OFFCURVE",
"389 180 CURVE SMOOTH",
"398 204 OFFCURVE",
"410 242 OFFCURVE",
"399 271 CURVE SMOOTH",
"388 299 OFFCURVE",
"363 304 OFFCURVE",
"340 297 CURVE SMOOTH",
"308 290 OFFCURVE",
"280 265 OFFCURVE",
"261 240 CURVE",
"254 276 OFFCURVE",
"248 312 OFFCURVE",
"248 348 CURVE",
"267 367 OFFCURVE",
"298 405 OFFCURVE",
"287 437 CURVE SMOOTH",
"284 448 OFFCURVE",
"276 455 OFFCURVE",
"267 452 CURVE SMOOTH",
"256 449 OFFCURVE",
"248 436 OFFCURVE",
"244 427 CURVE SMOOTH",
"233 404 OFFCURVE",
"235 369 OFFCURVE",
"236 342 CURVE",
"178 278 OFFCURVE",
"120 233 OFFCURVE",
"77 153 CURVE",
"61 164 OFFCURVE",
"49 179 OFFCURVE",
"42 197 CURVE SMOOTH",
"18 261 OFFCURVE",
"78 320 OFFCURVE",
"129 333 CURVE SMOOTH",
"141 336 OFFCURVE",
"151 335 OFFCURVE",
"164 335 CURVE SMOOTH",
"165 335 OFFCURVE",
"166 336 OFFCURVE",
"166 338 CURVE",
"163 344 OFFCURVE",
"132 337 OFFCURVE",
"125 337 CURVE",
"69 324 OFFCURVE",
"3 262 OFFCURVE",
"27 190 CURVE SMOOTH",
"35 167 OFFCURVE",
"51 151 OFFCURVE",
"71 139 CURVE",
"59 114 OFFCURVE",
"46 76 OFFCURVE",
"57 44 CURVE SMOOTH",
"76 -13 OFFCURVE",
"152 -3 OFFCURVE",
"188 5 CURVE SMOOTH",
"216 12 OFFCURVE",
"241 21 OFFCURVE",
"265 36 CURVE",
"265 -18 OFFCURVE",
"265 -128 OFFCURVE",
"205 -142 CURVE SMOOTH",
"186 -147 OFFCURVE",
"168 -140 OFFCURVE",
"157 -120 CURVE",
"154 -116 OFFCURVE",
"151 -118 OFFCURVE",
"152 -121 CURVE SMOOTH",
"163 -149 OFFCURVE",
"192 -154 OFFCURVE",
"215 -149 CURVE SMOOTH",
"290 -130 OFFCURVE",
"294 -20 OFFCURVE",
"289 53 CURVE"
);
},
{
closed = 1;
nodes = (
"275 436 OFFCURVE",
"278 434 OFFCURVE",
"279 430 CURVE SMOOTH",
"284 414 OFFCURVE",
"257 368 OFFCURVE",
"249 357 CURVE",
"249 376 OFFCURVE",
"251 405 OFFCURVE",
"259 420 CURVE SMOOTH",
"262 425 OFFCURVE",
"265 433 OFFCURVE",
"272 436 CURVE"
);
},
{
closed = 1;
nodes = (
"334 307 OFFCURVE",
"416 282 OFFCURVE",
"376 170 CURVE SMOOTH",
"359 122 OFFCURVE",
"327 89 OFFCURVE",
"287 62 CURVE",
"283 119 OFFCURVE",
"270 176 OFFCURVE",
"262 232 CURVE"
);
},
{
closed = 1;
nodes = (
"239 297 OFFCURVE",
"243 261 OFFCURVE",
"247 224 CURVE",
"226 201 OFFCURVE",
"162 119 OFFCURVE",
"97 143 CURVE",
"102 158 OFFCURVE",
"108 170 OFFCURVE",
"115 182 CURVE SMOOTH",
"132 213 OFFCURVE",
"150 241 OFFCURVE",
"173 268 CURVE SMOOTH",
"193 291 OFFCURVE",
"216 311 OFFCURVE",
"236 334 CURVE"
);
},
{
closed = 1;
nodes = (
"255 160 OFFCURVE",
"263 103 OFFCURVE",
"264 46 CURVE",
"245 36 OFFCURVE",
"225 28 OFFCURVE",
"204 22 CURVE SMOOTH",
"169 14 OFFCURVE",
"108 9 OFFCURVE",
"89 60 CURVE SMOOTH",
"81 83 OFFCURVE",
"85 109 OFFCURVE",
"92 129 CURVE",
"160 107 OFFCURVE",
"226 178 OFFCURVE",
"248 217 CURVE"
);
}
);
width = 417;
}
);
note = ampersand;
unicode = 0026;
},
{
glyphname = quotesingle;
layers = (
{
hints = (
{
horizontal = 1;
place = "{307, 18}";
type = Stem;
},
{
horizontal = 1;
place = "{428, 16}";
type = Stem;
}
);
layerId = "E4C06A0B-08E3-4931-8B17-6F9B46D87BCD";
paths = (
{
closed = 1;
nodes = (
"110 431 OFFCURVE",
"103 444 OFFCURVE",
"87 444 CURVE SMOOTH",
"78 444 OFFCURVE",
"70 429 OFFCURVE",
"70 422 CURVE SMOOTH",
"70 415 OFFCURVE",
"75 409 OFFCURVE",
"75 400 CURVE SMOOTH",
"75 363 OFFCURVE",
"30 315 OFFCURVE",
"30 308 CURVE",
"31 307 LINE",
"38 307 OFFCURVE",
"58 328 OFFCURVE",
"63 335 CURVE SMOOTH",
"77 352 OFFCURVE",
"92 372 OFFCURVE",
"103 392 CURVE",
"106 401 OFFCURVE",
"110 409 OFFCURVE",
"110 419 CURVE SMOOTH"
);
}
);
width = 106;
}
);
note = quotesingle;
unicode = 0027;
},
{
glyphname = parenleft;
layers = (
{
hints = (
{
horizontal = 1;
place = "{486, -20}";
target = down;
type = TopGhost;
}
);
layerId = "E4C06A0B-08E3-4931-8B17-6F9B46D87BCD";
paths = (
{
closed = 1;
nodes = (
"57 -62 OFFCURVE",
"154 -74 OFFCURVE",
"222 -58 CURVE",
"226 -55 OFFCURVE",
"226 -50 OFFCURVE",
"221 -50 CURVE SMOOTH",
"120 -61 OFFCURVE",
"77 -1 OFFCURVE",
"61 77 CURVE SMOOTH",
"27 253 OFFCURVE",
"111 465 OFFCURVE",
"292 490 CURVE SMOOTH",
"301 491 OFFCURVE",
"310 491 OFFCURVE",
"318 490 CURVE SMOOTH",
"323 489 OFFCURVE",
"322 494 OFFCURVE",
"317 497 CURVE SMOOTH",
"313 499 OFFCURVE",
"303 500 OFFCURVE",
"290 499 CURVE SMOOTH",
"91 483 OFFCURVE",
"-6 251 OFFCURVE",
"30 73 CURVE SMOOTH"
);
}
);
width = 289;
}
);
note = parenleft;
unicode = 0028;
},
{
glyphname = parenright;
layers = (
{
hints = (
{
horizontal = 1;
place = "{-73, 9}";
type = Stem;
},
{
horizontal = 1;
place = "{476, 13}";
type = Stem;
},
{
place = "{269, 29}";
type = Stem;
}
);
layerId = "E4C06A0B-08E3-4931-8B17-6F9B46D87BCD";
paths = (
{
closed = 1;
nodes = (
"264 485 OFFCURVE",
"169 500 OFFCURVE",
"101 484 CURVE",
"97 481 OFFCURVE",
"97 476 OFFCURVE",
"102 476 CURVE SMOOTH",
"203 487 OFFCURVE",
"246 427 OFFCURVE",
"262 349 CURVE SMOOTH",
"296 173 OFFCURVE",
"212 -39 OFFCURVE",
"31 -64 CURVE SMOOTH",
"22 -65 OFFCURVE",
"13 -65 OFFCURVE",
"5 -64 CURVE SMOOTH",
"0 -63 OFFCURVE",
"1 -68 OFFCURVE",
"6 -71 CURVE SMOOTH",
"10 -73 OFFCURVE",
"20 -74 OFFCURVE",
"33 -73 CURVE SMOOTH",
"232 -57 OFFCURVE",
"327 172 OFFCURVE",
"291 350 CURVE SMOOTH"
);
}
);
width = 355;
}
);
note = parenright;
unicode = 0029;
},
{
glyphname = asterisk;
layers = (
{
hints = (
{
horizontal = 1;
place = "{166, 13}";
type = Stem;
},
{
place = "{196, 13}";
type = Stem;
},
{
horizontal = 1;
place = "{170, 16}";
type = Stem;
},
{
place = "{200, 16}";
type = Stem;
}
);
layerId = "E4C06A0B-08E3-4931-8B17-6F9B46D87BCD";
paths = (
{
closed = 1;
nodes = (
"367 170 OFFCURVE",
"356 186 OFFCURVE",
"352 186 CURVE",
"333 183 OFFCURVE",
"282 184 OFFCURVE",
"223 181 CURVE",
"316 277 LINE SMOOTH",
"319 280 OFFCURVE",
"317 285 OFFCURVE",
"313 282 CURVE SMOOTH",
"304 276 OFFCURVE",
"259 237 OFFCURVE",
"211 189 CURVE",
"211 253 OFFCURVE",
"209 315 OFFCURVE",
"209 330 CURVE SMOOTH",
"209 334 OFFCURVE",
"204 336 OFFCURVE",
"203 332 CURVE SMOOTH",
"200 322 OFFCURVE",
"196 256 OFFCURVE",
"196 185 CURVE",
"149 229 OFFCURVE",
"102 277 OFFCURVE",
"92 287 CURVE SMOOTH",
"89 290 OFFCURVE",
"84 288 OFFCURVE",
"87 284 CURVE SMOOTH",
"93 276 OFFCURVE",
"133 229 OFFCURVE",
"181 181 CURVE",
"117 180 OFFCURVE",
"59 179 OFFCURVE",
"44 179 CURVE SMOOTH",
"39 179 OFFCURVE",
"38 174 OFFCURVE",
"42 173 CURVE SMOOTH",
"53 170 OFFCURVE",
"116 167 OFFCURVE",
"187 166 CURVE",
"143 123 OFFCURVE",
"102 79 OFFCURVE",
"83 56 CURVE SMOOTH",
"81 54 OFFCURVE",
"101 49 OFFCURVE",
"103 54 CURVE",
"115 69 OFFCURVE",
"153 110 OFFCURVE",
"196 153 CURVE",
"195 93 OFFCURVE",
"197 37 OFFCURVE",
"200 9 CURVE SMOOTH",
"200 5 OFFCURVE",
"216 18 OFFCURVE",
"216 22 CURVE",
"213 39 OFFCURVE",
"214 92 OFFCURVE",
"211 149 CURVE",
"252 108 OFFCURVE",
"290 70 OFFCURVE",
"313 54 CURVE",
"316 51 OFFCURVE",
"319 71 OFFCURVE",
"315 74 CURVE SMOOTH",
"300 85 OFFCURVE",
"260 123 OFFCURVE",
"217 166 CURVE",
"277 165 OFFCURVE",
"336 166 OFFCURVE",
"364 170 CURVE SMOOTH"
);
}
);
width = 386;
}
);
note = asterisk;
unicode = 002A;
},
{
glyphname = plus;
layers = (
{
hints = (
{
place = "{115, 22}";
type = Stem;
}
);
layerId = "E4C06A0B-08E3-4931-8B17-6F9B46D87BCD";
paths = (
{
closed = 1;
nodes = (
"210 149 OFFCURVE",
"176 151 OFFCURVE",
"129 152 CURVE",
"134 195 OFFCURVE",
"137 238 OFFCURVE",
"137 266 CURVE SMOOTH",
"137 270 OFFCURVE",
"115 257 OFFCURVE",
"115 253 CURVE SMOOTH",
"116 216 OFFCURVE",
"115 184 OFFCURVE",
"112 152 CURVE",
"83 152 OFFCURVE",
"50 151 OFFCURVE",
"11 148 CURVE SMOOTH",
"4 148 OFFCURVE",
"23 131 OFFCURVE",
"31 131 CURVE SMOOTH",
"58 134 OFFCURVE",
"83 135 OFFCURVE",
"110 136 CURVE",
"107 97 OFFCURVE",
"102 58 OFFCURVE",
"98 11 CURVE",
"97 7 OFFCURVE",
"102 5 OFFCURVE",
"103 9 CURVE SMOOTH",
"110 28 OFFCURVE",
"120 80 OFFCURVE",
"127 136 CURVE",
"166 139 OFFCURVE",
"201 139 OFFCURVE",
"229 139 CURVE SMOOTH",
"237 139 OFFCURVE",
"240 143 OFFCURVE",
"233 144 CURVE SMOOTH"
);
}
);
width = 248;
}
);
note = plus;
unicode = 002B;
},
{
glyphname = comma;
layers = (
{
hints = (
{
horizontal = 1;
place = "{-122, 21}";
target = up;
type = BottomGhost;
},
{
horizontal = 1;
place = "{44, -20}";
target = down;
type = TopGhost;
}
);
layerId = "E4C06A0B-08E3-4931-8B17-6F9B46D87BCD";
paths = (
{
closed = 1;
nodes = (
"100 28 OFFCURVE",
"92 44 OFFCURVE",
"75 44 CURVE SMOOTH",
"66 44 OFFCURVE",
"57 26 OFFCURVE",
"57 17 CURVE SMOOTH",
"57 9 OFFCURVE",
"62 1 OFFCURVE",
"62 -10 CURVE SMOOTH",
"62 -54 OFFCURVE",
"14 -113 OFFCURVE",
"14 -121 CURVE",
"15 -122 LINE",
"23 -122 OFFCURVE",
"44 -97 OFFCURVE",
"49 -89 CURVE SMOOTH",
"65 -68 OFFCURVE",
"81 -44 OFFCURVE",
"92 -19 CURVE SMOOTH",
"96 -8 OFFCURVE",
"100 1 OFFCURVE",
"100 13 CURVE SMOOTH"
);
}
);
width = 127;
}
);
note = comma;
unicode = 002C;
},
{
glyphname = hyphen;
layers = (
{
hints = (
{
horizontal = 1;
place = "{107, 21}";
target = up;
type = BottomGhost;
}
);
layerId = "E4C06A0B-08E3-4931-8B17-6F9B46D87BCD";
paths = (
{
closed = 1;
nodes = (
"161 126 OFFCURVE",
"118 132 OFFCURVE",
"53 124 CURVE SMOOTH",
"49 123 OFFCURVE",
"61 107 OFFCURVE",
"65 107 CURVE SMOOTH",
"106 112 OFFCURVE",
"151 115 OFFCURVE",
"182 115 CURVE SMOOTH",
"186 115 OFFCURVE",
"188 120 OFFCURVE",
"184 121 CURVE SMOOTH"
);
}
);
width = 192;
}
);
note = hyphen;
unicode = 002D;
},
{
glyphname = period;
layers = (
{
hints = (
{
horizontal = 1;
place = "{69, -20}";
target = down;
type = TopGhost;
}
);
layerId = "E4C06A0B-08E3-4931-8B17-6F9B46D87BCD";
paths = (
{
closed = 1;
nodes = (
"80 41 OFFCURVE",
"67 34 OFFCURVE",
"61 29 CURVE SMOOTH",
"56 25 OFFCURVE",
"49 18 OFFCURVE",
"49 12 CURVE SMOOTH",
"49 5 OFFCURVE",
"56 -10 OFFCURVE",
"65 -10 CURVE SMOOTH",
"71 -9 OFFCURVE",
"87 -6 OFFCURVE",
"88 17 CURVE SMOOTH",
"89 35 OFFCURVE",
"99 51 OFFCURVE",
"89 46 CURVE SMOOTH"
);
}
);
width = 127;
}
);
note = period;
unicode = 002E;
},
{
glyphname = slash;
layers = (
{
hints = (
{
horizontal = 1;
place = "{-75, 537}";
type = Stem;
},
{
place = "{-6, 480}";
type = Stem;
},
{
place = "{-6, 14}";
type = Stem;
}
);
layerId = "E4C06A0B-08E3-4931-8B17-6F9B46D87BCD";
paths = (
{
closed = 1;
nodes = (
"484 465 OFFCURVE",
"453 465 OFFCURVE",
"432 449 CURVE SMOOTH",
"323 364 OFFCURVE",
"22 66 OFFCURVE",
"-6 -63 CURVE SMOOTH",
"-7 -67 OFFCURVE",
"7 -79 OFFCURVE",
"8 -75 CURVE SMOOTH",
"44 92 OFFCURVE",
"362 369 OFFCURVE",
"471 454 CURVE SMOOTH"
);
}
);
width = 288;
}
);
note = slash;
unicode = 002F;
},
{
glyphname = zero.001;
layers = (
{
hints = (
{
horizontal = 1;
place = "{-5, 29}";
type = Stem;
},
{
horizontal = 1;
place = "{335, 41}";
type = Stem;
}
);
layerId = "E4C06A0B-08E3-4931-8B17-6F9B46D87BCD";
paths = (
{
closed = 1;
nodes = (
"392 252 OFFCURVE",
"393 261 OFFCURVE",
"390 272 CURVE",
"382 338 OFFCURVE",
"319 376 OFFCURVE",
"256 376 CURVE SMOOTH",
"187 376 OFFCURVE",
"114 353 OFFCURVE",
"66 302 CURVE SMOOTH",
"42 275 OFFCURVE",
"29 252 OFFCURVE",
"29 215 CURVE SMOOTH",
"29 196 OFFCURVE",
"32 178 OFFCURVE",
"40 161 CURVE",
"35 143 OFFCURVE",
"32 125 OFFCURVE",
"32 107 CURVE SMOOTH",
"32 35 OFFCURVE",
"76 -5 OFFCURVE",
"147 -5 CURVE SMOOTH",
"174 -5 OFFCURVE",
"200 1 OFFCURVE",
"225 10 CURVE SMOOTH",
"321 47 OFFCURVE",
"392 136 OFFCURVE",
"392 241 CURVE SMOOTH"
);
},
{
closed = 1;
nodes = (
"382 158 OFFCURVE",
"303 82 OFFCURVE",
"226 47 CURVE SMOOTH",
"198 34 OFFCURVE",
"166 24 OFFCURVE",
"134 24 CURVE SMOOTH",
"82 24 OFFCURVE",
"46 50 OFFCURVE",
"46 106 CURVE SMOOTH",
"46 117 OFFCURVE",
"51 128 OFFCURVE",
"54 139 CURVE",
"79 106 OFFCURVE",
"124 87 OFFCURVE",
"165 87 CURVE SMOOTH",
"169 87 OFFCURVE",
"197 87 OFFCURVE",
"197 95 CURVE SMOOTH",
"197 98 OFFCURVE",
"190 98 OFFCURVE",
"189 98 CURVE SMOOTH",
"182 98 LINE SMOOTH",
"144 98 OFFCURVE",
"80 123 OFFCURVE",
"62 159 CURVE",
"94 230 OFFCURVE",
"202 335 OFFCURVE",
"284 335 CURVE SMOOTH",
"285 335 OFFCURVE",
"299 336 OFFCURVE",
"299 340 CURVE SMOOTH",
"299 345 OFFCURVE",
"288 346 OFFCURVE",
"285 346 CURVE SMOOTH",
"193 346 OFFCURVE",
"95 272 OFFCURVE",
"52 194 CURVE",
"52 200 LINE SMOOTH",
"52 216 OFFCURVE",
"57 238 OFFCURVE",
"64 253 CURVE SMOOTH",
"99 325 OFFCURVE",
"180 359 OFFCURVE",
"256 359 CURVE SMOOTH",
"310 359 OFFCURVE",
"372 327 OFFCURVE",
"380 270 CURVE SMOOTH",
"381 263 OFFCURVE",
"382 256 OFFCURVE",
"382 249 CURVE SMOOTH"
);
}
);
width = 421;
}
);
note = zero.001;
unicode = E000;
},
{
glyphname = one.001;
layers = (
{
hints = (
{
horizontal = 1;
place = "{-24, 21}";
target = up;
type = BottomGhost;
},
{
horizontal = 1;
place = "{405, -20}";
target = down;
type = TopGhost;
},
{
place = "{91, 28}";
type = Stem;
},
{
horizontal = 1;
place = "{406, -20}";
target = down;
type = TopGhost;
}
);
layerId = "E4C06A0B-08E3-4931-8B17-6F9B46D87BCD";
paths = (
{
closed = 1;
nodes = (
"148 37 OFFCURVE",
"163 46 OFFCURVE",
"182 53 CURVE SMOOTH",
"189 56 OFFCURVE",
"196 57 OFFCURVE",
"203 60 CURVE SMOOTH",
"206 61 OFFCURVE",
"207 63 OFFCURVE",
"207 66 CURVE SMOOTH",
"207 70 OFFCURVE",
"205 72 OFFCURVE",
"201 72 CURVE SMOOTH",
"193 72 OFFCURVE",
"135 51 OFFCURVE",
"125 46 CURVE",
"120 69 OFFCURVE",
"119 90 OFFCURVE",
"119 113 CURVE SMOOTH",
"119 205 OFFCURVE",
"139 293 OFFCURVE",
"174 377 CURVE",
"175 381 OFFCURVE",
"176 384 OFFCURVE",
"176 385 CURVE SMOOTH",
"176 394 OFFCURVE",
"172 406 OFFCURVE",
"161 406 CURVE SMOOTH",
"158 406 OFFCURVE",
"158 405 OFFCURVE",
"155 405 CURVE",
"140 398 OFFCURVE",
"131 372 OFFCURVE",
"124 359 CURVE SMOOTH",
"101 318 OFFCURVE",
"80 279 OFFCURVE",
"61 236 CURVE",
"60 235 OFFCURVE",
"59 232 OFFCURVE",
"59 228 CURVE SMOOTH",
"59 225 OFFCURVE",
"60 223 OFFCURVE",
"63 223 CURVE SMOOTH",
"65 223 OFFCURVE",
"66 223 OFFCURVE",
"67 224 CURVE",
"75 227 OFFCURVE",
"93 267 OFFCURVE",
"99 276 CURVE SMOOTH",
"108 292 OFFCURVE",
"118 307 OFFCURVE",
"130 320 CURVE",
"117 251 LINE SMOOTH",
"106 195 OFFCURVE",
"91 141 OFFCURVE",
"91 84 CURVE SMOOTH",
"91 67 OFFCURVE",
"92 50 OFFCURVE",
"96 34 CURVE",
"46 13 LINE",
"21 4 LINE",
"20 3 OFFCURVE",
"19 1 OFFCURVE",
"19 -1 CURVE SMOOTH",
"19 -8 OFFCURVE",
"26 -24 OFFCURVE",
"33 -24 CURVE SMOOTH",
"43 -24 OFFCURVE",
"95 7 OFFCURVE",
"107 14 CURVE",
"110 11 OFFCURVE",
"114 9 OFFCURVE",
"119 9 CURVE SMOOTH",
"124 9 OFFCURVE",
"135 10 OFFCURVE",
"135 17 CURVE SMOOTH",
"135 20 OFFCURVE",
"134 24 OFFCURVE",
"131 28 CURVE"
);
}
);
width = 221;
}
);
note = one.001;
unicode = E001;
},
{
glyphname = two.001;
layers = (
{
hints = (
{
horizontal = 1;
place = "{-10, 36}";
type = Stem;
},
{
horizontal = 1;
place = "{-21, 21}";
target = up;
type = BottomGhost;
},
{
horizontal = 1;
place = "{359, -20}";
target = down;
type = TopGhost;
},
{
place = "{132, 238}";
type = Stem;
},
{
place = "{333, 37}";
type = Stem;
},
{
place = "{333, 80}";
type = Stem;
}
);
layerId = "E4C06A0B-08E3-4931-8B17-6F9B46D87BCD";
paths = (
{
closed = 1;
nodes = (
"-14 -24 OFFCURVE",
"58 -59 OFFCURVE",
"82 16 CURVE",
"114 34 OFFCURVE",
"184 46 OFFCURVE",
"232 46 CURVE SMOOTH",
"280 49 OFFCURVE",
"423 11 OFFCURVE",
"367 -81 CURVE SMOOTH",
"356 -100 OFFCURVE",
"366 -96 OFFCURVE",
"377 -79 CURVE SMOOTH",
"448 46 OFFCURVE",
"285 66 OFFCURVE",
"229 66 CURVE SMOOTH",
"202 65 OFFCURVE",
"176 62 OFFCURVE",
"150 56 CURVE",
"188 79 OFFCURVE",
"222 102 OFFCURVE",
"235 113 CURVE",
"453 273 OFFCURVE",
"349 391 OFFCURVE",
"192 364 CURVE SMOOTH",
"175 361 OFFCURVE",
"148 353 OFFCURVE",
"128 338 CURVE SMOOTH",
"104 320 OFFCURVE",
"90 295 OFFCURVE",
"102 272 CURVE SMOOTH",
"105 266 OFFCURVE",
"114 260 OFFCURVE",
"121 259 CURVE",
"122 258 OFFCURVE",
"131 263 OFFCURVE",
"124 265 CURVE SMOOTH",
"120 267 OFFCURVE",
"114 273 OFFCURVE",
"112 278 CURVE SMOOTH",
"102 306 OFFCURVE",
"129 336 OFFCURVE",
"180 344 CURVE SMOOTH",
"319 362 OFFCURVE",
"406 263 OFFCURVE",
"229 126 CURVE SMOOTH",
"198 102 OFFCURVE",
"145 67 OFFCURVE",
"85 34 CURVE SMOOTH"
);
}
);
width = 410;
}
);
note = two.001;
unicode = E002;
},
{
glyphname = three.001;
layers = (
{
hints = (
{
horizontal = 1;
place = "{-62, 133}";
type = Stem;
},
{
horizontal = 1;
place = "{209, 27}";
type = Stem;
},
{
place = "{23, 26}";
type = Stem;
},
{
place = "{106, 25}";
type = Stem;
},
{
place = "{321, 24}";
type = Stem;
},
{
place = "{357, 37}";
type = Stem;
},
{
horizontal = 1;
place = "{209, 171}";
type = Stem;
}
);
layerId = "E4C06A0B-08E3-4931-8B17-6F9B46D87BCD";
paths = (
{
closed = 1;
nodes = (
"394 214 OFFCURVE",
"357 236 OFFCURVE",
"306 236 CURVE SMOOTH",
"291 236 OFFCURVE",
"279 235 OFFCURVE",
"264 232 CURVE",
"296 253 OFFCURVE",
"345 291 OFFCURVE",
"345 334 CURVE SMOOTH",
"345 369 OFFCURVE",
"319 380 OFFCURVE",
"288 380 CURVE SMOOTH",
"263 380 OFFCURVE",
"233 373 OFFCURVE",
"210 364 CURVE SMOOTH",
"179 351 OFFCURVE",
"106 308 OFFCURVE",
"106 270 CURVE SMOOTH",
"106 261 OFFCURVE",
"112 246 OFFCURVE",
"123 246 CURVE SMOOTH",
"130 246 OFFCURVE",
"133 249 OFFCURVE",
"133 256 CURVE SMOOTH",
"133 261 OFFCURVE",
"131 265 OFFCURVE",
"131 270 CURVE SMOOTH",
"131 305 OFFCURVE",
"188 337 OFFCURVE",
"216 347 CURVE SMOOTH",
"239 356 OFFCURVE",
"267 364 OFFCURVE",
"291 364 CURVE SMOOTH",
"304 364 OFFCURVE",
"321 362 OFFCURVE",
"321 345 CURVE SMOOTH",
"321 306 OFFCURVE",
"255 251 OFFCURVE",
"224 233 CURVE SMOOTH",
"211 225 OFFCURVE",
"197 219 OFFCURVE",
"185 210 CURVE",
"179 207 OFFCURVE",
"176 202 OFFCURVE",
"176 196 CURVE SMOOTH",
"176 189 OFFCURVE",
"179 184 OFFCURVE",
"186 184 CURVE SMOOTH",
"187 184 OFFCURVE",
"189 185 OFFCURVE",
"190 185 CURVE",
"222 197 OFFCURVE",
"256 209 OFFCURVE",
"291 209 CURVE SMOOTH",
"331 209 OFFCURVE",
"357 191 OFFCURVE",
"357 148 CURVE SMOOTH",
"357 59 OFFCURVE",
"205 -48 OFFCURVE",
"119 -48 CURVE SMOOTH",
"88 -48 OFFCURVE",
"62 -37 OFFCURVE",
"51 -6 CURVE SMOOTH",
"50 -4 OFFCURVE",
"49 -1 OFFCURVE",
"49 4 CURVE SMOOTH",
"49 32 OFFCURVE",
"82 47 OFFCURVE",
"103 58 CURVE",
"107 61 OFFCURVE",
"112 62 OFFCURVE",
"112 67 CURVE SMOOTH",
"112 70 OFFCURVE",
"104 71 OFFCURVE",
"103 71 CURVE SMOOTH",
"68 71 OFFCURVE",
"23 32 OFFCURVE",
"23 -4 CURVE SMOOTH",
"23 -10 OFFCURVE",
"24 -15 OFFCURVE",
"26 -20 CURVE SMOOTH",
"37 -52 OFFCURVE",
"68 -62 OFFCURVE",
"99 -62 CURVE SMOOTH",
"131 -62 OFFCURVE",
"168 -52 OFFCURVE",
"199 -40 CURVE SMOOTH",
"272 -10 OFFCURVE",
"394 70 OFFCURVE",
"394 158 CURVE SMOOTH"
);
}
);
width = 420;
}
);
note = three.001;
unicode = E003;
},
{
glyphname = four.001;
layers = (
{
hints = (
{
horizontal = 1;
place = "{-31, 21}";
target = up;
type = BottomGhost;
},
{
horizontal = 1;
place = "{416, -20}";
target = down;
type = TopGhost;
}
);
layerId = "E4C06A0B-08E3-4931-8B17-6F9B46D87BCD";
paths = (
{
closed = 1;
nodes = (
"434 237 OFFCURVE",
"401 252 OFFCURVE",
"370 252 CURVE SMOOTH",
"366 252 OFFCURVE",
"347 252 OFFCURVE",
"347 245 CURVE SMOOTH",
"347 243 OFFCURVE",
"348 242 OFFCURVE",
"351 242 CURVE SMOOTH",
"354 242 OFFCURVE",
"355 243 OFFCURVE",
"358 243 CURVE SMOOTH",
"382 243 OFFCURVE",
"415 228 OFFCURVE",
"415 200 CURVE SMOOTH",
"415 174 OFFCURVE",
"382 155 OFFCURVE",
"361 147 CURVE SMOOTH",
"339 139 OFFCURVE",
"287 143 OFFCURVE",
"260 140 CURVE",
"276 172 OFFCURVE",
"293 204 OFFCURVE",
"310 236 CURVE SMOOTH",
"315 245 OFFCURVE",
"320 253 OFFCURVE",
"325 264 CURVE",
"328 268 OFFCURVE",
"329 273 OFFCURVE",
"332 278 CURVE SMOOTH",
"335 283 OFFCURVE",
"340 284 OFFCURVE",
"343 289 CURVE SMOOTH",
"346 295 OFFCURVE",
"397 408 OFFCURVE",
"397 411 CURVE SMOOTH",
"397 415 OFFCURVE",
"392 416 OFFCURVE",
"389 416 CURVE SMOOTH",
"374 416 OFFCURVE",
"363 409 OFFCURVE",
"356 398 CURVE SMOOTH",
"345 383 OFFCURVE",
"333 372 OFFCURVE",
"322 357 CURVE SMOOTH",
"295 324 OFFCURVE",
"269 290 OFFCURVE",
"240 259 CURVE SMOOTH",
"200 212 OFFCURVE",
"152 166 OFFCURVE",
"99 137 CURVE",
"80 137 OFFCURVE",
"63 137 OFFCURVE",
"44 133 CURVE SMOOTH",
"33 130 OFFCURVE",
"6 122 OFFCURVE",
"6 109 CURVE SMOOTH",
"6 99 OFFCURVE",
"11 94 OFFCURVE",
"22 94 CURVE SMOOTH",
"42 94 OFFCURVE",
"68 107 OFFCURVE",
"87 116 CURVE",
"131 112 OFFCURVE",
"175 108 OFFCURVE",
"219 108 CURVE",
"208 77 OFFCURVE",
"196 46 OFFCURVE",
"191 14 CURVE",
"175 10 OFFCURVE",
"159 6 OFFCURVE",
"142 3 CURVE",
"135 0 OFFCURVE",
"127 1 OFFCURVE",
"120 -2 CURVE",
"115 -3 OFFCURVE",
"115 -11 OFFCURVE",
"115 -15 CURVE SMOOTH",
"115 -20 OFFCURVE",
"115 -31 OFFCURVE",
"122 -31 CURVE SMOOTH",
"136 -31 OFFCURVE",
"198 -8 OFFCURVE",
"215 -2 CURVE SMOOTH",
"236 5 OFFCURVE",
"257 13 OFFCURVE",
"278 18 CURVE SMOOTH",
"299 22 LINE",
"304 22 OFFCURVE",
"307 22 OFFCURVE",
"310 23 CURVE SMOOTH",
"314 24 OFFCURVE",
"316 27 OFFCURVE",
"316 31 CURVE SMOOTH",
"316 34 OFFCURVE",
"314 36 OFFCURVE",
"310 36 CURVE SMOOTH",
"303 36 OFFCURVE",
"298 34 OFFCURVE",
"291 34 CURVE",
"264 30 OFFCURVE",
"239 24 OFFCURVE",
"212 19 CURVE",
"219 50 OFFCURVE",
"232 79 OFFCURVE",
"245 107 CURVE",
"276 108 OFFCURVE",
"316 109 OFFCURVE",
"345 118 CURVE SMOOTH",
"381 129 OFFCURVE",
"434 157 OFFCURVE",
"434 202 CURVE SMOOTH"
);
},
{
closed = 1;
nodes = (
"276 238 OFFCURVE",
"252 189 OFFCURVE",
"231 138 CURVE",
"201 136 OFFCURVE",
"171 135 OFFCURVE",
"140 135 CURVE SMOOTH",
"119 135 LINE",
"187 176 OFFCURVE",
"245 232 OFFCURVE",
"300 289 CURVE"
);
},
{
closed = 1;
nodes = (
"54 114 OFFCURVE",
"40 109 OFFCURVE",
"24 109 CURVE SMOOTH",
"21 109 OFFCURVE",
"19 110 OFFCURVE",
"18 111 CURVE",
"18 118 OFFCURVE",
"38 122 OFFCURVE",
"43 122 CURVE SMOOTH",
"50 122 LINE SMOOTH",
"57 122 OFFCURVE",
"62 122 OFFCURVE",
"69 121 CURVE"
);
}
);
width = 427;
}
);
note = four.001;
unicode = E004;
},
{
glyphname = five.001;
layers = (
{
hints = (
{
horizontal = 1;
place = "{-93, 21}";
target = up;
type = BottomGhost;
},
{
horizontal = 1;
place = "{310, 134}";
type = Stem;
},
{
place = "{-16, 29}";
type = Stem;
},
{
place = "{367, 45}";
type = Stem;
}
);
layerId = "E4C06A0B-08E3-4931-8B17-6F9B46D87BCD";
paths = (
{
closed = 1;
nodes = (
"311 435 OFFCURVE",
"312 436 OFFCURVE",
"315 436 CURVE SMOOTH",
"339 436 OFFCURVE",
"398 421 OFFCURVE",
"398 390 CURVE SMOOTH",
"398 358 OFFCURVE",
"372 349 OFFCURVE",
"357 343 CURVE SMOOTH",
"314 327 OFFCURVE",
"157 333 OFFCURVE",
"100 328 CURVE SMOOTH",
"85 327 OFFCURVE",
"60 321 OFFCURVE",
"60 302 CURVE SMOOTH",
"60 287 OFFCURVE",
"76 276 OFFCURVE",
"89 276 CURVE SMOOTH",
"94 276 OFFCURVE",
"96 278 OFFCURVE",
"96 281 CURVE SMOOTH",
"96 291 OFFCURVE",
"77 288 OFFCURVE",
"77 299 CURVE SMOOTH",
"77 309 OFFCURVE",
"102 310 OFFCURVE",
"107 310 CURVE SMOOTH",
"188 310 OFFCURVE",
"274 296 OFFCURVE",
"350 315 CURVE",
"381 325 OFFCURVE",
"412 341 OFFCURVE",
"412 380 CURVE SMOOTH",
"412 423 OFFCURVE",
"361 444 OFFCURVE",
"324 444 CURVE SMOOTH",
"320 444 OFFCURVE",
"302 445 OFFCURVE",
"302 438 CURVE SMOOTH",
"302 435 OFFCURVE",
"305 435 OFFCURVE",
"308 435 CURVE SMOOTH"
);
},
{
closed = 1;
nodes = (
"207 -62 OFFCURVE",
"341 1 OFFCURVE",
"390 110 CURVE SMOOTH",
"397 126 OFFCURVE",
"402 144 OFFCURVE",
"402 161 CURVE SMOOTH",
"402 211 OFFCURVE",
"363 231 OFFCURVE",
"319 231 CURVE SMOOTH",
"253 231 OFFCURVE",
"213 194 OFFCURVE",
"156 167 CURVE",
"165 198 OFFCURVE",
"172 228 OFFCURVE",
"179 259 CURVE SMOOTH",
"182 268 OFFCURVE",
"185 280 OFFCURVE",
"185 291 CURVE SMOOTH",
"185 298 OFFCURVE",
"176 299 OFFCURVE",
"172 299 CURVE SMOOTH",
"159 299 OFFCURVE",
"157 295 OFFCURVE",
"154 283 CURVE SMOOTH",
"144 236 OFFCURVE",
"142 208 OFFCURVE",
"130 172 CURVE SMOOTH",
"127 165 OFFCURVE",
"123 158 OFFCURVE",
"123 151 CURVE SMOOTH",
"123 144 OFFCURVE",
"126 141 OFFCURVE",
"132 141 CURVE SMOOTH",
"135 141 LINE",
"142 144 OFFCURVE",
"147 147 OFFCURVE",
"154 151 CURVE SMOOTH",
"196 177 OFFCURVE",
"266 213 OFFCURVE",
"316 213 CURVE SMOOTH",
"347 213 OFFCURVE",
"367 198 OFFCURVE",
"367 165 CURVE SMOOTH",
"367 146 OFFCURVE",
"360 125 OFFCURVE",
"351 108 CURVE SMOOTH",
"300 12 OFFCURVE",
"194 -50 OFFCURVE",
"90 -71 CURVE SMOOTH",
"79 -74 OFFCURVE",
"67 -75 OFFCURVE",
"52 -75 CURVE SMOOTH",
"40 -75 OFFCURVE",
"13 -74 OFFCURVE",
"13 -55 CURVE SMOOTH",
"13 -16 OFFCURVE",
"148 52 OFFCURVE",
"185 60 CURVE SMOOTH",
"188 61 OFFCURVE",
"198 63 OFFCURVE",
"198 67 CURVE SMOOTH",
"198 71 OFFCURVE",
"192 71 OFFCURVE",
"189 71 CURVE SMOOTH",
"182 71 LINE",
"134 60 OFFCURVE",
"-16 5 OFFCURVE",
"-16 -52 CURVE SMOOTH",
"-16 -103 OFFCURVE",
"69 -91 OFFCURVE",
"97 -85 CURVE SMOOTH"
);
}
);
width = 425;
}
);
note = five.001;
unicode = E005;
},
{
glyphname = six.001;
layers = (
{
hints = (
{
horizontal = 1;
place = "{-78, 21}";
target = up;
type = BottomGhost;
},
{
horizontal = 1;
place = "{391, -20}";
target = down;
type = TopGhost;
},
{
place = "{45, 34}";
type = Stem;
},
{
place = "{304, 34}";
type = Stem;
}
);
layerId = "E4C06A0B-08E3-4931-8B17-6F9B46D87BCD";
paths = (
{
closed = 1;
nodes = (
"338 174 OFFCURVE",
"320 198 OFFCURVE",
"287 198 CURVE SMOOTH",
"278 198 OFFCURVE",
"269 197 OFFCURVE",
"260 194 CURVE SMOOTH",
"180 170 OFFCURVE",
"110 71 OFFCURVE",
"94 -6 CURVE",
"83 9 OFFCURVE",
"79 33 OFFCURVE",
"79 52 CURVE SMOOTH",
"79 148 OFFCURVE",
"169 260 OFFCURVE",
"234 327 CURVE SMOOTH",
"250 343 OFFCURVE",
"267 358 OFFCURVE",
"284 373 CURVE SMOOTH",
"287 376 OFFCURVE",
"292 381 OFFCURVE",
"292 386 CURVE SMOOTH",
"292 389 OFFCURVE",
"290 391 OFFCURVE",
"286 391 CURVE SMOOTH",
"283 391 OFFCURVE",
"280 390 OFFCURVE",
"276 387 CURVE SMOOTH",
"189 321 OFFCURVE",
"45 150 OFFCURVE",
"45 37 CURVE SMOOTH",
"45 4 OFFCURVE",
"56 -27 OFFCURVE",
"91 -38 CURVE",
"91 -47 OFFCURVE",
"96 -78 OFFCURVE",
"106 -78 CURVE SMOOTH",
"113 -78 OFFCURVE",
"115 -67 OFFCURVE",
"115 -62 CURVE SMOOTH",
"115 -55 OFFCURVE",
"112 -48 OFFCURVE",
"112 -41 CURVE",
"193 -44 OFFCURVE",
"338 57 OFFCURVE",
"338 142 CURVE SMOOTH"
);
},
{
closed = 1;
nodes = (
"296 173 OFFCURVE",
"304 158 OFFCURVE",
"304 137 CURVE SMOOTH",
"304 72 OFFCURVE",
"197 -24 OFFCURVE",
"132 -24 CURVE SMOOTH",
"124 -24 OFFCURVE",
"117 -23 OFFCURVE",
"112 -20 CURVE",
"120 52 OFFCURVE",
"180 148 OFFCURVE",
"253 170 CURVE SMOOTH",
"260 172 OFFCURVE",
"266 173 OFFCURVE",
"273 173 CURVE SMOOTH"
);
}
);
width = 380;
}
);
note = six.001;
unicode = E006;
},
{
glyphname = seven.001;
layers = (
{
hints = (
{
horizontal = 1;
place = "{-42, 21}";
target = up;
type = BottomGhost;
},
{
horizontal = 1;
place = "{397, -20}";
target = down;
type = TopGhost;
},
{
place = "{48, 32}";
type = Stem;
}
);
layerId = "E4C06A0B-08E3-4931-8B17-6F9B46D87BCD";
paths = (
{
closed = 1;
nodes = (
"358 397 LINE",
"329 362 OFFCURVE",
"286 361 OFFCURVE",
"243 361 CURVE SMOOTH",
"196 361 OFFCURVE",
"149 363 OFFCURVE",
"104 344 CURVE SMOOTH",
"69 331 OFFCURVE",
"22 300 OFFCURVE",
"22 258 CURVE SMOOTH",
"22 225 OFFCURVE",
"52 210 OFFCURVE",
"81 210 CURVE SMOOTH",
"86 210 OFFCURVE",
"114 211 OFFCURVE",
"114 219 CURVE SMOOTH",
"114 221 OFFCURVE",
"113 222 OFFCURVE",
"110 222 CURVE SMOOTH",
"103 222 OFFCURVE",
"99 220 OFFCURVE",
"92 220 CURVE SMOOTH",
"73 220 OFFCURVE",
"34 230 OFFCURVE",
"34 254 CURVE SMOOTH",
"34 277 OFFCURVE",
"64 293 OFFCURVE",
"80 302 CURVE SMOOTH",
"103 315 OFFCURVE",
"161 324 OFFCURVE",
"190 329 CURVE SMOOTH",
"233 336 OFFCURVE",
"275 342 OFFCURVE",
"316 354 CURVE",
"236 278 OFFCURVE",
"48 100 OFFCURVE",
"48 -13 CURVE SMOOTH",
"48 -26 OFFCURVE",
"52 -42 OFFCURVE",
"68 -42 CURVE SMOOTH",
"76 -42 OFFCURVE",
"98 -33 OFFCURVE",
"98 -26 CURVE SMOOTH",
"98 -21 OFFCURVE",
"95 -19 OFFCURVE",
"90 -19 CURVE SMOOTH",
"88 -19 OFFCURVE",
"86 -20 OFFCURVE",
"85 -21 CURVE SMOOTH",
"84 -22 OFFCURVE",
"84 -22 OFFCURVE",
"83 -22 CURVE SMOOTH",
"80 -22 OFFCURVE",
"80 -16 OFFCURVE",
"80 -13 CURVE SMOOTH",
"80 99 OFFCURVE",
"285 313 OFFCURVE",
"369 385 CURVE"
);
}
);
width = 292;
}
);
note = seven.001;
unicode = E007;
},
{
glyphname = eight.001;
layers = (
{
hints = (
{
horizontal = 1;
place = "{-43, 21}";
target = up;
type = BottomGhost;
},
{
horizontal = 1;
place = "{318, 21}";
type = Stem;
},
{
horizontal = 1;
place = "{385, -20}";
target = down;
type = TopGhost;
},
{
place = "{44, 26}";
type = Stem;
},
{
place = "{98, 21}";
type = Stem;
},
{
place = "{204, 34}";
type = Stem;
}
);
layerId = "E4C06A0B-08E3-4931-8B17-6F9B46D87BCD";
paths = (
{
closed = 1;
nodes = (
"279 313 OFFCURVE",
"276 314 OFFCURVE",
"275 315 CURVE SMOOTH",
"264 323 OFFCURVE",
"258 329 OFFCURVE",
"247 333 CURVE",
"243 356 OFFCURVE",
"227 372 OFFCURVE",
"207 383 CURVE",
"206 384 OFFCURVE",
"204 385 OFFCURVE",
"202 385 CURVE SMOOTH",
"198 385 OFFCURVE",
"198 382 OFFCURVE",
"198 379 CURVE SMOOTH",
"198 374 LINE",
"216 367 OFFCURVE",
"227 354 OFFCURVE",
"231 337 CURVE",
"223 338 OFFCURVE",
"216 339 OFFCURVE",
"208 339 CURVE SMOOTH",
"155 339 OFFCURVE",
"98 313 OFFCURVE",
"98 253 CURVE SMOOTH",
"98 220 OFFCURVE",
"113 187 OFFCURVE",
"136 163 CURVE",
"99 131 OFFCURVE",
"44 77 OFFCURVE",
"44 26 CURVE SMOOTH",
"44 -19 OFFCURVE",
"79 -43 OFFCURVE",
"122 -43 CURVE SMOOTH",
"177 -43 OFFCURVE",
"238 0 OFFCURVE",
"238 60 CURVE SMOOTH",
"238 107 OFFCURVE",
"203 145 OFFCURVE",
"168 172 CURVE",
"181 187 LINE SMOOTH",
"208 222 OFFCURVE",
"245 268 OFFCURVE",
"248 315 CURVE",
"259 312 OFFCURVE",
"268 311 OFFCURVE",
"277 304 CURVE",
"278 307 OFFCURVE",
"279 309 OFFCURVE",
"279 310 CURVE SMOOTH"
);
},
{
closed = 1;
nodes = (
"233 260 OFFCURVE",
"189 223 OFFCURVE",
"155 183 CURVE",
"138 204 OFFCURVE",
"119 237 OFFCURVE",
"119 265 CURVE SMOOTH",
"119 310 OFFCURVE",
"176 318 OFFCURVE",
"210 318 CURVE SMOOTH",
"218 318 OFFCURVE",
"226 318 OFFCURVE",
"233 317 CURVE"
);
},
{
closed = 1;
nodes = (
"174 123 OFFCURVE",
"204 87 OFFCURVE",
"204 47 CURVE SMOOTH",
"204 4 OFFCURVE",
"166 -25 OFFCURVE",
"125 -25 CURVE SMOOTH",
"93 -25 OFFCURVE",
"70 -5 OFFCURVE",
"70 28 CURVE SMOOTH",
"70 70 OFFCURVE",
"115 123 OFFCURVE",
"147 150 CURVE"
);
}
);
width = 295;
}
);
note = eight.001;
unicode = E008;
},
{
glyphname = nine.001;
layers = (
{
hints = (
{
horizontal = 1;
place = "{-47, 21}";
target = up;
type = BottomGhost;
},
{
horizontal = 1;
place = "{145, 224}";
type = Stem;
},
{
horizontal = 1;
place = "{404, -20}";
target = down;
type = TopGhost;
},
{
place = "{32, 34}";
type = Stem;
},
{
place = "{298, 36}";
type = Stem;
}
);
layerId = "E4C06A0B-08E3-4931-8B17-6F9B46D87BCD";
paths = (
{
closed = 1;
nodes = (
"334 326 OFFCURVE",
"325 352 OFFCURVE",
"294 363 CURVE",
"294 371 OFFCURVE",
"293 404 OFFCURVE",
"282 404 CURVE SMOOTH",
"275 404 OFFCURVE",
"272 393 OFFCURVE",
"272 388 CURVE SMOOTH",
"272 381 OFFCURVE",
"274 375 OFFCURVE",
"274 368 CURVE",
"269 368 OFFCURVE",
"265 369 OFFCURVE",
"260 369 CURVE SMOOTH",
"181 369 OFFCURVE",
"32 284 OFFCURVE",
"32 199 CURVE SMOOTH",
"32 164 OFFCURVE",
"52 145 OFFCURVE",
"85 145 CURVE SMOOTH",
"92 145 OFFCURVE",
"98 144 OFFCURVE",
"105 147 CURVE",
"187 163 OFFCURVE",
"264 256 OFFCURVE",
"288 332 CURVE",
"296 319 OFFCURVE",
"298 300 OFFCURVE",
"298 285 CURVE SMOOTH",
"298 186 OFFCURVE",
"193 74 OFFCURVE",
"122 14 CURVE SMOOTH",
"103 -2 OFFCURVE",
"85 -15 OFFCURVE",
"66 -30 CURVE SMOOTH",
"62 -33 OFFCURVE",
"57 -37 OFFCURVE",
"57 -42 CURVE SMOOTH",
"57 -45 OFFCURVE",
"59 -47 OFFCURVE",
"63 -47 CURVE SMOOTH",
"67 -47 OFFCURVE",
"70 -46 OFFCURVE",
"72 -44 CURVE",
"165 14 OFFCURVE",
"334 179 OFFCURVE",
"334 295 CURVE SMOOTH"
);
},
{
closed = 1;
nodes = (
"256 274 OFFCURVE",
"190 186 OFFCURVE",
"114 170 CURVE SMOOTH",
"107 169 OFFCURVE",
"102 168 OFFCURVE",
"99 168 CURVE SMOOTH",
"77 168 OFFCURVE",
"66 179 OFFCURVE",
"66 202 CURVE SMOOTH",
"66 270 OFFCURVE",
"182 353 OFFCURVE",
"245 353 CURVE SMOOTH",
"255 353 OFFCURVE",
"264 351 OFFCURVE",
"272 347 CURVE"
);
}
);
width = 351;
}
);
note = nine.001;
unicode = E009;
},
{
glyphname = colon;
layers = (
{
hints = (
{
horizontal = 1;
place = "{2, 21}";
target = up;
type = BottomGhost;
},
{
horizontal = 1;
place = "{192, -20}";
target = down;
type = TopGhost;
},
{
horizontal = 1;
place = "{1, 21}";
target = up;
type = BottomGhost;
}
);
layerId = "E4C06A0B-08E3-4931-8B17-6F9B46D87BCD";
paths = (
{
closed = 1;
nodes = (
"82 51 OFFCURVE",
"69 44 OFFCURVE",
"63 39 CURVE SMOOTH",
"58 35 OFFCURVE",
"51 28 OFFCURVE",
"51 22 CURVE SMOOTH",
"51 15 OFFCURVE",
"58 0 OFFCURVE",
"67 0 CURVE SMOOTH",
"73 1 OFFCURVE",
"89 4 OFFCURVE",
"90 27 CURVE SMOOTH",
"91 45 OFFCURVE",
"101 61 OFFCURVE",
"91 56 CURVE SMOOTH"
);
},
{
closed = 1;
nodes = (
"116 180 OFFCURVE",
"103 173 OFFCURVE",
"97 168 CURVE SMOOTH",
"92 164 OFFCURVE",
"85 157 OFFCURVE",
"85 151 CURVE SMOOTH",
"85 144 OFFCURVE",
"92 129 OFFCURVE",
"101 129 CURVE SMOOTH",
"107 130 OFFCURVE",
"123 133 OFFCURVE",
"124 156 CURVE SMOOTH",
"125 174 OFFCURVE",
"135 190 OFFCURVE",
"125 185 CURVE SMOOTH"
);
}
);
width = 127;
}
);
note = colon;
unicode = 003A;
},
{
glyphname = semicolon;
layers = (
{
hints = (
{
horizontal = 1;
place = "{-122, 21}";
target = up;
type = BottomGhost;
},
{
horizontal = 1;
place = "{192, -20}";
target = down;
type = TopGhost;
}
);
layerId = "E4C06A0B-08E3-4931-8B17-6F9B46D87BCD";
paths = (
{
closed = 1;
nodes = (
"100 28 OFFCURVE",
"95 35 OFFCURVE",
"74 30 CURVE SMOOTH",
"65 28 OFFCURVE",
"57 26 OFFCURVE",
"57 17 CURVE SMOOTH",
"57 9 OFFCURVE",
"62 1 OFFCURVE",
"62 -10 CURVE SMOOTH",
"62 -54 OFFCURVE",
"40 -81 OFFCURVE",
"27 -96 CURVE SMOOTH",
"15 -110 OFFCURVE",
"33 -111 OFFCURVE",
"43 -95 CURVE SMOOTH",
"59 -74 OFFCURVE",
"81 -44 OFFCURVE",
"92 -19 CURVE SMOOTH",
"96 -8 OFFCURVE",
"100 1 OFFCURVE",
"100 13 CURVE SMOOTH"
);
},
{
closed = 1;
nodes = (
"134 180 OFFCURVE",
"121 173 OFFCURVE",
"115 168 CURVE SMOOTH",
"110 164 OFFCURVE",
"103 157 OFFCURVE",
"103 151 CURVE SMOOTH",
"103 144 OFFCURVE",
"110 129 OFFCURVE",
"119 129 CURVE SMOOTH",
"125 130 OFFCURVE",
"141 133 OFFCURVE",
"142 156 CURVE SMOOTH",
"143 174 OFFCURVE",
"153 190 OFFCURVE",
"143 185 CURVE SMOOTH"
);
}
);
width = 127;
}
);
note = semicolon;
unicode = 003B;
},
{
glyphname = less;
layers = (
{
hints = (
{
horizontal = 1;
place = "{114, 21}";
target = up;
type = BottomGhost;
},
{
horizontal = 1;
place = "{371, -20}";
target = down;
type = TopGhost;
}
);
layerId = "E4C06A0B-08E3-4931-8B17-6F9B46D87BCD";
paths = (
{
closed = 1;
nodes = (
"194 369 OFFCURVE",
"191 371 OFFCURVE",
"186 371 CURVE SMOOTH",
"180 371 OFFCURVE",
"174 368 OFFCURVE",
"169 361 CURVE SMOOTH",
"162 353 OFFCURVE",
"157 343 OFFCURVE",
"150 335 CURVE SMOOTH",
"137 319 OFFCURVE",
"70 230 OFFCURVE",
"70 215 CURVE SMOOTH",
"70 212 OFFCURVE",
"71 210 OFFCURVE",
"73 209 CURVE",
"81 202 OFFCURVE",
"90 197 OFFCURVE",
"98 190 CURVE SMOOTH",
"127 169 OFFCURVE",
"153 146 OFFCURVE",
"174 117 CURVE",
"181 114 LINE",
"188 114 OFFCURVE",
"192 118 OFFCURVE",
"192 127 CURVE SMOOTH",
"192 143 OFFCURVE",
"125 221 OFFCURVE",
"111 238 CURVE",
"121 254 OFFCURVE",
"194 355 OFFCURVE",
"194 364 CURVE SMOOTH"
);
}
);
width = 267;
}
);
note = less;
unicode = 003C;
},
{
glyphname = equal;
layers = (
{
hints = (
{
horizontal = 1;
place = "{54, 29}";
type = Stem;
},
{
horizontal = 1;
place = "{137, 29}";
type = Stem;
}
);
layerId = "E4C06A0B-08E3-4931-8B17-6F9B46D87BCD";
paths = (
{
closed = 1;
nodes = (
"254 154 OFFCURVE",
"253 155 OFFCURVE",
"252 156 CURVE",
"239 164 OFFCURVE",
"160 166 OFFCURVE",
"138 166 CURVE SMOOTH",
"124 166 OFFCURVE",
"55 164 OFFCURVE",
"46 161 CURVE",
"45 160 OFFCURVE",
"44 159 OFFCURVE",
"44 158 CURVE SMOOTH",
"44 151 OFFCURVE",
"56 137 OFFCURVE",
"63 137 CURVE SMOOTH",
"124 137 OFFCURVE",
"184 147 OFFCURVE",
"247 147 CURVE SMOOTH",
"252 147 OFFCURVE",
"254 149 OFFCURVE",
"254 153 CURVE SMOOTH"
);
},
{
closed = 1;
nodes = (
"254 71 OFFCURVE",
"253 72 OFFCURVE",
"252 72 CURVE",
"239 80 OFFCURVE",
"159 83 OFFCURVE",
"138 83 CURVE SMOOTH",
"124 83 OFFCURVE",
"55 80 OFFCURVE",
"46 77 CURVE",
"45 77 OFFCURVE",
"44 76 OFFCURVE",
"44 74 CURVE SMOOTH",
"44 67 OFFCURVE",
"56 54 OFFCURVE",
"63 54 CURVE SMOOTH",
"124 54 OFFCURVE",
"184 63 OFFCURVE",
"247 63 CURVE SMOOTH",
"252 63 OFFCURVE",
"254 65 OFFCURVE",
"254 69 CURVE SMOOTH"
);
}
);
width = 292;
}
);
note = equal;
unicode = 003D;
},
{
glyphname = greater;
layers = (
{
hints = (
{
horizontal = 1;
place = "{108, 21}";
target = up;
type = BottomGhost;
},
{
horizontal = 1;
place = "{365, -20}";
target = down;
type = TopGhost;
}
);
layerId = "E4C06A0B-08E3-4931-8B17-6F9B46D87BCD";
paths = (
{
closed = 1;
nodes = (
"194 266 OFFCURVE",
"193 268 OFFCURVE",
"191 270 CURVE",
"163 290 LINE SMOOTH",
"136 311 OFFCURVE",
"110 333 OFFCURVE",
"89 362 CURVE",
"82 365 LINE",
"75 365 OFFCURVE",
"71 361 OFFCURVE",
"71 352 CURVE SMOOTH",
"71 336 OFFCURVE",
"138 258 OFFCURVE",
"152 241 CURVE",
"142 225 OFFCURVE",
"69 124 OFFCURVE",
"69 115 CURVE SMOOTH",
"69 110 OFFCURVE",
"72 108 OFFCURVE",
"77 108 CURVE SMOOTH",
"83 108 OFFCURVE",
"89 111 OFFCURVE",
"94 118 CURVE",
"101 125 OFFCURVE",
"105 133 OFFCURVE",
"110 140 CURVE SMOOTH",
"123 159 OFFCURVE",
"137 174 OFFCURVE",
"149 193 CURVE",
"157 203 OFFCURVE",
"194 251 OFFCURVE",
"194 264 CURVE SMOOTH"
);
}
);
width = 267;
}
);
note = greater;
unicode = 003E;
},
{
glyphname = question;
layers = (
{
hints = (
{
horizontal = 1;
place = "{-12, 21}";
target = up;
type = BottomGhost;
},
{
horizontal = 1;
place = "{69, -20}";
target = down;
type = TopGhost;
},
{
horizontal = 1;
place = "{397, 20}";
type = Stem;
},
{
horizontal = 1;
place = "{608, -20}";
target = down;
type = TopGhost;
},
{
place = "{34, 58}";
type = Stem;
},
{
place = "{58, 34}";
type = Stem;
}
);
layerId = "E4C06A0B-08E3-4931-8B17-6F9B46D87BCD";
paths = (
{
closed = 1;
nodes = (
"92 152 OFFCURVE",
"139 187 OFFCURVE",
"160 200 CURVE SMOOTH",
"186 219 OFFCURVE",
"215 234 OFFCURVE",
"243 249 CURVE SMOOTH",
"257 257 OFFCURVE",
"273 264 OFFCURVE",
"286 273 CURVE SMOOTH",
"328 299 OFFCURVE",
"367 341 OFFCURVE",
"367 393 CURVE SMOOTH",
"367 456 OFFCURVE",
"310 491 OFFCURVE",
"251 491 CURVE SMOOTH",
"195 491 OFFCURVE",
"140 465 OFFCURVE",
"102 426 CURVE SMOOTH",
"89 413 OFFCURVE",
"78 399 OFFCURVE",
"71 382 CURVE SMOOTH",
"67 372 OFFCURVE",
"63 361 OFFCURVE",
"63 350 CURVE SMOOTH",
"63 325 OFFCURVE",
"82 319 OFFCURVE",
"104 319 CURVE SMOOTH",
"110 319 LINE SMOOTH",
"133 321 OFFCURVE",
"179 333 OFFCURVE",
"197 349 CURVE",
"198 351 OFFCURVE",
"199 353 OFFCURVE",
"199 354 CURVE SMOOTH",
"199 356 OFFCURVE",
"198 358 OFFCURVE",
"195 358 CURVE SMOOTH",
"194 358 LINE",
"172 348 OFFCURVE",
"140 335 OFFCURVE",
"116 335 CURVE SMOOTH",
"102 335 OFFCURVE",
"91 340 OFFCURVE",
"91 355 CURVE SMOOTH",
"91 364 OFFCURVE",
"94 373 OFFCURVE",
"98 382 CURVE SMOOTH",
"124 443 OFFCURVE",
"184 482 OFFCURVE",
"251 482 CURVE SMOOTH",
"297 482 OFFCURVE",
"352 458 OFFCURVE",
"352 405 CURVE SMOOTH",
"352 337 OFFCURVE",
"269 297 OFFCURVE",
"220 266 CURVE SMOOTH",
"193 248 OFFCURVE",
"167 231 OFFCURVE",
"141 211 CURVE SMOOTH",
"118 194 OFFCURVE",
"77 155 OFFCURVE",
"77 124 CURVE SMOOTH",
"77 112 OFFCURVE",
"82 102 OFFCURVE",
"93 93 CURVE",
"95 93 LINE SMOOTH",
"99 93 OFFCURVE",
"104 97 OFFCURVE",
"104 102 CURVE SMOOTH",
"104 106 OFFCURVE",
"92 110 OFFCURVE",
"92 125 CURVE SMOOTH"
);
},
{
closed = 1;
nodes = (
"62 -15 LINE",
"85 -7 OFFCURVE",
"78 20 OFFCURVE",
"94 36 CURVE SMOOTH",
"97 39 OFFCURVE",
"100 40 OFFCURVE",
"100 43 CURVE SMOOTH",
"100 45 OFFCURVE",
"98 49 OFFCURVE",
"97 51 CURVE",
"97 46 LINE",
"88 46 OFFCURVE",
"44 23 OFFCURVE",
"44 7 CURVE SMOOTH",
"44 0 OFFCURVE",
"50 -15 OFFCURVE",
"59 -15 CURVE SMOOTH"
);
}
);
width = 382;
}
);
note = question;
unicode = 003F;
},
{
glyphname = at;
layers = (
{
hints = (
{
horizontal = 1;
place = "{24, 118}";
type = Stem;
},
{
horizontal = 1;
place = "{512, 29}";
type = Stem;
},
{
place = "{42, 197}";
type = Stem;
},
{
place = "{218, 21}";
type = Stem;
},
{
place = "{362, 24}";
type = Stem;
}
);
layerId = "E4C06A0B-08E3-4931-8B17-6F9B46D87BCD";
paths = (
{
closed = 1;
nodes = (
"339 -23 OFFCURVE",
"420 6 OFFCURVE",
"478 41 CURVE SMOOTH",
"568 96 OFFCURVE",
"611 197 OFFCURVE",
"561 261 CURVE",
"561 281 LINE SMOOTH",
"561 375 OFFCURVE",
"496 423 OFFCURVE",
"406 423 CURVE SMOOTH",
"261 423 OFFCURVE",
"75 304 OFFCURVE",
"75 148 CURVE SMOOTH",
"75 31 OFFCURVE",
"157 -23 OFFCURVE",
"270 -23 CURVE SMOOTH"
);
},
{
closed = 1;
nodes = (
"578 163 OFFCURVE",
"537 102 OFFCURVE",
"486 63 CURVE SMOOTH",
"428 16 OFFCURVE",
"339 -10 OFFCURVE",
"270 -10 CURVE SMOOTH",
"34 -10 OFFCURVE",
"47 232 OFFCURVE",
"235 346 CURVE SMOOTH",
"295 383 OFFCURVE",
"370 398 OFFCURVE",
"424 398 CURVE SMOOTH",
"479 398 OFFCURVE",
"527 376 OFFCURVE",
"541 320 CURVE SMOOTH",
"542 314 OFFCURVE",
"542 307 OFFCURVE",
"542 301 CURVE SMOOTH",
"542 293 OFFCURVE",
"542 285 OFFCURVE",
"540 277 CURVE",
"529 285 OFFCURVE",
"509 293 OFFCURVE",
"496 293 CURVE SMOOTH",
"475 293 OFFCURVE",
"475 288 OFFCURVE",
"485 284 CURVE SMOOTH",
"504 274 OFFCURVE",
"519 265 OFFCURVE",
"533 247 CURVE",
"519 195 OFFCURVE",
"498 157 OFFCURVE",
"464 119 CURVE SMOOTH",
"453 108 OFFCURVE",
"421 79 OFFCURVE",
"403 79 CURVE SMOOTH",
"365 79 OFFCURVE",
"372 149 OFFCURVE",
"372 172 CURVE SMOOTH",
"372 209 OFFCURVE",
"376 252 OFFCURVE",
"380 287 CURVE SMOOTH",
"380 288 LINE SMOOTH",
"380 294 OFFCURVE",
"371 293 OFFCURVE",
"364 293 CURVE SMOOTH",
"360 293 OFFCURVE",
"358 291 OFFCURVE",
"358 288 CURVE SMOOTH",
"356 275 LINE SMOOTH",
"355 268 OFFCURVE",
"349 247 OFFCURVE",
"346 239 CURVE SMOOTH",
"333 198 OFFCURVE",
"308 127 OFFCURVE",
"285 94 CURVE SMOOTH",
"279 87 OFFCURVE",
"268 71 OFFCURVE",
"256 74 CURVE SMOOTH",
"242 76 OFFCURVE",
"245 112 OFFCURVE",
"245 121 CURVE SMOOTH",
"250 182 OFFCURVE",
"307 250 OFFCURVE",
"349 287 CURVE SMOOTH",
"362 297 OFFCURVE",
"371 303 OFFCURVE",
"384 312 CURVE",
"386 315 OFFCURVE",
"389 320 OFFCURVE",
"390 326 CURVE SMOOTH",
"390 332 OFFCURVE",
"388 338 OFFCURVE",
"381 341 CURVE",
"371 341 LINE",
"346 336 OFFCURVE",
"304 309 OFFCURVE",
"301 281 CURVE",
"264 242 OFFCURVE",
"231 180 OFFCURVE",
"227 122 CURVE SMOOTH",
"225 105 OFFCURVE",
"225 71 OFFCURVE",
"248 64 CURVE",
"294 54 OFFCURVE",
"342 183 OFFCURVE",
"352 212 CURVE",
"349 167 OFFCURVE",
"332 69 OFFCURVE",
"390 62 CURVE SMOOTH",
"460 55 OFFCURVE",
"528 170 OFFCURVE",
"546 227 CURVE"
);
}
);
width = 667;
}
);
note = at;
unicode = 0040;
},
{
glyphname = A.001;
layers = (
{
hints = (
{
horizontal = 1;
place = "{-143, 21}";
target = up;
type = BottomGhost;
},
{
horizontal = 1;
place = "{571, -20}";
target = down;
type = TopGhost;
}
);
layerId = "E4C06A0B-08E3-4931-8B17-6F9B46D87BCD";
paths = (
{
closed = 1;
nodes = (
"244 152 OFFCURVE",
"292 149 OFFCURVE",
"309 149 CURVE",
"265 88 OFFCURVE",
"153 -41 OFFCURVE",
"20 -39 CURVE SMOOTH",
"0 -39 OFFCURVE",
"-3 -57 OFFCURVE",
"24 -56 CURVE SMOOTH",
"176 -50 OFFCURVE",
"248 37 OFFCURVE",
"335 145 CURVE",
"372 142 OFFCURVE",
"462 143 OFFCURVE",
"499 143 CURVE",
"500 84 OFFCURVE",
"513 17 OFFCURVE",
"561 -13 CURVE",
"567 -19 OFFCURVE",
"573 -12 OFFCURVE",
"572 -6 CURVE",
"569 1 OFFCURVE",
"547 5 OFFCURVE",
"534 43 CURVE SMOOTH",
"523 75 OFFCURVE",
"522 115 OFFCURVE",
"526 144 CURVE",
"536 144 OFFCURVE",
"591 152 OFFCURVE",
"586 165 CURVE",
"586 168 OFFCURVE",
"583 170 OFFCURVE",
"580 170 CURVE SMOOTH",
"579 170 OFFCURVE",
"579 169 OFFCURVE",
"578 169 CURVE",
"562 162 OFFCURVE",
"546 160 OFFCURVE",
"527 159 CURVE",
"539 289 OFFCURVE",
"607 450 OFFCURVE",
"668 556 CURVE SMOOTH",
"672 563 OFFCURVE",
"656 572 OFFCURVE",
"649 571 CURVE SMOOTH",
"645 571 LINE",
"639 566 OFFCURVE",
"626 545 OFFCURVE",
"613 518 CURVE SMOOTH",
"555 411 OFFCURVE",
"506 287 OFFCURVE",
"499 158 CURVE",
"466 158 OFFCURVE",
"384 160 OFFCURVE",
"348 163 CURVE",
"410 247 OFFCURVE",
"521 404 OFFCURVE",
"583 518 CURVE",
"584 519 OFFCURVE",
"586 521 OFFCURVE",
"586 522 CURVE SMOOTH",
"586 529 OFFCURVE",
"575 526 OFFCURVE",
"570 517 CURVE SMOOTH",
"495 391 OFFCURVE",
"402 270 OFFCURVE",
"320 166 CURVE",
"295 169 OFFCURVE",
"251 177 OFFCURVE",
"226 184 CURVE SMOOTH",
"221 186 OFFCURVE",
"182 165 OFFCURVE",
"219 157 CURVE SMOOTH"
);
}
);
width = 638;
}
);
note = A.001;
unicode = E00A;
},
{
glyphname = B.001;
layers = (
{
hints = (
{
horizontal = 1;
place = "{545, -20}";
target = down;
type = TopGhost;
},
{
place = "{531, 39}";
type = Stem;
}
);
layerId = "E4C06A0B-08E3-4931-8B17-6F9B46D87BCD";
paths = (
{
closed = 1;
nodes = (
"80 73 OFFCURVE",
"123 166 OFFCURVE",
"174 259 CURVE",
"189 260 OFFCURVE",
"206 259 OFFCURVE",
"228 264 CURVE",
"297 248 OFFCURVE",
"392 234 OFFCURVE",
"454 202 CURVE SMOOTH",
"596 127 OFFCURVE",
"584 24 OFFCURVE",
"422 1 CURVE SMOOTH",
"304 -17 OFFCURVE",
"138 -4 OFFCURVE",
"70 12 CURVE"
);
},
{
closed = 1;
nodes = (
"379 294 OFFCURVE",
"519 342 OFFCURVE",
"509 434 CURVE SMOOTH",
"502 504 OFFCURVE",
"442 532 OFFCURVE",
"369 542 CURVE",
"370 554 OFFCURVE",
"347 562 OFFCURVE",
"333 546 CURVE",
"301 549 OFFCURVE",
"280 547 OFFCURVE",
"257 547 CURVE",
"249 546 OFFCURVE",
"252 525 OFFCURVE",
"260 526 CURVE SMOOTH",
"278 527 OFFCURVE",
"298 527 OFFCURVE",
"317 527 CURVE",
"270 482 OFFCURVE",
"190 351 OFFCURVE",
"166 300 CURVE",
"115 300 OFFCURVE",
"106 275 OFFCURVE",
"144 260 CURVE",
"97 172 OFFCURVE",
"58 85 OFFCURVE",
"50 17 CURVE",
"46 18 LINE SMOOTH",
"10 31 OFFCURVE",
"9 3 OFFCURVE",
"38 -9 CURVE SMOOTH",
"41 -10 OFFCURVE",
"44 -12 OFFCURVE",
"48 -12 CURVE",
"48 -15 OFFCURVE",
"48 -17 OFFCURVE",
"49 -22 CURVE SMOOTH",
"50 -35 OFFCURVE",
"69 -35 OFFCURVE",
"68 -19 CURVE SMOOTH",
"68 -17 LINE",
"141 -32 OFFCURVE",
"302 -38 OFFCURVE",
"426 -17 CURVE SMOOTH",
"618 15 OFFCURVE",
"654 139 OFFCURVE",
"465 221 CURVE SMOOTH",
"406 247 OFFCURVE",
"331 260 OFFCURVE",
"266 272 CURVE"
);
},
{
closed = 1;
nodes = (
"191 288 LINE",
"251 391 OFFCURVE",
"314 483 OFFCURVE",
"355 524 CURVE",
"418 518 OFFCURVE",
"474 497 OFFCURVE",
"481 435 CURVE SMOOTH",
"491 344 OFFCURVE",
"335 295 OFFCURVE",
"233 279 CURVE"
);
}
);
width = 604;
}
);
note = B.001;
unicode = E00B;
},
{
glyphname = C.001;
layers = (
{
hints = (
{
horizontal = 1;
place = "{-39, 20}";
type = Stem;
},
{
place = "{20, 42}";
type = Stem;
}
);
layerId = "E4C06A0B-08E3-4931-8B17-6F9B46D87BCD";
paths = (
{
closed = 1;
nodes = (
"615 512 LINE",
"611 515 OFFCURVE",
"606 518 OFFCURVE",
"599 520 CURVE SMOOTH",
"470 555 OFFCURVE",
"350 522 OFFCURVE",
"239 450 CURVE SMOOTH",
"133 381 OFFCURVE",
"25 263 OFFCURVE",
"25 127 CURVE SMOOTH",
"25 -4 OFFCURVE",
"131 -39 OFFCURVE",
"243 -39 CURVE SMOOTH",
"351 -39 OFFCURVE",
"488 -2 OFFCURVE",
"582 54 CURVE SMOOTH",
"595 62 OFFCURVE",
"592 78 OFFCURVE",
"571 65 CURVE SMOOTH",
"486 12 OFFCURVE",
"359 -19 OFFCURVE",
"260 -19 CURVE SMOOTH",
"165 -19 OFFCURVE",
"62 15 OFFCURVE",
"62 127 CURVE SMOOTH",
"62 230 OFFCURVE",
"147 346 OFFCURVE",
"255 425 CURVE SMOOTH",
"333 482 OFFCURVE",
"482 542 OFFCURVE",
"581 507 CURVE",
"604 497 LINE",
"575 459 OFFCURVE",
"554 418 OFFCURVE",
"546 372 CURVE",
"546 369 OFFCURVE",
"551 367 OFFCURVE",
"552 370 CURVE SMOOTH",
"562 425 OFFCURVE",
"619 467 OFFCURVE",
"649 516 CURVE SMOOTH",
"656 528 OFFCURVE",
"630 529 OFFCURVE",
"621 519 CURVE SMOOTH"
);
}
);
width = 610;
}
);
note = C.001;
unicode = E00C;
},
{
glyphname = D.001;
layers = (
{
hints = (
{
horizontal = 1;
place = "{-55, 21}";
target = up;
type = BottomGhost;
},
{
place = "{2, 21}";
type = Stem;
},
{
place = "{489, 39}";
type = Stem;
}
);
layerId = "E4C06A0B-08E3-4931-8B17-6F9B46D87BCD";
paths = (
{
closed = 1;
nodes = (
"472 399 OFFCURVE",
"489 305 OFFCURVE",
"489 197 CURVE SMOOTH",
"489 89 OFFCURVE",
"458 -37 OFFCURVE",
"327 -37 CURVE SMOOTH",
"247 -37 OFFCURVE",
"175 19 OFFCURVE",
"151 93 CURVE",
"154 98 OFFCURVE",
"163 109 OFFCURVE",
"163 116 CURVE SMOOTH",
"163 125 OFFCURVE",
"151 130 OFFCURVE",
"144 130 CURVE SMOOTH",
"136 130 OFFCURVE",
"129 126 OFFCURVE",
"129 118 CURVE SMOOTH",
"129 111 OFFCURVE",
"131 103 OFFCURVE",
"134 96 CURVE",
"120 79 OFFCURVE",
"79 18 OFFCURVE",
"63 7 CURVE SMOOTH",
"56 2 OFFCURVE",
"39 -7 OFFCURVE",
"30 -7 CURVE SMOOTH",
"25 -7 OFFCURVE",
"23 -5 OFFCURVE",
"23 0 CURVE SMOOTH",
"23 41 OFFCURVE",
"139 206 OFFCURVE",
"178 257 CURVE SMOOTH",
"234 332 OFFCURVE",
"313 430 OFFCURVE",
"397 493 CURVE"
);
},
{
closed = 1;
nodes = (
"293 435 OFFCURVE",
"187 328 OFFCURVE",
"163 296 CURVE SMOOTH",
"99 216 OFFCURVE",
"43 128 OFFCURVE",
"8 32 CURVE SMOOTH",
"5 23 OFFCURVE",
"2 15 OFFCURVE",
"2 4 CURVE SMOOTH",
"2 -13 OFFCURVE",
"11 -21 OFFCURVE",
"29 -21 CURVE SMOOTH",
"44 -21 OFFCURVE",
"60 -14 OFFCURVE",
"72 -5 CURVE SMOOTH",
"88 6 OFFCURVE",
"127 62 OFFCURVE",
"140 78 CURVE",
"172 1 OFFCURVE",
"254 -55 OFFCURVE",
"337 -55 CURVE SMOOTH",
"476 -55 OFFCURVE",
"528 86 OFFCURVE",
"528 205 CURVE SMOOTH",
"528 318 OFFCURVE",
"499 414 OFFCURVE",
"415 506 CURVE",
"431 517 OFFCURVE",
"497 558 OFFCURVE",
"515 558 CURVE SMOOTH",
"517 558 OFFCURVE",
"518 557 OFFCURVE",
"518 555 CURVE SMOOTH",
"518 552 OFFCURVE",
"513 549 OFFCURVE",
"513 544 CURVE SMOOTH",
"513 539 OFFCURVE",
"516 536 OFFCURVE",
"522 536 CURVE SMOOTH",
"531 536 OFFCURVE",
"536 550 OFFCURVE",
"536 557 CURVE SMOOTH",
"536 568 OFFCURVE",
"530 574 OFFCURVE",
"517 574 CURVE SMOOTH",
"489 574 OFFCURVE",
"448 552 OFFCURVE",
"404 520 CURVE",
"367 560 OFFCURVE",
"334 590 OFFCURVE",
"274 602 CURVE SMOOTH",
"215 612 OFFCURVE",
"148 572 OFFCURVE",
"143 499 CURVE SMOOTH",
"142 486 OFFCURVE",
"159 488 OFFCURVE",
"160 501 CURVE SMOOTH",
"163 561 OFFCURVE",
"213 589 OFFCURVE",
"260 581 CURVE SMOOTH",
"311 570 OFFCURVE",
"343 552 OFFCURVE",
"386 507 CURVE"
);
}
);
width = 551;
}
);
note = D.001;
unicode = E00D;
},
{
glyphname = E.001;
layers = (
{
hints = (
{
horizontal = 1;
place = "{-60, 21}";
target = up;
type = BottomGhost;
},
{
horizontal = 1;
place = "{318, 227}";
type = Stem;
},
{
place = "{18, 39}";
type = Stem;
},
{
place = "{348, 243}";
type = Stem;
},
{
horizontal = 1;
place = "{318, 35}";
type = Stem;
},
{
place = "{348, 35}";
type = Stem;
}
);
layerId = "E4C06A0B-08E3-4931-8B17-6F9B46D87BCD";
paths = (
{
closed = 1;
nodes = (
"642 543 OFFCURVE",
"631 529 OFFCURVE",
"622 516 CURVE",
"618 521 LINE",
"600 537 OFFCURVE",
"551 545 OFFCURVE",
"526 545 CURVE SMOOTH",
"519 545 OFFCURVE",
"514 545 OFFCURVE",
"511 544 CURVE",
"489 543 OFFCURVE",
"467 539 OFFCURVE",
"445 530 CURVE SMOOTH",
"402 514 OFFCURVE",
"348 474 OFFCURVE",
"348 423 CURVE SMOOTH",
"348 388 OFFCURVE",
"373 363 OFFCURVE",
"400 347 CURVE",
"324 338 OFFCURVE",
"243 316 OFFCURVE",
"175 279 CURVE SMOOTH",
"108 244 OFFCURVE",
"18 177 OFFCURVE",
"18 94 CURVE SMOOTH",
"18 33 OFFCURVE",
"65 -5 OFFCURVE",
"116 -29 CURVE SMOOTH",
"136 -38 OFFCURVE",
"156 -44 OFFCURVE",
"179 -49 CURVE SMOOTH",
"215 -57 OFFCURVE",
"251 -60 OFFCURVE",
"288 -60 CURVE SMOOTH",
"443 -60 OFFCURVE",
"712 2 OFFCURVE",
"752 184 CURVE",
"753 192 OFFCURVE",
"740 201 OFFCURVE",
"735 186 CURVE SMOOTH",
"671 20 OFFCURVE",
"423 -42 OFFCURVE",
"268 -42 CURVE SMOOTH",
"193 -42 OFFCURVE",
"57 -20 OFFCURVE",
"57 77 CURVE SMOOTH",
"57 153 OFFCURVE",
"135 218 OFFCURVE",
"196 253 CURVE SMOOTH",
"267 294 OFFCURVE",
"356 320 OFFCURVE",
"436 331 CURVE",
"468 322 OFFCURVE",
"504 318 OFFCURVE",
"537 318 CURVE SMOOTH",
"548 318 OFFCURVE",
"591 319 OFFCURVE",
"591 338 CURVE SMOOTH",
"591 356 OFFCURVE",
"513 353 OFFCURVE",
"500 353 CURVE SMOOTH",
"477 353 OFFCURVE",
"456 352 OFFCURVE",
"433 351 CURVE",
"406 366 OFFCURVE",
"383 389 OFFCURVE",
"383 422 CURVE SMOOTH",
"383 485 OFFCURVE",
"458 523 OFFCURVE",
"511 528 CURVE SMOOTH",
"519 529 OFFCURVE",
"528 529 OFFCURVE",
"536 529 CURVE SMOOTH",
"559 529 OFFCURVE",
"585 526 OFFCURVE",
"602 510 CURVE SMOOTH",
"603 509 OFFCURVE",
"603 508 OFFCURVE",
"603 506 CURVE SMOOTH",
"603 501 OFFCURVE",
"605 496 OFFCURVE",
"608 493 CURVE",
"594 467 OFFCURVE",
"583 439 OFFCURVE",
"578 409 CURVE",
"578 406 OFFCURVE",
"583 404 OFFCURVE",
"584 407 CURVE SMOOTH",
"594 462 OFFCURVE",
"651 504 OFFCURVE",
"681 553 CURVE SMOOTH",
"688 565 OFFCURVE",
"662 566 OFFCURVE",
"653 556 CURVE SMOOTH"
);
}
);
width = 765;
}
);
note = E.001;
unicode = E00E;
},
{
glyphname = F.001;
layers = (
{
hints = (
{
horizontal = 1;
place = "{-94, 15}";
type = Stem;
},
{
horizontal = 1;
place = "{269, 19}";
type = Stem;
},
{
horizontal = 1;
place = "{495, 17}";
type = Stem;
},
{
place = "{10, 36}";
type = Stem;
},
{
horizontal = 1;
place = "{488, 24}";
type = Stem;
},
{
horizontal = 1;
place = "{495, 11}";
type = Stem;
},
{
horizontal = 1;
place = "{478, 32}";
type = Stem;
}
);
layerId = "E4C06A0B-08E3-4931-8B17-6F9B46D87BCD";
paths = (
{
closed = 1;
nodes = (
"384 247 OFFCURVE",
"404 256 OFFCURVE",
"378 267 CURVE SMOOTH",
"333 286 OFFCURVE",
"195 294 OFFCURVE",
"104 283 CURVE",
"141 359 OFFCURVE",
"196 429 OFFCURVE",
"265 488 CURVE",
"342 496 OFFCURVE",
"488 499 OFFCURVE",
"560 491 CURVE",
"574 488 OFFCURVE",
"582 503 OFFCURVE",
"569 506 CURVE",
"478 517 OFFCURVE",
"384 515 OFFCURVE",
"292 512 CURVE",
"338 543 LINE SMOOTH",
"359 556 OFFCURVE",
"334 561 OFFCURVE",
"323 555 CURVE SMOOTH",
"299 542 OFFCURVE",
"276 527 OFFCURVE",
"254 510 CURVE",
"207 507 OFFCURVE",
"150 509 OFFCURVE",
"114 505 CURVE SMOOTH",
"68 500 OFFCURVE",
"53 467 OFFCURVE",
"85 472 CURVE SMOOTH",
"133 477 OFFCURVE",
"177 479 OFFCURVE",
"225 484 CURVE",
"160 427 OFFCURVE",
"107 354 OFFCURVE",
"70 278 CURVE",
"53 275 OFFCURVE",
"39 271 OFFCURVE",
"29 266 CURVE SMOOTH",
"13 258 OFFCURVE",
"-2 224 OFFCURVE",
"26 237 CURVE SMOOTH",
"34 241 OFFCURVE",
"44 244 OFFCURVE",
"55 247 CURVE",
"20 164 OFFCURVE",
"3 83 OFFCURVE",
"10 16 CURVE SMOOTH",
"15 -45 OFFCURVE",
"60 -123 OFFCURVE",
"135 -83 CURVE SMOOTH",
"154 -74 OFFCURVE",
"146 -65 OFFCURVE",
"131 -73 CURVE SMOOTH",
"100 -89 OFFCURVE",
"81 -71 OFFCURVE",
"69 -50 CURVE SMOOTH",
"58 -31 OFFCURVE",
"52 -7 OFFCURVE",
"49 16 CURVE SMOOTH",
"38 87 OFFCURVE",
"54 171 OFFCURVE",
"91 255 CURVE",
"189 274 OFFCURVE",
"341 274 OFFCURVE",
"381 250 CURVE"
);
}
);
width = 339;
}
);
note = F.001;
unicode = E00F;
},
{
glyphname = G.001;
layers = (
{
hints = (
{
horizontal = 1;
place = "{-39, 20}";
type = Stem;
},
{
horizontal = 1;
place = "{530, -20}";
target = down;
type = TopGhost;
}
);
layerId = "E4C06A0B-08E3-4931-8B17-6F9B46D87BCD";
paths = (
{
closed = 1;
nodes = (
"706 530 OFFCURVE",
"698 520 OFFCURVE",
"691 509 CURVE",
"645 527 OFFCURVE",
"592 530 OFFCURVE",
"546 530 CURVE SMOOTH",
"503 530 OFFCURVE",
"461 525 OFFCURVE",
"418 514 CURVE SMOOTH",
"268 477 OFFCURVE",
"125 382 OFFCURVE",
"52 250 CURVE SMOOTH",
"-39 89 OFFCURVE",
"57 -39 OFFCURVE",
"243 -39 CURVE SMOOTH",
"351 -39 OFFCURVE",
"488 -2 OFFCURVE",
"582 54 CURVE SMOOTH",
"649 94 OFFCURVE",
"735 158 OFFCURVE",
"747 236 CURVE",
"766 233 OFFCURVE",
"781 230 OFFCURVE",
"789 228 CURVE",
"792 225 OFFCURVE",
"812 234 OFFCURVE",
"786 245 CURVE SMOOTH",
"776 249 OFFCURVE",
"764 252 OFFCURVE",
"749 255 CURVE",
"749 261 OFFCURVE",
"749 266 OFFCURVE",
"748 272 CURVE SMOOTH",
"744 299 OFFCURVE",
"729 320 OFFCURVE",
"698 320 CURVE SMOOTH",
"687 320 OFFCURVE",
"684 313 OFFCURVE",
"694 310 CURVE SMOOTH",
"721 304 OFFCURVE",
"732 284 OFFCURVE",
"734 261 CURVE SMOOTH",
"734 258 LINE",
"642 273 OFFCURVE",
"488 270 OFFCURVE",
"437 244 CURVE SMOOTH",
"421 236 OFFCURVE",
"406 202 OFFCURVE",
"434 215 CURVE SMOOTH",
"501 248 OFFCURVE",
"648 246 OFFCURVE",
"732 237 CURVE",
"719 164 OFFCURVE",
"627 101 OFFCURVE",
"575 69 CURVE SMOOTH",
"490 16 OFFCURVE",
"359 -19 OFFCURVE",
"260 -19 CURVE SMOOTH",
"164 -19 OFFCURVE",
"62 15 OFFCURVE",
"62 128 CURVE SMOOTH",
"62 196 OFFCURVE",
"102 267 OFFCURVE",
"144 319 CURVE SMOOTH",
"221 414 OFFCURVE",
"314 474 OFFCURVE",
"423 499 CURVE SMOOTH",
"493 514 OFFCURVE",
"616 523 OFFCURVE",
"675 489 CURVE",
"675 488 OFFCURVE",
"676 488 OFFCURVE",
"677 488 CURVE",
"659 458 OFFCURVE",
"646 427 OFFCURVE",
"640 393 CURVE",
"640 390 OFFCURVE",
"645 388 OFFCURVE",
"646 391 CURVE SMOOTH",
"656 446 OFFCURVE",
"713 488 OFFCURVE",
"743 537 CURVE SMOOTH",
"750 549 OFFCURVE",
"724 550 OFFCURVE",
"715 540 CURVE SMOOTH"
);
}
);
width = 765;
}
);
note = G.001;
unicode = E010;
},
{
glyphname = H.001;
layers = (
{
hints = (
{
horizontal = 1;
place = "{-22, 25}";
type = Stem;
},
{
place = "{478, 38}";
type = Stem;
}
);
layerId = "E4C06A0B-08E3-4931-8B17-6F9B46D87BCD";
paths = (
{
closed = 1;
nodes = (
"42 -35 OFFCURVE",
"204 86 OFFCURVE",
"315 218 CURVE",
"354 221 OFFCURVE",
"480 220 OFFCURVE",
"519 217 CURVE",
"498 176 OFFCURVE",
"478 128 OFFCURVE",
"478 81 CURVE SMOOTH",
"478 22 OFFCURVE",
"502 -22 OFFCURVE",
"565 -22 CURVE SMOOTH",
"581 -22 OFFCURVE",
"598 -19 OFFCURVE",
"616 -14 CURVE SMOOTH",
"630 -10 OFFCURVE",
"645 -5 OFFCURVE",
"662 3 CURVE SMOOTH",
"680 12 OFFCURVE",
"698 33 OFFCURVE",
"661 17 CURVE SMOOTH",
"638 7 OFFCURVE",
"608 3 OFFCURVE",
"588 3 CURVE SMOOTH",
"533 3 OFFCURVE",
"516 46 OFFCURVE",
"516 94 CURVE SMOOTH",
"516 135 OFFCURVE",
"533 177 OFFCURVE",
"550 214 CURVE",
"559 213 OFFCURVE",
"578 210 OFFCURVE",
"599 205 CURVE SMOOTH",
"633 197 OFFCURVE",
"610 225 OFFCURVE",
"603 225 CURVE",
"584 228 OFFCURVE",
"569 229 OFFCURVE",
"558 230 CURVE",
"585 281 OFFCURVE",
"615 328 OFFCURVE",
"650 373 CURVE SMOOTH",
"706 448 OFFCURVE",
"806 554 OFFCURVE",
"902 623 CURVE SMOOTH",
"930 642 OFFCURVE",
"930 671 OFFCURVE",
"895 644 CURVE",
"750 545 OFFCURVE",
"593 355 OFFCURVE",
"527 233 CURVE",
"489 236 OFFCURVE",
"367 234 OFFCURVE",
"328 234 CURVE",
"370 295 OFFCURVE",
"398 383 OFFCURVE",
"398 433 CURVE SMOOTH",
"398 486 OFFCURVE",
"379 529 OFFCURVE",
"311 514 CURVE SMOOTH",
"290 510 OFFCURVE",
"296 503 OFFCURVE",
"310 503 CURVE SMOOTH",
"350 503 OFFCURVE",
"373 473 OFFCURVE",
"368 425 CURVE SMOOTH",
"363 364 OFFCURVE",
"323 263 OFFCURVE",
"297 234 CURVE",
"269 233 OFFCURVE",
"229 230 OFFCURVE",
"184 223 CURVE",
"169 223 OFFCURVE",
"131 195 OFFCURVE",
"184 203 CURVE SMOOTH",
"224 210 OFFCURVE",
"259 213 OFFCURVE",
"279 216 CURVE",
"169 100 OFFCURVE",
"29 -17 OFFCURVE",
"-120 -43 CURVE SMOOTH",
"-143 -46 OFFCURVE",
"-155 -66 OFFCURVE",
"-117 -59 CURVE SMOOTH"
);
}
);
width = 705;
}
);
note = H.001;
unicode = E011;
},
{
glyphname = I.001;
layers = (
{
hints = (
{
horizontal = 1;
place = "{545, -20}";
target = down;
type = TopGhost;
},
{
place = "{398, 34}";
type = Stem;
}
);
layerId = "E4C06A0B-08E3-4931-8B17-6F9B46D87BCD";
paths = (
{
closed = 1;
nodes = (
"145 535 OFFCURVE",
"265 548 OFFCURVE",
"372 505 CURVE",
"218 381 OFFCURVE",
"118 157 OFFCURVE",
"134 15 CURVE",
"87 7 OFFCURVE",
"45 -4 OFFCURVE",
"13 -17 CURVE SMOOTH",
"-11 -25 OFFCURVE",
"-4 -51 OFFCURVE",
"12 -46 CURVE SMOOTH",
"138 -11 LINE",
"141 -20 OFFCURVE",
"143 -29 OFFCURVE",
"146 -37 CURVE SMOOTH",
"157 -67 OFFCURVE",
"203 -113 OFFCURVE",
"259 -83 CURVE SMOOTH",
"278 -74 OFFCURVE",
"270 -65 OFFCURVE",
"255 -73 CURVE SMOOTH",
"208 -98 OFFCURVE",
"189 -42 OFFCURVE",
"181 -21 CURVE SMOOTH",
"178 -14 OFFCURVE",
"177 -7 OFFCURVE",
"176 -1 CURVE",
"224 11 OFFCURVE",
"273 21 OFFCURVE",
"321 26 CURVE SMOOTH",
"329 27 OFFCURVE",
"328 39 OFFCURVE",
"320 38 CURVE SMOOTH",
"280 35 OFFCURVE",
"227 29 OFFCURVE",
"172 21 CURVE",
"156 164 OFFCURVE",
"240 367 OFFCURVE",
"395 495 CURVE",
"412 487 OFFCURVE",
"428 477 OFFCURVE",
"443 465 CURVE SMOOTH",
"455 457 OFFCURVE",
"451 472 OFFCURVE",
"446 477 CURVE SMOOTH",
"434 487 OFFCURVE",
"421 496 OFFCURVE",
"407 504 CURVE",
"424 519 OFFCURVE",
"443 531 OFFCURVE",
"462 543 CURVE SMOOTH",
"483 556 OFFCURVE",
"458 561 OFFCURVE",
"447 555 CURVE SMOOTH",
"426 543 OFFCURVE",
"405 530 OFFCURVE",
"385 515 CURVE",
"273 568 OFFCURVE",
"123 556 OFFCURVE",
"70 497 CURVE SMOOTH",
"57 484 OFFCURVE",
"42 447 OFFCURVE",
"72 423 CURVE SMOOTH",
"81 415 OFFCURVE",
"84 421 OFFCURVE",
"76 428 CURVE SMOOTH",
"52 446 OFFCURVE",
"77 475 OFFCURVE",
"86 482 CURVE SMOOTH"
);
}
);
width = 375;
}
);
note = I.001;
unicode = E012;
},
{
glyphname = J.001;
layers = (
{
hints = (
{
horizontal = 1;
place = "{-53, 27}";
type = Stem;
},
{
place = "{583, 38}";
type = Stem;
}
);
layerId = "E4C06A0B-08E3-4931-8B17-6F9B46D87BCD";
paths = (
{
closed = 1;
nodes = (
"571 239 OFFCURVE",
"621 334 OFFCURVE",
"621 423 CURVE SMOOTH",
"621 604 OFFCURVE",
"375 567 OFFCURVE",
"265 522 CURVE SMOOTH",
"177 490 OFFCURVE",
"92 433 OFFCURVE",
"58 373 CURVE SMOOTH",
"43 346 OFFCURVE",
"35 311 OFFCURVE",
"48 276 CURVE SMOOTH",
"78 195 OFFCURVE",
"189 198 OFFCURVE",
"250 203 CURVE SMOOTH",
"281 207 OFFCURVE",
"312 213 OFFCURVE",
"341 222 CURVE SMOOTH",
"364 229 OFFCURVE",
"396 242 OFFCURVE",
"427 258 CURVE SMOOTH",
"475 285 OFFCURVE",
"440 287 OFFCURVE",
"418 276 CURVE SMOOTH",
"369 248 OFFCURVE",
"301 230 OFFCURVE",
"265 227 CURVE SMOOTH",
"213 222 OFFCURVE",
"93 223 OFFCURVE",
"69 292 CURVE SMOOTH",
"58 319 OFFCURVE",
"67 343 OFFCURVE",
"78 362 CURVE SMOOTH",
"112 428 OFFCURVE",
"191 474 OFFCURVE",
"272 504 CURVE SMOOTH",
"377 544 OFFCURVE",
"583 592 OFFCURVE",
"583 415 CURVE SMOOTH",
"583 331 OFFCURVE",
"535 237 OFFCURVE",
"484 173 CURVE",
"433 173 OFFCURVE",
"380 169 OFFCURVE",
"329 158 CURVE SMOOTH",
"252 142 OFFCURVE",
"164 111 OFFCURVE",
"103 59 CURVE SMOOTH",
"83 43 OFFCURVE",
"57 15 OFFCURVE",
"57 -12 CURVE SMOOTH",
"57 -47 OFFCURVE",
"95 -53 OFFCURVE",
"122 -53 CURVE SMOOTH",
"145 -53 OFFCURVE",
"166 -49 OFFCURVE",
"189 -44 CURVE SMOOTH",
"310 -16 OFFCURVE",
"424 61 OFFCURVE",
"504 156 CURVE",
"515 156 OFFCURVE",
"567 152 OFFCURVE",
"567 136 CURVE SMOOTH",
"567 131 LINE SMOOTH",
"567 128 OFFCURVE",
"569 126 OFFCURVE",
"573 126 CURVE SMOOTH",
"580 126 OFFCURVE",
"584 130 OFFCURVE",
"584 139 CURVE SMOOTH",
"584 166 OFFCURVE",
"536 169 OFFCURVE",
"517 172 CURVE"
);
},
{
closed = 1;
nodes = (
"58 -26 OFFCURVE",
"96 18 OFFCURVE",
"124 46 CURVE SMOOTH",
"180 102 OFFCURVE",
"257 130 OFFCURVE",
"332 145 CURVE SMOOTH",
"377 154 OFFCURVE",
"423 157 OFFCURVE",
"470 157 CURVE",
"398 72 OFFCURVE",
"301 8 OFFCURVE",
"193 -19 CURVE SMOOTH",
"173 -24 OFFCURVE",
"152 -26 OFFCURVE",
"132 -26 CURVE SMOOTH"
);
}
);
width = 606;
}
);
note = J.001;
unicode = E013;
},
{
glyphname = K.001;
layers = (
{
hints = (
{
horizontal = 1;
place = "{589, -20}";
target = down;
type = TopGhost;
},
{
place = "{422, 35}";
type = Stem;
}
);
layerId = "E4C06A0B-08E3-4931-8B17-6F9B46D87BCD";
paths = (
{
closed = 1;
nodes = (
"4 -78 OFFCURVE",
"76 -23 OFFCURVE",
"145 41 CURVE SMOOTH",
"227 115 OFFCURVE",
"308 206 OFFCURVE",
"342 245 CURVE",
"358 165 OFFCURVE",
"398 21 OFFCURVE",
"467 -27 CURVE SMOOTH",
"479 -36 OFFCURVE",
"491 -40 OFFCURVE",
"504 -40 CURVE SMOOTH",
"552 -40 OFFCURVE",
"578 21 OFFCURVE",
"591 58 CURVE",
"592 59 OFFCURVE",
"592 60 OFFCURVE",
"592 61 CURVE SMOOTH",
"592 66 OFFCURVE",
"589 69 OFFCURVE",
"583 69 CURVE SMOOTH",
"580 69 OFFCURVE",
"577 67 OFFCURVE",
"576 63 CURVE",
"563 35 OFFCURVE",
"545 -23 OFFCURVE",
"505 -23 CURVE SMOOTH",
"498 -23 OFFCURVE",
"490 -20 OFFCURVE",
"483 -15 CURVE SMOOTH",
"422 28 OFFCURVE",
"384 205 OFFCURVE",
"368 277 CURVE",
"394 312 LINE SMOOTH",
"409 335 OFFCURVE",
"706 522 OFFCURVE",
"749 542 CURVE SMOOTH",
"792 563 OFFCURVE",
"775 586 OFFCURVE",
"743 570 CURVE SMOOTH",
"620 506 OFFCURVE",
"500 412 OFFCURVE",
"420 359 CURVE",
"444 394 OFFCURVE",
"457 441 OFFCURVE",
"457 477 CURVE SMOOTH",
"457 569 OFFCURVE",
"369 589 OFFCURVE",
"294 589 CURVE SMOOTH",
"261 589 OFFCURVE",
"249 572 OFFCURVE",
"284 572 CURVE SMOOTH",
"352 572 OFFCURVE",
"422 548 OFFCURVE",
"422 469 CURVE SMOOTH",
"422 422 OFFCURVE",
"399 373 OFFCURVE",
"376 334 CURVE",
"359 321 LINE",
"358 329 OFFCURVE",
"358 342 OFFCURVE",
"347 342 CURVE SMOOTH",
"336 342 OFFCURVE",
"330 330 OFFCURVE",
"330 319 CURVE SMOOTH",
"330 308 OFFCURVE",
"335 282 OFFCURVE",
"336 275 CURVE",
"304 232 OFFCURVE",
"218 138 OFFCURVE",
"136 61 CURVE SMOOTH",
"86 13 OFFCURVE",
"2 -57 OFFCURVE",
"-51 -57 CURVE SMOOTH",
"-114 -57 OFFCURVE",
"-76 -91 OFFCURVE",
"-36 -86 CURVE SMOOTH"
);
}
);
width = 581;
}
);
note = K.001;
unicode = E014;
},
{
glyphname = L.001;
layers = (
{
hints = (
{
horizontal = 1;
place = "{-86, 21}";
target = up;
type = BottomGhost;
},
{
horizontal = 1;
place = "{544, 23}";
type = Stem;
},
{
place = "{763, 22}";
type = Stem;
}
);
layerId = "E4C06A0B-08E3-4931-8B17-6F9B46D87BCD";
paths = (
{
closed = 1;
nodes = (
"785 534 OFFCURVE",
"754 567 OFFCURVE",
"707 567 CURVE SMOOTH",
"675 567 OFFCURVE",
"647 551 OFFCURVE",
"623 531 CURVE SMOOTH",
"579 492 OFFCURVE",
"542 436 OFFCURVE",
"509 388 CURVE SMOOTH",
"470 332 OFFCURVE",
"435 278 OFFCURVE",
"394 223 CURVE SMOOTH",
"377 200 OFFCURVE",
"360 178 OFFCURVE",
"341 157 CURVE SMOOTH",
"298 106 OFFCURVE",
"249 61 OFFCURVE",
"193 29 CURVE SMOOTH",
"185 24 OFFCURVE",
"173 17 OFFCURVE",
"164 14 CURVE SMOOTH",
"156 11 OFFCURVE",
"139 10 OFFCURVE",
"128 9 CURVE SMOOTH",
"93 4 OFFCURVE",
"46 -4 OFFCURVE",
"14 -16 CURVE SMOOTH",
"3 -20 OFFCURVE",
"-14 -26 OFFCURVE",
"-14 -41 CURVE SMOOTH",
"-14 -57 OFFCURVE",
"8 -64 OFFCURVE",
"20 -64 CURVE SMOOTH",
"26 -64 LINE",
"91 -56 OFFCURVE",
"124 -35 OFFCURVE",
"180 1 CURVE",
"261 12 OFFCURVE",
"367 20 OFFCURVE",
"450 20 CURVE SMOOTH",
"481 20 OFFCURVE",
"512 19 OFFCURVE",
"543 15 CURVE SMOOTH",
"580 10 OFFCURVE",
"654 -3 OFFCURVE",
"681 -35 CURVE SMOOTH",
"686 -42 OFFCURVE",
"692 -48 OFFCURVE",
"692 -57 CURVE SMOOTH",
"692 -72 OFFCURVE",
"679 -71 OFFCURVE",
"679 -79 CURVE SMOOTH",
"679 -84 OFFCURVE",
"681 -86 OFFCURVE",
"686 -86 CURVE SMOOTH",
"702 -86 OFFCURVE",
"714 -56 OFFCURVE",
"714 -43 CURVE SMOOTH",
"714 -31 OFFCURVE",
"710 -25 OFFCURVE",
"703 -16 CURVE SMOOTH",
"664 34 OFFCURVE",
"547 37 OFFCURVE",
"488 37 CURVE SMOOTH",
"401 37 OFFCURVE",
"294 26 OFFCURVE",
"209 17 CURVE",
"281 59 OFFCURVE",
"371 152 OFFCURVE",
"430 228 CURVE SMOOTH",
"463 271 OFFCURVE",
"494 315 OFFCURVE",
"526 359 CURVE SMOOTH",
"551 395 OFFCURVE",
"577 430 OFFCURVE",
"606 465 CURVE SMOOTH",
"632 496 OFFCURVE",
"682 544 OFFCURVE",
"726 544 CURVE SMOOTH",
"751 544 OFFCURVE",
"763 527 OFFCURVE",
"763 504 CURVE SMOOTH",
"763 429 OFFCURVE",
"695 347 OFFCURVE",
"652 323 CURVE SMOOTH",
"637 315 OFFCURVE",
"641 305 OFFCURVE",
"656 310 CURVE SMOOTH",
"716 330 OFFCURVE",
"785 427 OFFCURVE",
"785 487 CURVE SMOOTH"
);
}
);
width = 728;
}
);
note = L.001;
unicode = E015;
},
{
glyphname = M.001;
layers = (
{
hints = (
{
horizontal = 1;
place = "{-83, 21}";
target = up;
type = BottomGhost;
},
{
horizontal = 1;
place = "{-56, 27}";
type = Stem;
},
{
place = "{302, 38}";
type = Stem;
},
{
place = "{493, 107}";
type = Stem;
},
{
place = "{493, 26}";
type = Stem;
},
{
place = "{493, 45}";
type = Stem;
}
);
layerId = "E4C06A0B-08E3-4931-8B17-6F9B46D87BCD";
paths = (
{
closed = 1;
nodes = (
"500 233 OFFCURVE",
"493 173 OFFCURVE",
"493 116 CURVE SMOOTH",
"493 40 OFFCURVE",
"504 -34 OFFCURVE",
"533 -50 CURVE SMOOTH",
"540 -53 OFFCURVE",
"545 -56 OFFCURVE",
"552 -56 CURVE SMOOTH",
"578 -56 OFFCURVE",
"600 -19 OFFCURVE",
"600 5 CURVE SMOOTH",
"600 8 OFFCURVE",
"599 15 OFFCURVE",
"595 15 CURVE SMOOTH",
"588 15 OFFCURVE",
"589 -29 OFFCURVE",
"557 -29 CURVE SMOOTH",
"553 -29 OFFCURVE",
"550 -28 OFFCURVE",
"548 -27 CURVE SMOOTH",
"529 -15 OFFCURVE",
"520 44 OFFCURVE",
"519 115 CURVE SMOOTH",
"519 189 OFFCURVE",
"521 278 OFFCURVE",
"523 301 CURVE",
"530 316 OFFCURVE",
"538 332 OFFCURVE",
"538 348 CURVE SMOOTH",
"538 359 OFFCURVE",
"534 375 OFFCURVE",
"522 375 CURVE SMOOTH",
"502 375 OFFCURVE",
"495 335 OFFCURVE",
"495 320 CURVE SMOOTH",
"495 313 OFFCURVE",
"496 305 OFFCURVE",
"497 298 CURVE",
"470 245 OFFCURVE",
"415 106 OFFCURVE",
"377 71 CURVE",
"376 71 OFFCURVE",
"372 66 OFFCURVE",
"369 66 CURVE SMOOTH",
"362 66 OFFCURVE",
"361 101 OFFCURVE",
"361 106 CURVE SMOOTH",
"360 145 OFFCURVE",
"362 182 OFFCURVE",
"358 221 CURVE SMOOTH",
"355 244 OFFCURVE",
"354 289 OFFCURVE",
"324 294 CURVE",
"319 294 LINE SMOOTH",
"286 294 OFFCURVE",
"243 262 OFFCURVE",
"218 243 CURVE",
"261 325 OFFCURVE",
"340 466 OFFCURVE",
"340 559 CURVE SMOOTH",
"340 603 OFFCURVE",
"302 585 OFFCURVE",
"302 553 CURVE SMOOTH",
"302 476 OFFCURVE",
"227 315 OFFCURVE",
"192 247 CURVE SMOOTH",
"185 234 OFFCURVE",
"173 208 OFFCURVE",
"166 197 CURVE",
"116 135 OFFCURVE",
"12 28 OFFCURVE",
"-28 -65 CURVE SMOOTH",
"-33 -76 OFFCURVE",
"-22 -83 OFFCURVE",
"-10 -83 CURVE SMOOTH",
"31 -83 OFFCURVE",
"142 106 OFFCURVE",
"161 140 CURVE SMOOTH",
"179 173 OFFCURVE",
"190 192 OFFCURVE",
"210 212 CURVE",
"231 228 OFFCURVE",
"279 268 OFFCURVE",
"308 268 CURVE SMOOTH",
"309 268 OFFCURVE",
"310 268 OFFCURVE",
"311 267 CURVE",
"328 261 OFFCURVE",
"327 220 OFFCURVE",
"327 206 CURVE SMOOTH",
"330 169 OFFCURVE",
"326 132 OFFCURVE",
"330 95 CURVE",
"330 80 OFFCURVE",
"335 38 OFFCURVE",
"356 38 CURVE SMOOTH",
"360 38 OFFCURVE",
"363 38 OFFCURVE",
"365 39 CURVE SMOOTH",
"401 55 OFFCURVE",
"480 218 OFFCURVE",
"503 260 CURVE"
);
}
);
width = 623;
}
);
note = M.001;
unicode = E016;
},
{
glyphname = N.001;
layers = (
{
hints = (
{
horizontal = 1;
place = "{-124, 21}";
target = up;
type = BottomGhost;
},
{
horizontal = 1;
place = "{-1, 22}";
type = Stem;
},
{
horizontal = 1;
place = "{629, -20}";
target = down;
type = TopGhost;
},
{
place = "{279, 36}";
type = Stem;
},
{
place = "{361, 112}";
type = Stem;
},
{
place = "{361, 22}";
type = Stem;
}
);
layerId = "E4C06A0B-08E3-4931-8B17-6F9B46D87BCD";
paths = (
{
closed = 1;
nodes = (
"458 -1 OFFCURVE",
"473 75 OFFCURVE",
"473 106 CURVE SMOOTH",
"473 117 OFFCURVE",
"470 173 OFFCURVE",
"453 173 CURVE SMOOTH",
"449 173 OFFCURVE",
"447 171 OFFCURVE",
"447 167 CURVE SMOOTH",
"447 160 OFFCURVE",
"454 156 OFFCURVE",
"454 139 CURVE SMOOTH",
"454 115 OFFCURVE",
"435 21 OFFCURVE",
"406 21 CURVE SMOOTH",
"387 21 OFFCURVE",
"383 62 OFFCURVE",
"383 75 CURVE SMOOTH",
"383 150 OFFCURVE",
"421 260 OFFCURVE",
"445 330 CURVE",
"452 346 OFFCURVE",
"456 364 OFFCURVE",
"456 381 CURVE SMOOTH",
"456 396 OFFCURVE",
"452 414 OFFCURVE",
"435 414 CURVE SMOOTH",
"418 414 OFFCURVE",
"402 394 OFFCURVE",
"391 382 CURVE SMOOTH",
"338 315 OFFCURVE",
"282 254 OFFCURVE",
"226 190 CURVE SMOOTH",
"178 135 OFFCURVE",
"130 81 OFFCURVE",
"75 33 CURVE SMOOTH",
"52 12 LINE",
"125 121 OFFCURVE",
"315 412 OFFCURVE",
"315 540 CURVE SMOOTH",
"315 610 OFFCURVE",
"267 629 OFFCURVE",
"206 629 CURVE SMOOTH",
"185 629 OFFCURVE",
"163 609 OFFCURVE",
"197 609 CURVE SMOOTH",
"248 609 OFFCURVE",
"279 590 OFFCURVE",
"279 535 CURVE SMOOTH",
"279 481 OFFCURVE",
"249 408 OFFCURVE",
"225 361 CURVE SMOOTH",
"174 253 OFFCURVE",
"115 152 OFFCURVE",
"47 55 CURVE SMOOTH",
"8 2 OFFCURVE",
"-30 -50 OFFCURVE",
"-75 -97 CURVE SMOOTH",
"-79 -101 OFFCURVE",
"-84 -106 OFFCURVE",
"-84 -113 CURVE SMOOTH",
"-84 -121 OFFCURVE",
"-76 -124 OFFCURVE",
"-69 -124 CURVE SMOOTH",
"-50 -124 OFFCURVE",
"-35 -106 OFFCURVE",
"-24 -91 CURVE SMOOTH",
"-9 -73 LINE SMOOTH",
"-1 -64 OFFCURVE",
"8 -56 OFFCURVE",
"17 -48 CURVE SMOOTH",
"40 -25 OFFCURVE",
"64 -5 OFFCURVE",
"88 18 CURVE SMOOTH",
"144 67 OFFCURVE",
"192 121 OFFCURVE",
"241 177 CURVE SMOOTH",
"298 241 OFFCURVE",
"354 303 OFFCURVE",
"407 370 CURVE SMOOTH",
"408 371 OFFCURVE",
"415 381 OFFCURVE",
"418 381 CURVE SMOOTH",
"419 381 OFFCURVE",
"420 380 OFFCURVE",
"420 377 CURVE SMOOTH",
"420 364 OFFCURVE",
"407 327 OFFCURVE",
"402 313 CURVE SMOOTH",
"379 248 OFFCURVE",
"361 167 OFFCURVE",
"361 98 CURVE SMOOTH",
"361 79 OFFCURVE",
"361 60 OFFCURVE",
"368 41 CURVE SMOOTH",
"375 20 OFFCURVE",
"392 -1 OFFCURVE",
"416 -1 CURVE SMOOTH"
);
}
);
width = 488;
}
);
note = N.001;
unicode = E017;
},
{
glyphname = O.001;
layers = (
{
hints = (
{
horizontal = 1;
place = "{-120, 21}";
type = Stem;
},
{
horizontal = 1;
place = "{493, 23}";
type = Stem;
},
{
place = "{27, 33}";
type = Stem;
},
{
place = "{685, 45}";
type = Stem;
}
);
layerId = "E4C06A0B-08E3-4931-8B17-6F9B46D87BCD";
paths = (
{
closed = 1;
nodes = (
"244 -120 OFFCURVE",
"274 -117 OFFCURVE",
"302 -110 CURVE SMOOTH",
"483 -74 OFFCURVE",
"730 77 OFFCURVE",
"730 283 CURVE SMOOTH",
"730 423 OFFCURVE",
"615 516 OFFCURVE",
"481 516 CURVE SMOOTH",
"309 516 OFFCURVE",
"96 334 OFFCURVE",
"80 162 CURVE",
"52 121 OFFCURVE",
"27 70 OFFCURVE",
"27 19 CURVE SMOOTH",
"27 -82 OFFCURVE",
"127 -120 OFFCURVE",
"215 -120 CURVE SMOOTH"
);
},
{
closed = 1;
nodes = (
"144 350 OFFCURVE",
"327 493 OFFCURVE",
"479 493 CURVE SMOOTH",
"600 493 OFFCURVE",
"685 413 OFFCURVE",
"685 290 CURVE SMOOTH",
"685 239 OFFCURVE",
"671 188 OFFCURVE",
"644 145 CURVE SMOOTH",
"568 18 OFFCURVE",
"437 -55 OFFCURVE",
"297 -88 CURVE SMOOTH",
"266 -95 OFFCURVE",
"237 -99 OFFCURVE",
"208 -99 CURVE SMOOTH",
"136 -99 OFFCURVE",
"60 -69 OFFCURVE",
"60 15 CURVE SMOOTH",
"60 46 OFFCURVE",
"70 76 OFFCURVE",
"82 103 CURVE",
"87 83 OFFCURVE",
"95 61 OFFCURVE",
"103 141 CURVE",
"124 176 OFFCURVE",
"151 211 OFFCURVE",
"186 243 CURVE SMOOTH",
"200 254 OFFCURVE",
"191 279 OFFCURVE",
"172 263 CURVE SMOOTH",
"148 244 OFFCURVE",
"128 222 OFFCURVE",
"109 201 CURVE"
);
}
);
width = 734;
}
);
note = O.001;
unicode = E018;
},
{
glyphname = P.001;
layers = (
{
hints = (
{
horizontal = 1;
place = "{588, 20}";
type = Stem;
},
{
place = "{922, 44}";
type = Stem;
}
);
layerId = "E4C06A0B-08E3-4931-8B17-6F9B46D87BCD";
paths = (
{
closed = 1;
nodes = (
"476 107 OFFCURVE",
"684 137 OFFCURVE",
"755 263 CURVE SMOOTH",
"776 300 OFFCURVE",
"790 342 OFFCURVE",
"790 388 CURVE SMOOTH",
"790 421 OFFCURVE",
"783 450 OFFCURVE",
"769 477 CURVE SMOOTH",
"730 557 OFFCURVE",
"647 579 OFFCURVE",
"579 579 CURVE SMOOTH",
"560 579 OFFCURVE",
"541 576 OFFCURVE",
"521 574 CURVE",
"322 539 OFFCURVE",
"112 347 OFFCURVE",
"36 100 CURVE SMOOTH",
"-7 -45 OFFCURVE",
"20 -182 OFFCURVE",
"168 -86 CURVE SMOOTH",
"238 -42 OFFCURVE",
"315 60 OFFCURVE",
"360 141 CURVE"
);
},
{
closed = 1;
nodes = (
"31 -138 OFFCURVE",
"34 -26 OFFCURVE",
"58 60 CURVE SMOOTH",
"116 265 OFFCURVE",
"288 461 OFFCURVE",
"445 530 CURVE SMOOTH",
"471 540 OFFCURVE",
"497 548 OFFCURVE",
"524 554 CURVE SMOOTH",
"543 557 OFFCURVE",
"561 558 OFFCURVE",
"580 558 CURVE SMOOTH",
"656 558 OFFCURVE",
"754 524 OFFCURVE",
"754 402 CURVE SMOOTH",
"754 359 OFFCURVE",
"740 313 OFFCURVE",
"719 278 CURVE SMOOTH",
"652 164 OFFCURVE",
"478 139 OFFCURVE",
"373 165 CURVE",
"380 179 OFFCURVE",
"462 332 OFFCURVE",
"476 448 CURVE SMOOTH",
"482 502 OFFCURVE",
"458 476 OFFCURVE",
"454 449 CURVE SMOOTH",
"438 334 OFFCURVE",
"360 201 OFFCURVE",
"336 150 CURVE",
"284 68 OFFCURVE",
"208 -19 OFFCURVE",
"136 -68 CURVE SMOOTH"
);
}
);
width = 780;
}
);
note = P.001;
unicode = E019;
},
{
glyphname = Q.001;
layers = (
{
hints = (
{
horizontal = 1;
place = "{-232, 28}";
type = Stem;
},
{
horizontal = 1;
place = "{-43, 22}";
type = Stem;
},
{
horizontal = 1;
place = "{-43, 156}";
type = Stem;
},
{
horizontal = 1;
place = "{449, 51}";
type = Stem;
},
{
place = "{9, 26}";
type = Stem;
},
{
place = "{491, 33}";
type = Stem;
},
{
place = "{571, 28}";
type = Stem;
}
);
layerId = "E4C06A0B-08E3-4931-8B17-6F9B46D87BCD";
paths = (
{
closed = 1;
nodes = (
"500 -68 OFFCURVE",
"697 55 OFFCURVE",
"751 258 CURVE SMOOTH",
"757 280 OFFCURVE",
"760 303 OFFCURVE",
"760 329 CURVE SMOOTH",
"760 455 OFFCURVE",
"664 540 OFFCURVE",
"530 540 CURVE SMOOTH",
"439 540 OFFCURVE",
"350 498 OFFCURVE",
"284 441 CURVE SMOOTH",
"274 431 OFFCURVE",
"263 421 OFFCURVE",
"254 411 CURVE SMOOTH",
"241 395 LINE",
"231 387 OFFCURVE",
"220 383 OFFCURVE",
"211 374 CURVE",
"194 362 OFFCURVE",
"178 348 OFFCURVE",
"161 335 CURVE",
"89 271 OFFCURVE",
"21 182 OFFCURVE",
"21 83 CURVE SMOOTH",
"21 55 OFFCURVE",
"26 28 OFFCURVE",
"37 -2 CURVE SMOOTH",
"69 -75 OFFCURVE",
"160 -92 OFFCURVE",
"233 -92 CURVE SMOOTH",
"246 -92 LINE",
"298 -185 OFFCURVE",
"433 -312 OFFCURVE",
"521 -312 CURVE SMOOTH",
"607 -312 OFFCURVE",
"647 -232 OFFCURVE",
"647 -162 CURVE SMOOTH",
"647 -145 OFFCURVE",
"646 -126 OFFCURVE",
"641 -109 CURVE SMOOTH",
"640 -103 OFFCURVE",
"636 -100 OFFCURVE",
"630 -100 CURVE SMOOTH",
"625 -100 OFFCURVE",
"624 -107 OFFCURVE",
"625 -113 CURVE SMOOTH",
"629 -139 OFFCURVE",
"629 -151 OFFCURVE",
"629 -170 CURVE SMOOTH",
"629 -227 OFFCURVE",
"595 -286 OFFCURVE",
"525 -286 CURVE SMOOTH",
"451 -286 OFFCURVE",
"321 -173 OFFCURVE",
"282 -90 CURVE"
);
},
{
closed = 1;
nodes = (
"367 440 OFFCURVE",
"455 480 OFFCURVE",
"537 480 CURVE SMOOTH",
"567 480 OFFCURVE",
"635 469 OFFCURVE",
"635 431 CURVE SMOOTH",
"635 420 OFFCURVE",
"665 397 OFFCURVE",
"665 424 CURVE SMOOTH",
"665 479 OFFCURVE",
"583 500 OFFCURVE",
"537 500 CURVE SMOOTH",
"463 500 OFFCURVE",
"383 472 OFFCURVE",
"319 441 CURVE",
"376 487 OFFCURVE",
"449 520 OFFCURVE",
"528 520 CURVE SMOOTH",
"647 520 OFFCURVE",
"724 452 OFFCURVE",
"724 341 CURVE SMOOTH",
"724 314 OFFCURVE",
"721 291 OFFCURVE",
"715 266 CURVE SMOOTH",
"673 113 OFFCURVE",
"550 15 OFFCURVE",
"394 -36 CURVE SMOOTH",
"352 -50 OFFCURVE",
"311 -60 OFFCURVE",
"266 -64 CURVE",
"248 -35 OFFCURVE",
"232 -7 OFFCURVE",
"216 24 CURVE SMOOTH",
"193 69 LINE SMOOTH",
"187 79 OFFCURVE",
"179 89 OFFCURVE",
"165 89 CURVE SMOOTH",
"144 89 OFFCURVE",
"108 53 OFFCURVE",
"108 39 CURVE SMOOTH",
"108 33 OFFCURVE",
"113 30 OFFCURVE",
"120 30 CURVE SMOOTH",
"134 30 OFFCURVE",
"139 57 OFFCURVE",
"150 57 CURVE SMOOTH",
"156 57 OFFCURVE",
"160 46 OFFCURVE",
"163 43 CURVE",
"187 4 LINE",
"198 -18 OFFCURVE",
"211 -42 OFFCURVE",
"227 -67 CURVE",
"122 -68 OFFCURVE",
"54 -29 OFFCURVE",
"54 69 CURVE SMOOTH",
"54 171 OFFCURVE",
"142 272 OFFCURVE",
"230 344 CURVE",
"246 316 OFFCURVE",
"294 387 OFFCURVE",
"297 394 CURVE"
);
}
);
width = 766;
}
);
note = Q.001;
unicode = E01A;
},
{
glyphname = R.001;
layers = (
{
hints = (
{
place = "{500, 40}";
type = Stem;
}
);
layerId = "E4C06A0B-08E3-4931-8B17-6F9B46D87BCD";
paths = (
{
closed = 1;
nodes = (
"355 75 OFFCURVE",
"378 0 OFFCURVE",
"499 0 CURVE SMOOTH",
"541 0 OFFCURVE",
"546 21 OFFCURVE",
"508 13 CURVE SMOOTH",
"406 -10 OFFCURVE",
"355 126 OFFCURVE",
"329 194 CURVE SMOOTH",
"313 233 OFFCURVE",
"296 267 OFFCURVE",
"269 274 CURVE",
"385 287 OFFCURVE",
"540 325 OFFCURVE",
"540 417 CURVE SMOOTH",
"540 487 OFFCURVE",
"471 518 OFFCURVE",
"400 534 CURVE",
"397 537 OFFCURVE",
"391 538 OFFCURVE",
"383 537 CURVE",
"301 550 OFFCURVE",
"171 555 OFFCURVE",
"89 528 CURVE SMOOTH",
"55 518 OFFCURVE",
"63 494 OFFCURVE",
"92 507 CURVE SMOOTH",
"158 536 OFFCURVE",
"285 529 OFFCURVE",
"357 521 CURVE",
"306 481 OFFCURVE",
"199 359 OFFCURVE",
"170 311 CURVE",
"144 303 OFFCURVE",
"126 281 OFFCURVE",
"144 273 CURVE",
"95 200 OFFCURVE",
"54 125 OFFCURVE",
"35 62 CURVE SMOOTH",
"28 43 OFFCURVE",
"23 18 OFFCURVE",
"22 -2 CURVE SMOOTH",
"22 -15 OFFCURVE",
"39 -16 OFFCURVE",
"42 0 CURVE SMOOTH",
"45 17 OFFCURVE",
"47 33 OFFCURVE",
"54 50 CURVE SMOOTH",
"75 110 OFFCURVE",
"122 188 OFFCURVE",
"178 268 CURVE",
"193 268 OFFCURVE",
"208 266 OFFCURVE",
"231 269 CURVE",
"263 258 OFFCURVE",
"287 216 OFFCURVE",
"310 168 CURVE SMOOTH"
);
},
{
closed = 1;
nodes = (
"197 296 LINE",
"267 392 OFFCURVE",
"342 480 OFFCURVE",
"386 517 CURVE",
"448 506 OFFCURVE",
"500 481 OFFCURVE",
"500 419 CURVE SMOOTH",
"500 328 OFFCURVE",
"340 292 OFFCURVE",
"237 284 CURVE"
);
}
);
width = 549;
}
);
note = R.001;
unicode = E01B;
},
{
glyphname = S.001;
layers = (
{
hints = (
{
horizontal = 1;
place = "{571, 26}";
type = Stem;
}
);
layerId = "E4C06A0B-08E3-4931-8B17-6F9B46D87BCD";
paths = (
{
closed = 1;
nodes = (
"499 523 OFFCURVE",
"494 557 OFFCURVE",
"466 577 CURVE SMOOTH",
"446 592 OFFCURVE",
"410 597 OFFCURVE",
"383 597 CURVE SMOOTH",
"155 597 OFFCURVE",
"-52 411 OFFCURVE",
"169 242 CURVE SMOOTH",
"193 223 OFFCURVE",
"241 177 OFFCURVE",
"257 158 CURVE SMOOTH",
"289 118 OFFCURVE",
"284 72 OFFCURVE",
"265 47 CURVE SMOOTH",
"226 -3 OFFCURVE",
"95 -22 OFFCURVE",
"49 27 CURVE SMOOTH",
"25 54 OFFCURVE",
"26 98 OFFCURVE",
"48 122 CURVE SMOOTH",
"57 133 OFFCURVE",
"55 144 OFFCURVE",
"36 129 CURVE",
"29 122 OFFCURVE",
"21 112 OFFCURVE",
"17 97 CURVE SMOOTH",
"-20 -29 OFFCURVE",
"144 -46 OFFCURVE",
"222 -3 CURVE SMOOTH",
"265 21 OFFCURVE",
"302 62 OFFCURVE",
"302 113 CURVE SMOOTH",
"302 175 OFFCURVE",
"231 225 OFFCURVE",
"190 258 CURVE SMOOTH",
"-2 410 OFFCURVE",
"189 571 OFFCURVE",
"389 571 CURVE SMOOTH",
"465 571 OFFCURVE",
"488 535 OFFCURVE",
"455 494 CURVE",
"451 487 OFFCURVE",
"436 477 OFFCURVE",
"429 473 CURVE SMOOTH",
"418 468 OFFCURVE",
"427 464 OFFCURVE",
"430 465 CURVE SMOOTH",
"442 469 OFFCURVE",
"459 480 OFFCURVE",
"467 488 CURVE SMOOTH"
);
}
);
width = 349;
}
);
note = S.001;
unicode = E01C;
},
{
glyphname = T.001;
layers = (
{
hints = (
{
horizontal = 1;
place = "{-22, 21}";
type = Stem;
},
{
horizontal = 1;
place = "{583, 31}";
type = Stem;
},
{
place = "{799, 26}";
type = Stem;
},
{
horizontal = 1;
place = "{511, 103}";
type = Stem;
}
);
layerId = "E4C06A0B-08E3-4931-8B17-6F9B46D87BCD";
paths = (
{
closed = 1;
nodes = (
"799 415 OFFCURVE",
"825 451 OFFCURVE",
"825 459 CURVE SMOOTH",
"825 529 OFFCURVE",
"619 530 OFFCURVE",
"570 530 CURVE",
"576 542 OFFCURVE",
"592 583 OFFCURVE",
"608 583 CURVE SMOOTH",
"619 583 OFFCURVE",
"621 563 OFFCURVE",
"621 556 CURVE SMOOTH",
"621 551 OFFCURVE",
"623 548 OFFCURVE",
"627 548 CURVE SMOOTH",
"634 548 OFFCURVE",
"638 554 OFFCURVE",
"638 561 CURVE SMOOTH",
"638 583 OFFCURVE",
"628 614 OFFCURVE",
"601 614 CURVE SMOOTH",
"567 614 OFFCURVE",
"544 553 OFFCURVE",
"534 530 CURVE",
"403 527 OFFCURVE",
"218 509 OFFCURVE",
"97 458 CURVE SMOOTH",
"66 446 OFFCURVE",
"19 419 OFFCURVE",
"0 391 CURVE SMOOTH",
"-4 384 OFFCURVE",
"-8 376 OFFCURVE",
"-8 367 CURVE SMOOTH",
"-8 332 OFFCURVE",
"1 357 OFFCURVE",
"34 384 CURVE SMOOTH",
"58 403 OFFCURVE",
"101 420 OFFCURVE",
"121 428 CURVE SMOOTH",
"248 480 OFFCURVE",
"390 507 OFFCURVE",
"527 511 CURVE",
"514 478 OFFCURVE",
"504 444 OFFCURVE",
"495 411 CURVE SMOOTH",
"458 286 OFFCURVE",
"376 42 OFFCURVE",
"237 2 CURVE SMOOTH",
"230 0 OFFCURVE",
"222 -1 OFFCURVE",
"215 -1 CURVE SMOOTH",
"178 -1 OFFCURVE",
"169 32 OFFCURVE",
"169 63 CURVE SMOOTH",
"169 105 OFFCURVE",
"187 170 OFFCURVE",
"217 202 CURVE SMOOTH",
"221 207 OFFCURVE",
"225 210 OFFCURVE",
"229 214 CURVE SMOOTH",
"234 218 OFFCURVE",
"239 222 OFFCURVE",
"239 229 CURVE SMOOTH",
"239 233 OFFCURVE",
"237 235 OFFCURVE",
"234 235 CURVE SMOOTH",
"232 235 OFFCURVE",
"231 235 OFFCURVE",
"230 234 CURVE",
"174 205 OFFCURVE",
"144 127 OFFCURVE",
"144 67 CURVE SMOOTH",
"144 23 OFFCURVE",
"162 -22 OFFCURVE",
"213 -22 CURVE SMOOTH",
"222 -22 OFFCURVE",
"232 -20 OFFCURVE",
"243 -17 CURVE SMOOTH",
"391 26 OFFCURVE",
"482 249 OFFCURVE",
"522 383 CURVE SMOOTH",
"535 426 OFFCURVE",
"547 468 OFFCURVE",
"563 511 CURVE",
"609 511 OFFCURVE",
"744 505 OFFCURVE",
"781 486 CURVE SMOOTH",
"792 481 OFFCURVE",
"799 475 OFFCURVE",
"799 463 CURVE SMOOTH"
);
}
);
width = 574;
}
);
note = T.001;
unicode = E01D;
},
{
glyphname = U.001;
layers = (
{
hints = (
{
horizontal = 1;
place = "{-142, 20}";
type = Stem;
},
{
horizontal = 1;
place = "{630, 20}";
type = Stem;
},
{
place = "{12, 20}";
type = Stem;
},
{
place = "{336, 35}";
type = Stem;
},
{
place = "{349, 36}";
type = Stem;
}
);
layerId = "E4C06A0B-08E3-4931-8B17-6F9B46D87BCD";
paths = (
{
closed = 1;
nodes = (
"336 -78 OFFCURVE",
"364 -68 OFFCURVE",
"361 -45 CURVE SMOOTH",
"347 64 OFFCURVE",
"444 220 OFFCURVE",
"505 310 CURVE SMOOTH",
"515 325 OFFCURVE",
"538 360 OFFCURVE",
"538 378 CURVE SMOOTH",
"538 385 OFFCURVE",
"536 390 OFFCURVE",
"529 390 CURVE SMOOTH",
"516 390 OFFCURVE",
"502 376 OFFCURVE",
"488 359 CURVE SMOOTH",
"447 309 OFFCURVE",
"411 244 OFFCURVE",
"391 185 CURVE",
"333 98 OFFCURVE",
"167 -14 OFFCURVE",
"68 -14 CURVE SMOOTH",
"59 -14 OFFCURVE",
"55 -10 OFFCURVE",
"55 -2 CURVE SMOOTH",
"55 77 OFFCURVE",
"186 199 OFFCURVE",
"233 255 CURVE SMOOTH",
"307 343 OFFCURVE",
"385 440 OFFCURVE",
"385 556 CURVE SMOOTH",
"385 627 OFFCURVE",
"337 650 OFFCURVE",
"273 650 CURVE SMOOTH",
"240 650 OFFCURVE",
"208 645 OFFCURVE",
"177 638 CURVE SMOOTH",
"141 630 OFFCURVE",
"118 603 OFFCURVE",
"181 619 CURVE SMOOTH",
"208 626 OFFCURVE",
"236 630 OFFCURVE",
"264 630 CURVE SMOOTH",
"311 630 OFFCURVE",
"349 615 OFFCURVE",
"349 562 CURVE SMOOTH",
"349 550 OFFCURVE",
"348 539 OFFCURVE",
"345 529 CURVE SMOOTH",
"323 426 OFFCURVE",
"198 274 OFFCURVE",
"142 196 CURVE SMOOTH",
"106 148 OFFCURVE",
"35 59 OFFCURVE",
"35 1 CURVE SMOOTH",
"35 -17 OFFCURVE",
"43 -30 OFFCURVE",
"67 -30 CURVE SMOOTH",
"173 -30 OFFCURVE",
"285 66 OFFCURVE",
"367 122 CURVE",
"350 71 OFFCURVE",
"336 15 OFFCURVE",
"336 -38 CURVE SMOOTH"
);
}
);
width = 460;
}
);
note = U.001;
unicode = E01E;
},
{
glyphname = V.001;
layers = (
{
hints = (
{
horizontal = 1;
place = "{-87, 21}";
target = up;
type = BottomGhost;
},
{
horizontal = 1;
place = "{614, -20}";
target = down;
type = TopGhost;
},
{
place = "{339, 35}";
type = Stem;
},
{
horizontal = 1;
place = "{615, -20}";
target = down;
type = TopGhost;
}
);
layerId = "E4C06A0B-08E3-4931-8B17-6F9B46D87BCD";
paths = (
{
closed = 1;
nodes = (
"88 -87 OFFCURVE",
"104 -70 OFFCURVE",
"113 -59 CURVE SMOOTH",
"146 -21 OFFCURVE",
"181 40 OFFCURVE",
"208 83 CURVE SMOOTH",
"227 118 LINE",
"237 136 LINE",
"270 166 LINE SMOOTH",
"293 189 OFFCURVE",
"317 209 OFFCURVE",
"341 230 CURVE SMOOTH",
"364 250 OFFCURVE",
"385 270 OFFCURVE",
"408 289 CURVE SMOOTH",
"468 341 OFFCURVE",
"526 390 OFFCURVE",
"586 441 CURVE SMOOTH",
"609 460 OFFCURVE",
"633 477 OFFCURVE",
"657 496 CURVE SMOOTH",
"675 509 OFFCURVE",
"789 591 OFFCURVE",
"808 594 CURVE SMOOTH",
"815 595 OFFCURVE",
"825 598 OFFCURVE",
"825 607 CURVE SMOOTH",
"825 614 OFFCURVE",
"812 615 OFFCURVE",
"807 615 CURVE SMOOTH",
"803 615 OFFCURVE",
"799 614 OFFCURVE",
"794 614 CURVE SMOOTH",
"761 610 OFFCURVE",
"602 483 OFFCURVE",
"574 459 CURVE SMOOTH",
"466 370 OFFCURVE",
"364 278 OFFCURVE",
"263 183 CURVE",
"298 247 OFFCURVE",
"374 400 OFFCURVE",
"374 471 CURVE SMOOTH",
"374 550 OFFCURVE",
"307 568 OFFCURVE",
"240 568 CURVE SMOOTH",
"172 568 OFFCURVE",
"89 549 OFFCURVE",
"26 524 CURVE SMOOTH",
"-27 503 OFFCURVE",
"17 493 OFFCURVE",
"31 504 CURVE",
"88 529 OFFCURVE",
"165 552 OFFCURVE",
"229 552 CURVE SMOOTH",
"288 552 OFFCURVE",
"339 533 OFFCURVE",
"339 465 CURVE SMOOTH",
"339 442 OFFCURVE",
"334 422 OFFCURVE",
"327 401 CURVE SMOOTH",
"302 321 OFFCURVE",
"270 243 OFFCURVE",
"231 170 CURVE SMOOTH",
"227 161 OFFCURVE",
"220 143 OFFCURVE",
"213 136 CURVE SMOOTH",
"205 127 OFFCURVE",
"193 117 OFFCURVE",
"182 106 CURVE",
"156 74 OFFCURVE",
"61 -35 OFFCURVE",
"61 -73 CURVE SMOOTH",
"61 -82 OFFCURVE",
"65 -87 OFFCURVE",
"72 -87 CURVE SMOOTH"
);
}
);
width = 408;
}
);
note = V.001;
unicode = E01F;
},
{
glyphname = W.001;
layers = (
{
hints = (
{
horizontal = 1;
place = "{-141, 25}";
type = Stem;
},
{
horizontal = 1;
place = "{516, 21}";
type = Stem;
},
{
place = "{-9, 29}";
type = Stem;
},
{
place = "{328, 36}";
type = Stem;
},
{
place = "{385, 38}";
type = Stem;
},
{
place = "{912, 31}";
type = Stem;
}
);
layerId = "E4C06A0B-08E3-4931-8B17-6F9B46D87BCD";
paths = (
{
closed = 1;
nodes = (
"562 -36 OFFCURVE",
"592 -28 OFFCURVE",
"620 -17 CURVE SMOOTH",
"809 58 OFFCURVE",
"943 235 OFFCURVE",
"943 441 CURVE SMOOTH",
"943 490 OFFCURVE",
"923 537 OFFCURVE",
"867 537 CURVE SMOOTH",
"858 537 OFFCURVE",
"837 537 OFFCURVE",
"837 525 CURVE SMOOTH",
"837 518 OFFCURVE",
"840 514 OFFCURVE",
"846 514 CURVE SMOOTH",
"851 514 OFFCURVE",
"856 516 OFFCURVE",
"861 516 CURVE SMOOTH",
"904 516 OFFCURVE",
"912 459 OFFCURVE",
"912 427 CURVE SMOOTH",
"912 347 OFFCURVE",
"872 254 OFFCURVE",
"829 187 CURVE SMOOTH",
"785 120 OFFCURVE",
"685 37 OFFCURVE",
"611 5 CURVE SMOOTH",
"584 -7 OFFCURVE",
"557 -17 OFFCURVE",
"526 -17 CURVE SMOOTH",
"436 -17 OFFCURVE",
"423 86 OFFCURVE",
"423 156 CURVE SMOOTH",
"423 183 OFFCURVE",
"424 207 OFFCURVE",
"428 234 CURVE",
"435 245 OFFCURVE",
"444 258 OFFCURVE",
"444 273 CURVE SMOOTH",
"444 281 OFFCURVE",
"439 299 OFFCURVE",
"428 299 CURVE SMOOTH",
"409 299 OFFCURVE",
"393 228 OFFCURVE",
"390 213 CURVE",
"323 119 OFFCURVE",
"186 -41 OFFCURVE",
"86 -98 CURVE SMOOTH",
"74 -105 OFFCURVE",
"53 -116 OFFCURVE",
"38 -116 CURVE SMOOTH",
"25 -116 OFFCURVE",
"20 -106 OFFCURVE",
"20 -94 CURVE SMOOTH",
"20 -78 OFFCURVE",
"27 -59 OFFCURVE",
"32 -44 CURVE SMOOTH",
"67 53 OFFCURVE",
"110 111 OFFCURVE",
"174 188 CURVE SMOOTH",
"207 227 OFFCURVE",
"240 268 OFFCURVE",
"268 311 CURVE SMOOTH",
"308 375 OFFCURVE",
"364 480 OFFCURVE",
"364 556 CURVE SMOOTH",
"364 596 OFFCURVE",
"328 589 OFFCURVE",
"328 562 CURVE SMOOTH",
"328 486 OFFCURVE",
"251 373 OFFCURVE",
"211 308 CURVE SMOOTH",
"156 221 OFFCURVE",
"-9 -11 OFFCURVE",
"-9 -103 CURVE SMOOTH",
"-9 -124 OFFCURVE",
"-1 -141 OFFCURVE",
"23 -141 CURVE SMOOTH",
"46 -141 OFFCURVE",
"77 -126 OFFCURVE",
"96 -115 CURVE SMOOTH",
"193 -61 OFFCURVE",
"319 83 OFFCURVE",
"385 173 CURVE",
"380 77 OFFCURVE",
"418 -36 OFFCURVE",
"531 -36 CURVE SMOOTH"
);
}
);
width = 963;
}
);
note = W.001;
unicode = E020;
},
